<ttFont>
    <TTGlyph name="A" xMin="-27" yMin="0" xMax="561" yMax="690">
      <contour>
        <pt x="451" y="228" on="1"/>
        <pt x="150" y="228" on="1"/>
        <pt x="43" y="0" on="1"/>
        <pt x="-27" y="0" on="1"/>
        <pt x="298" y="673" on="1"/>
        <pt x="305" y="690" on="0"/>
        <pt x="325" y="690" on="1"/>
        <pt x="400" y="690" on="1"/>
        <pt x="409" y="690" on="0"/>
        <pt x="423" y="678" on="0"/>
        <pt x="424" y="670" on="1"/>
        <pt x="561" y="0" on="1"/>
        <pt x="495" y="0" on="1"/>
      </contour>
      <contour>
        <pt x="440" y="286" on="1"/>
        <pt x="383" y="581" on="1"/>
        <pt x="381" y="591" on="0"/>
        <pt x="375" y="629" on="0"/>
        <pt x="374" y="639" on="1"/>
        <pt x="344" y="639" on="1"/>
        <pt x="341" y="633" on="0"/>
        <pt x="322" y="591" on="0"/>
        <pt x="317" y="581" on="1"/>
        <pt x="178" y="286" on="1"/>
      </contour>
    </TTGlyph>
    <TTGlyph name="AE" xMin="-38" yMin="-1" xMax="911" yMax="690">
      <contour>
        <pt x="903" y="635" on="1"/>
        <pt x="643" y="635" on="1"/>
        <pt x="571" y="635" on="0"/>
        <pt x="560" y="561" on="1"/>
        <pt x="536" y="392" on="1"/>
        <pt x="828" y="392" on="1"/>
        <pt x="822" y="340" on="1"/>
        <pt x="529" y="340" on="1"/>
        <pt x="500" y="127" on="1"/>
        <pt x="489" y="55" on="0"/>
        <pt x="560" y="55" on="1"/>
        <pt x="822" y="55" on="1"/>
        <pt x="819" y="5" on="1"/>
        <pt x="710" y="-1" on="0"/>
        <pt x="548" y="-1" on="1"/>
        <pt x="490" y="-1" on="0"/>
        <pt x="428" y="68" on="0"/>
        <pt x="437" y="125" on="1"/>
        <pt x="453" y="241" on="1"/>
        <pt x="214" y="241" on="1"/>
        <pt x="33" y="0" on="1"/>
        <pt x="-38" y="0" on="1"/>
        <pt x="407" y="591" on="1"/>
        <pt x="451" y="650" on="0"/>
        <pt x="544" y="690" on="0"/>
        <pt x="622" y="690" on="1"/>
        <pt x="808" y="690" on="0"/>
        <pt x="911" y="685" on="1"/>
      </contour>
      <contour>
        <pt x="461" y="297" on="1"/>
        <pt x="499" y="570" on="1"/>
        <pt x="502" y="592" on="0"/>
        <pt x="527" y="634" on="0"/>
        <pt x="543" y="642" on="1"/>
        <pt x="539" y="642" on="1"/>
        <pt x="502" y="624" on="0"/>
        <pt x="464" y="575" on="1"/>
        <pt x="257" y="297" on="1"/>
      </contour>
    </TTGlyph>
    <TTGlyph name="Aacute" xMin="-27" yMin="0" xMax="561" yMax="908">
      <contour>
        <pt x="337" y="731" on="1"/>
        <pt x="315" y="761" on="1"/>
        <pt x="498" y="908" on="1"/>
        <pt x="531" y="859" on="1"/>
      </contour>
      <contour>
        <pt x="451" y="228" on="1"/>
        <pt x="150" y="228" on="1"/>
        <pt x="43" y="0" on="1"/>
        <pt x="-27" y="0" on="1"/>
        <pt x="298" y="673" on="1"/>
        <pt x="305" y="690" on="0"/>
        <pt x="325" y="690" on="1"/>
        <pt x="400" y="690" on="1"/>
        <pt x="409" y="690" on="0"/>
        <pt x="423" y="678" on="0"/>
        <pt x="424" y="670" on="1"/>
        <pt x="561" y="0" on="1"/>
        <pt x="495" y="0" on="1"/>
      </contour>
      <contour>
        <pt x="440" y="286" on="1"/>
        <pt x="383" y="581" on="1"/>
        <pt x="381" y="591" on="0"/>
        <pt x="375" y="629" on="0"/>
        <pt x="374" y="639" on="1"/>
        <pt x="344" y="639" on="1"/>
        <pt x="341" y="633" on="0"/>
        <pt x="322" y="591" on="0"/>
        <pt x="317" y="581" on="1"/>
        <pt x="178" y="286" on="1"/>
      </contour>
    </TTGlyph>
    <TTGlyph name="Abreve" xMin="-27" yMin="0" xMax="561" yMax="882">
      <contour>
        <pt x="501" y="882" on="1"/>
        <pt x="535" y="873" on="1"/>
        <pt x="529" y="816" on="0"/>
        <pt x="444" y="749" on="0"/>
        <pt x="377" y="749" on="1"/>
        <pt x="307" y="749" on="0"/>
        <pt x="234" y="819" on="0"/>
        <pt x="245" y="876" on="1"/>
        <pt x="280" y="879" on="1"/>
        <pt x="274" y="841" on="0"/>
        <pt x="327" y="798" on="0"/>
        <pt x="377" y="798" on="1"/>
        <pt x="429" y="798" on="0"/>
        <pt x="496" y="843" on="0"/>
      </contour>
      <contour>
        <pt x="451" y="228" on="1"/>
        <pt x="150" y="228" on="1"/>
        <pt x="43" y="0" on="1"/>
        <pt x="-27" y="0" on="1"/>
        <pt x="298" y="673" on="1"/>
        <pt x="305" y="690" on="0"/>
        <pt x="325" y="690" on="1"/>
        <pt x="400" y="690" on="1"/>
        <pt x="409" y="690" on="0"/>
        <pt x="423" y="678" on="0"/>
        <pt x="424" y="670" on="1"/>
        <pt x="561" y="0" on="1"/>
        <pt x="495" y="0" on="1"/>
      </contour>
      <contour>
        <pt x="440" y="286" on="1"/>
        <pt x="383" y="581" on="1"/>
        <pt x="381" y="591" on="0"/>
        <pt x="375" y="629" on="0"/>
        <pt x="374" y="639" on="1"/>
        <pt x="344" y="639" on="1"/>
        <pt x="341" y="633" on="0"/>
        <pt x="322" y="591" on="0"/>
        <pt x="317" y="581" on="1"/>
        <pt x="178" y="286" on="1"/>
      </contour>
    </TTGlyph>
    <TTGlyph name="Acircumflex" xMin="-27" yMin="0" xMax="561" yMax="890">
      <contour>
        <pt x="238" y="738" on="1"/>
        <pt x="219" y="767" on="1"/>
        <pt x="368" y="890" on="1"/>
        <pt x="414" y="890" on="1"/>
        <pt x="537" y="763" on="1"/>
        <pt x="512" y="737" on="1"/>
        <pt x="394" y="839" on="1"/>
        <pt x="385" y="839" on="1"/>
      </contour>
      <contour>
        <pt x="451" y="228" on="1"/>
        <pt x="150" y="228" on="1"/>
        <pt x="43" y="0" on="1"/>
        <pt x="-27" y="0" on="1"/>
        <pt x="298" y="673" on="1"/>
        <pt x="305" y="690" on="0"/>
        <pt x="325" y="690" on="1"/>
        <pt x="400" y="690" on="1"/>
        <pt x="409" y="690" on="0"/>
        <pt x="423" y="678" on="0"/>
        <pt x="424" y="670" on="1"/>
        <pt x="561" y="0" on="1"/>
        <pt x="495" y="0" on="1"/>
      </contour>
      <contour>
        <pt x="440" y="286" on="1"/>
        <pt x="383" y="581" on="1"/>
        <pt x="381" y="591" on="0"/>
        <pt x="375" y="629" on="0"/>
        <pt x="374" y="639" on="1"/>
        <pt x="344" y="639" on="1"/>
        <pt x="341" y="633" on="0"/>
        <pt x="322" y="591" on="0"/>
        <pt x="317" y="581" on="1"/>
        <pt x="178" y="286" on="1"/>
      </contour>
    </TTGlyph>
    <TTGlyph name="Adieresis" xMin="-27" yMin="0" xMax="561" yMax="865">
      <contour>
        <pt x="301" y="771" on="1"/>
        <pt x="280" y="771" on="1"/>
        <pt x="260" y="771" on="0"/>
        <pt x="263" y="790" on="1"/>
        <pt x="271" y="845" on="1"/>
        <pt x="274" y="865" on="0"/>
        <pt x="294" y="865" on="1"/>
        <pt x="313" y="865" on="1"/>
        <pt x="334" y="865" on="0"/>
        <pt x="331" y="845" on="1"/>
        <pt x="322" y="791" on="1"/>
        <pt x="321" y="771" on="0"/>
      </contour>
      <contour>
        <pt x="473" y="771" on="1"/>
        <pt x="452" y="771" on="1"/>
        <pt x="432" y="771" on="0"/>
        <pt x="435" y="790" on="1"/>
        <pt x="443" y="845" on="1"/>
        <pt x="446" y="865" on="0"/>
        <pt x="465" y="865" on="1"/>
        <pt x="485" y="865" on="1"/>
        <pt x="506" y="865" on="0"/>
        <pt x="503" y="845" on="1"/>
        <pt x="494" y="791" on="1"/>
        <pt x="493" y="771" on="0"/>
      </contour>
      <contour>
        <pt x="451" y="228" on="1"/>
        <pt x="150" y="228" on="1"/>
        <pt x="43" y="0" on="1"/>
        <pt x="-27" y="0" on="1"/>
        <pt x="298" y="673" on="1"/>
        <pt x="305" y="690" on="0"/>
        <pt x="325" y="690" on="1"/>
        <pt x="400" y="690" on="1"/>
        <pt x="409" y="690" on="0"/>
        <pt x="423" y="678" on="0"/>
        <pt x="424" y="670" on="1"/>
        <pt x="561" y="0" on="1"/>
        <pt x="495" y="0" on="1"/>
      </contour>
      <contour>
        <pt x="440" y="286" on="1"/>
        <pt x="383" y="581" on="1"/>
        <pt x="381" y="591" on="0"/>
        <pt x="375" y="629" on="0"/>
        <pt x="374" y="639" on="1"/>
        <pt x="344" y="639" on="1"/>
        <pt x="341" y="633" on="0"/>
        <pt x="322" y="591" on="0"/>
        <pt x="317" y="581" on="1"/>
        <pt x="178" y="286" on="1"/>
      </contour>
    </TTGlyph>
    <TTGlyph name="Agrave" xMin="-27" yMin="0" xMax="561" yMax="907">
      <contour>
        <pt x="394" y="731" on="1"/>
        <pt x="227" y="861" on="1"/>
        <pt x="264" y="907" on="1"/>
        <pt x="419" y="760" on="1"/>
      </contour>
      <contour>
        <pt x="451" y="228" on="1"/>
        <pt x="150" y="228" on="1"/>
        <pt x="43" y="0" on="1"/>
        <pt x="-27" y="0" on="1"/>
        <pt x="298" y="673" on="1"/>
        <pt x="305" y="690" on="0"/>
        <pt x="325" y="690" on="1"/>
        <pt x="400" y="690" on="1"/>
        <pt x="409" y="690" on="0"/>
        <pt x="423" y="678" on="0"/>
        <pt x="424" y="670" on="1"/>
        <pt x="561" y="0" on="1"/>
        <pt x="495" y="0" on="1"/>
      </contour>
      <contour>
        <pt x="440" y="286" on="1"/>
        <pt x="383" y="581" on="1"/>
        <pt x="381" y="591" on="0"/>
        <pt x="375" y="629" on="0"/>
        <pt x="374" y="639" on="1"/>
        <pt x="344" y="639" on="1"/>
        <pt x="341" y="633" on="0"/>
        <pt x="322" y="591" on="0"/>
        <pt x="317" y="581" on="1"/>
        <pt x="178" y="286" on="1"/>
      </contour>
    </TTGlyph>
    <TTGlyph name="Amacron" xMin="-27" yMin="0" xMax="561" yMax="841">
      <contour>
        <pt x="515" y="792" on="1"/>
        <pt x="243" y="792" on="1"/>
        <pt x="250" y="841" on="1"/>
        <pt x="522" y="841" on="1"/>
      </contour>
      <contour>
        <pt x="451" y="228" on="1"/>
        <pt x="150" y="228" on="1"/>
        <pt x="43" y="0" on="1"/>
        <pt x="-27" y="0" on="1"/>
        <pt x="298" y="673" on="1"/>
        <pt x="305" y="690" on="0"/>
        <pt x="325" y="690" on="1"/>
        <pt x="400" y="690" on="1"/>
        <pt x="409" y="690" on="0"/>
        <pt x="423" y="678" on="0"/>
        <pt x="424" y="670" on="1"/>
        <pt x="561" y="0" on="1"/>
        <pt x="495" y="0" on="1"/>
      </contour>
      <contour>
        <pt x="440" y="286" on="1"/>
        <pt x="383" y="581" on="1"/>
        <pt x="381" y="591" on="0"/>
        <pt x="375" y="629" on="0"/>
        <pt x="374" y="639" on="1"/>
        <pt x="344" y="639" on="1"/>
        <pt x="341" y="633" on="0"/>
        <pt x="322" y="591" on="0"/>
        <pt x="317" y="581" on="1"/>
        <pt x="178" y="286" on="1"/>
      </contour>
    </TTGlyph>
    <TTGlyph name="Aogonek" xMin="-27" yMin="-201" xMax="561" yMax="690">
      <contour>
        <pt x="424" y="670" on="1"/>
        <pt x="561" y="0" on="1"/>
        <pt x="501" y="-58" on="0"/>
        <pt x="467" y="-121" on="1"/>
        <pt x="446" y="-160" on="0"/>
        <pt x="488" y="-184" on="0"/>
        <pt x="541" y="-166" on="1"/>
        <pt x="549" y="-194" on="1"/>
        <pt x="458" y="-228" on="0"/>
        <pt x="390" y="-174" on="0"/>
        <pt x="419" y="-117" on="1"/>
        <pt x="451" y="-58" on="0"/>
        <pt x="526" y="0" on="1"/>
        <pt x="495" y="0" on="1"/>
        <pt x="451" y="228" on="1"/>
        <pt x="150" y="228" on="1"/>
        <pt x="43" y="0" on="1"/>
        <pt x="-27" y="0" on="1"/>
        <pt x="298" y="673" on="1"/>
        <pt x="305" y="690" on="0"/>
        <pt x="325" y="690" on="1"/>
        <pt x="400" y="690" on="1"/>
        <pt x="409" y="690" on="0"/>
        <pt x="423" y="678" on="0"/>
      </contour>
      <contour>
        <pt x="440" y="286" on="1"/>
        <pt x="383" y="581" on="1"/>
        <pt x="381" y="591" on="0"/>
        <pt x="375" y="629" on="0"/>
        <pt x="374" y="639" on="1"/>
        <pt x="344" y="639" on="1"/>
        <pt x="341" y="633" on="0"/>
        <pt x="322" y="591" on="0"/>
        <pt x="317" y="581" on="1"/>
        <pt x="178" y="286" on="1"/>
      </contour>
    </TTGlyph>
    <TTGlyph name="Aring" xMin="-27" yMin="0" xMax="561" yMax="919">
      <contour>
        <pt x="376" y="716" on="1"/>
        <pt x="330" y="716" on="0"/>
        <pt x="275" y="776" on="0"/>
        <pt x="280" y="820" on="1"/>
        <pt x="285" y="861" on="0"/>
        <pt x="345" y="919" on="0"/>
        <pt x="390" y="919" on="1"/>
        <pt x="436" y="919" on="0"/>
        <pt x="491" y="859" on="0"/>
        <pt x="486" y="814" on="1"/>
        <pt x="480" y="773" on="0"/>
        <pt x="421" y="716" on="0"/>
      </contour>
      <contour>
        <pt x="318" y="817" on="1"/>
        <pt x="315" y="787" on="0"/>
        <pt x="348" y="751" on="0"/>
        <pt x="376" y="751" on="1"/>
        <pt x="405" y="751" on="0"/>
        <pt x="445" y="790" on="0"/>
        <pt x="448" y="819" on="1"/>
        <pt x="451" y="847" on="0"/>
        <pt x="419" y="884" on="0"/>
        <pt x="361" y="884" on="0"/>
        <pt x="321" y="846" on="0"/>
      </contour>
      <contour>
        <pt x="451" y="228" on="1"/>
        <pt x="150" y="228" on="1"/>
        <pt x="43" y="0" on="1"/>
        <pt x="-27" y="0" on="1"/>
        <pt x="298" y="673" on="1"/>
        <pt x="305" y="690" on="0"/>
        <pt x="325" y="690" on="1"/>
        <pt x="400" y="690" on="1"/>
        <pt x="409" y="690" on="0"/>
        <pt x="423" y="678" on="0"/>
        <pt x="424" y="670" on="1"/>
        <pt x="561" y="0" on="1"/>
        <pt x="495" y="0" on="1"/>
      </contour>
      <contour>
        <pt x="440" y="286" on="1"/>
        <pt x="383" y="581" on="1"/>
        <pt x="381" y="591" on="0"/>
        <pt x="375" y="629" on="0"/>
        <pt x="374" y="639" on="1"/>
        <pt x="344" y="639" on="1"/>
        <pt x="341" y="633" on="0"/>
        <pt x="322" y="591" on="0"/>
        <pt x="317" y="581" on="1"/>
        <pt x="178" y="286" on="1"/>
      </contour>
    </TTGlyph>
    <TTGlyph name="Atilde" xMin="-27" yMin="0" xMax="561" yMax="875">
      <contour>
        <pt x="512" y="871" on="1"/>
        <pt x="543" y="868" on="1"/>
        <pt x="541" y="817" on="0"/>
        <pt x="493" y="765" on="0"/>
        <pt x="456" y="768" on="1"/>
        <pt x="418" y="771" on="0"/>
        <pt x="338" y="826" on="0"/>
        <pt x="318" y="828" on="1"/>
        <pt x="263" y="833" on="0"/>
        <pt x="254" y="768" on="1"/>
        <pt x="223" y="771" on="1"/>
        <pt x="226" y="824" on="0"/>
        <pt x="275" y="878" on="0"/>
        <pt x="311" y="875" on="1"/>
        <pt x="343" y="872" on="0"/>
        <pt x="422" y="818" on="0"/>
        <pt x="448" y="815" on="1"/>
        <pt x="478" y="812" on="0"/>
        <pt x="507" y="839" on="0"/>
      </contour>
      <contour>
        <pt x="451" y="228" on="1"/>
        <pt x="150" y="228" on="1"/>
        <pt x="43" y="0" on="1"/>
        <pt x="-27" y="0" on="1"/>
        <pt x="298" y="673" on="1"/>
        <pt x="305" y="690" on="0"/>
        <pt x="325" y="690" on="1"/>
        <pt x="400" y="690" on="1"/>
        <pt x="409" y="690" on="0"/>
        <pt x="423" y="678" on="0"/>
        <pt x="424" y="670" on="1"/>
        <pt x="561" y="0" on="1"/>
        <pt x="495" y="0" on="1"/>
      </contour>
      <contour>
        <pt x="440" y="286" on="1"/>
        <pt x="383" y="581" on="1"/>
        <pt x="381" y="591" on="0"/>
        <pt x="375" y="629" on="0"/>
        <pt x="374" y="639" on="1"/>
        <pt x="344" y="639" on="1"/>
        <pt x="341" y="633" on="0"/>
        <pt x="322" y="591" on="0"/>
        <pt x="317" y="581" on="1"/>
        <pt x="178" y="286" on="1"/>
      </contour>
    </TTGlyph>
    <TTGlyph name="B" xMin="51" yMin="-8" xMax="564" yMax="698">
      <contour>
        <pt x="51" y="0" on="1"/>
        <pt x="148" y="690" on="1"/>
        <pt x="225" y="698" on="0"/>
        <pt x="360" y="698" on="1"/>
        <pt x="486" y="698" on="0"/>
        <pt x="579" y="620" on="0"/>
        <pt x="564" y="515" on="1"/>
        <pt x="553" y="441" on="0"/>
        <pt x="488" y="366" on="0"/>
        <pt x="426" y="360" on="1"/>
        <pt x="425" y="355" on="1"/>
        <pt x="498" y="349" on="0"/>
        <pt x="549" y="255" on="0"/>
        <pt x="536" y="169" on="1"/>
        <pt x="521" y="65" on="0"/>
        <pt x="418" y="-8" on="0"/>
        <pt x="298" y="-8" on="1"/>
        <pt x="138" y="-8" on="0"/>
      </contour>
      <contour>
        <pt x="170" y="383" on="1"/>
        <pt x="331" y="383" on="1"/>
        <pt x="416" y="384" on="0"/>
        <pt x="489" y="438" on="0"/>
        <pt x="500" y="514" on="1"/>
        <pt x="511" y="592" on="0"/>
        <pt x="450" y="642" on="0"/>
        <pt x="357" y="642" on="1"/>
        <pt x="243" y="642" on="0"/>
        <pt x="206" y="641" on="1"/>
      </contour>
      <contour>
        <pt x="162" y="332" on="1"/>
        <pt x="123" y="50" on="1"/>
        <pt x="205" y="48" on="0"/>
        <pt x="290" y="48" on="1"/>
        <pt x="383" y="48" on="0"/>
        <pt x="461" y="104" on="0"/>
        <pt x="472" y="184" on="1"/>
        <pt x="484" y="270" on="0"/>
        <pt x="423" y="330" on="0"/>
        <pt x="328" y="332" on="1"/>
      </contour>
    </TTGlyph>
    <TTGlyph name="C" xMin="74" yMin="-12" xMax="567" yMax="702">
      <contour>
        <pt x="485" y="58" on="1"/>
        <pt x="490" y="9" on="1"/>
        <pt x="409" y="-12" on="0"/>
        <pt x="292" y="-12" on="1"/>
        <pt x="146" y="-12" on="0"/>
        <pt x="46" y="155" on="0"/>
        <pt x="74" y="348" on="1"/>
        <pt x="101" y="544" on="0"/>
        <pt x="239" y="702" on="0"/>
        <pt x="384" y="702" on="1"/>
        <pt x="488" y="702" on="0"/>
        <pt x="567" y="683" on="1"/>
        <pt x="555" y="634" on="1"/>
        <pt x="482" y="643" on="0"/>
        <pt x="384" y="643" on="1"/>
        <pt x="270" y="643" on="0"/>
        <pt x="166" y="516" on="0"/>
        <pt x="141" y="342" on="1"/>
        <pt x="118" y="175" on="0"/>
        <pt x="183" y="47" on="0"/>
        <pt x="292" y="47" on="1"/>
        <pt x="399" y="46" on="0"/>
      </contour>
    </TTGlyph>
    <TTGlyph name="Cacute" xMin="74" yMin="-12" xMax="567" yMax="908">
      <contour>
        <pt x="542" y="859" on="1"/>
        <pt x="348" y="731" on="1"/>
        <pt x="326" y="761" on="1"/>
        <pt x="509" y="908" on="1"/>
      </contour>
      <contour>
        <pt x="485" y="58" on="1"/>
        <pt x="490" y="9" on="1"/>
        <pt x="409" y="-12" on="0"/>
        <pt x="292" y="-12" on="1"/>
        <pt x="146" y="-12" on="0"/>
        <pt x="46" y="155" on="0"/>
        <pt x="74" y="348" on="1"/>
        <pt x="101" y="544" on="0"/>
        <pt x="239" y="702" on="0"/>
        <pt x="384" y="702" on="1"/>
        <pt x="488" y="702" on="0"/>
        <pt x="567" y="683" on="1"/>
        <pt x="555" y="634" on="1"/>
        <pt x="482" y="643" on="0"/>
        <pt x="384" y="643" on="1"/>
        <pt x="270" y="643" on="0"/>
        <pt x="166" y="516" on="0"/>
        <pt x="141" y="342" on="1"/>
        <pt x="118" y="175" on="0"/>
        <pt x="183" y="47" on="0"/>
        <pt x="292" y="47" on="1"/>
        <pt x="399" y="46" on="0"/>
      </contour>
    </TTGlyph>
    <TTGlyph name="Ccaron" xMin="74" yMin="-12" xMax="567" yMax="898">
      <contour>
        <pt x="560" y="870" on="1"/>
        <pt x="409" y="746" on="1"/>
        <pt x="362" y="746" on="1"/>
        <pt x="244" y="873" on="1"/>
        <pt x="270" y="898" on="1"/>
        <pt x="384" y="797" on="1"/>
        <pt x="392" y="797" on="1"/>
        <pt x="539" y="898" on="1"/>
      </contour>
      <contour>
        <pt x="485" y="58" on="1"/>
        <pt x="490" y="9" on="1"/>
        <pt x="409" y="-12" on="0"/>
        <pt x="292" y="-12" on="1"/>
        <pt x="146" y="-12" on="0"/>
        <pt x="46" y="155" on="0"/>
        <pt x="74" y="348" on="1"/>
        <pt x="101" y="544" on="0"/>
        <pt x="239" y="702" on="0"/>
        <pt x="384" y="702" on="1"/>
        <pt x="488" y="702" on="0"/>
        <pt x="567" y="683" on="1"/>
        <pt x="555" y="634" on="1"/>
        <pt x="482" y="643" on="0"/>
        <pt x="384" y="643" on="1"/>
        <pt x="270" y="643" on="0"/>
        <pt x="166" y="516" on="0"/>
        <pt x="141" y="342" on="1"/>
        <pt x="118" y="175" on="0"/>
        <pt x="183" y="47" on="0"/>
        <pt x="292" y="47" on="1"/>
        <pt x="399" y="46" on="0"/>
      </contour>
    </TTGlyph>
    <TTGlyph name="Ccedilla" xMin="74" yMin="-238" xMax="567" yMax="702">
      <contour>
        <pt x="485" y="58" on="1"/>
        <pt x="490" y="9" on="1"/>
        <pt x="409" y="-12" on="0"/>
        <pt x="292" y="-12" on="1"/>
        <pt x="146" y="-12" on="0"/>
        <pt x="46" y="155" on="0"/>
        <pt x="74" y="348" on="1"/>
        <pt x="101" y="544" on="0"/>
        <pt x="239" y="702" on="0"/>
        <pt x="384" y="702" on="1"/>
        <pt x="488" y="702" on="0"/>
        <pt x="567" y="683" on="1"/>
        <pt x="555" y="634" on="1"/>
        <pt x="482" y="643" on="0"/>
        <pt x="384" y="643" on="1"/>
        <pt x="270" y="643" on="0"/>
        <pt x="166" y="516" on="0"/>
        <pt x="141" y="342" on="1"/>
        <pt x="118" y="175" on="0"/>
        <pt x="183" y="47" on="0"/>
        <pt x="292" y="47" on="1"/>
        <pt x="399" y="46" on="0"/>
      </contour>
      <contour>
        <pt x="229" y="-88" on="1"/>
        <pt x="236" y="-57" on="1"/>
        <pt x="289" y="-52" on="0"/>
        <pt x="336" y="-83" on="0"/>
        <pt x="329" y="-125" on="1"/>
        <pt x="319" y="-183" on="0"/>
        <pt x="224" y="-247" on="0"/>
        <pt x="157" y="-238" on="1"/>
        <pt x="169" y="-203" on="1"/>
        <pt x="212" y="-204" on="0"/>
        <pt x="276" y="-159" on="0"/>
        <pt x="282" y="-124" on="1"/>
        <pt x="285" y="-103" on="0"/>
        <pt x="264" y="-89" on="0"/>
      </contour>
    </TTGlyph>
    <TTGlyph name="Cdotaccent" xMin="74" yMin="-12" xMax="567" yMax="865">
      <contour>
        <pt x="388" y="865" on="1"/>
        <pt x="410" y="865" on="1"/>
        <pt x="432" y="865" on="0"/>
        <pt x="429" y="842" on="1"/>
        <pt x="421" y="785" on="1"/>
        <pt x="418" y="764" on="0"/>
        <pt x="399" y="764" on="1"/>
        <pt x="378" y="764" on="1"/>
        <pt x="356" y="764" on="0"/>
        <pt x="358" y="787" on="1"/>
        <pt x="366" y="844" on="1"/>
        <pt x="369" y="865" on="0"/>
      </contour>
      <contour>
        <pt x="485" y="58" on="1"/>
        <pt x="490" y="9" on="1"/>
        <pt x="409" y="-12" on="0"/>
        <pt x="292" y="-12" on="1"/>
        <pt x="146" y="-12" on="0"/>
        <pt x="46" y="155" on="0"/>
        <pt x="74" y="348" on="1"/>
        <pt x="101" y="544" on="0"/>
        <pt x="239" y="702" on="0"/>
        <pt x="384" y="702" on="1"/>
        <pt x="488" y="702" on="0"/>
        <pt x="567" y="683" on="1"/>
        <pt x="555" y="634" on="1"/>
        <pt x="482" y="643" on="0"/>
        <pt x="384" y="643" on="1"/>
        <pt x="270" y="643" on="0"/>
        <pt x="166" y="516" on="0"/>
        <pt x="141" y="342" on="1"/>
        <pt x="118" y="175" on="0"/>
        <pt x="183" y="47" on="0"/>
        <pt x="292" y="47" on="1"/>
        <pt x="399" y="46" on="0"/>
      </contour>
    </TTGlyph>
    <TTGlyph name="D" xMin="51" yMin="-9" xMax="602" yMax="699">
      <contour>
        <pt x="51" y="0" on="1"/>
        <pt x="148" y="690" on="1"/>
        <pt x="270" y="699" on="0"/>
        <pt x="375" y="699" on="1"/>
        <pt x="527" y="699" on="0"/>
        <pt x="630" y="540" on="0"/>
        <pt x="602" y="342" on="1"/>
        <pt x="587" y="234" on="0"/>
        <pt x="540" y="99" on="0"/>
        <pt x="460" y="20" on="0"/>
        <pt x="359" y="-9" on="0"/>
        <pt x="281" y="-9" on="1"/>
        <pt x="179" y="-9" on="0"/>
      </contour>
      <contour>
        <pt x="207" y="639" on="1"/>
        <pt x="124" y="51" on="1"/>
        <pt x="224" y="49" on="0"/>
        <pt x="280" y="49" on="1"/>
        <pt x="363" y="49" on="0"/>
        <pt x="458" y="99" on="0"/>
        <pt x="517" y="226" on="0"/>
        <pt x="534" y="348" on="1"/>
        <pt x="559" y="520" on="0"/>
        <pt x="491" y="642" on="0"/>
        <pt x="374" y="642" on="1"/>
        <pt x="363" y="642" on="0"/>
      </contour>
    </TTGlyph>
    <TTGlyph name="Dcaron" xMin="51" yMin="-9" xMax="602" yMax="898">
      <contour>
        <pt x="357" y="746" on="1"/>
        <pt x="239" y="873" on="1"/>
        <pt x="265" y="898" on="1"/>
        <pt x="379" y="797" on="1"/>
        <pt x="387" y="797" on="1"/>
        <pt x="534" y="898" on="1"/>
        <pt x="555" y="870" on="1"/>
        <pt x="404" y="746" on="1"/>
      </contour>
      <contour>
        <pt x="51" y="0" on="1"/>
        <pt x="148" y="690" on="1"/>
        <pt x="270" y="699" on="0"/>
        <pt x="375" y="699" on="1"/>
        <pt x="527" y="699" on="0"/>
        <pt x="630" y="540" on="0"/>
        <pt x="602" y="342" on="1"/>
        <pt x="587" y="234" on="0"/>
        <pt x="540" y="99" on="0"/>
        <pt x="460" y="20" on="0"/>
        <pt x="359" y="-9" on="0"/>
        <pt x="281" y="-9" on="1"/>
        <pt x="179" y="-9" on="0"/>
      </contour>
      <contour>
        <pt x="207" y="639" on="1"/>
        <pt x="124" y="51" on="1"/>
        <pt x="224" y="49" on="0"/>
        <pt x="280" y="49" on="1"/>
        <pt x="363" y="49" on="0"/>
        <pt x="458" y="99" on="0"/>
        <pt x="517" y="226" on="0"/>
        <pt x="534" y="348" on="1"/>
        <pt x="559" y="520" on="0"/>
        <pt x="491" y="642" on="0"/>
        <pt x="374" y="642" on="1"/>
        <pt x="363" y="642" on="0"/>
      </contour>
    </TTGlyph>
    <TTGlyph name="Dcroat" xMin="28" yMin="-9" xMax="602" yMax="699">
      <contour>
        <pt x="106" y="388" on="1"/>
        <pt x="148" y="690" on="1"/>
        <pt x="270" y="699" on="0"/>
        <pt x="375" y="699" on="1"/>
        <pt x="527" y="699" on="0"/>
        <pt x="630" y="540" on="0"/>
        <pt x="602" y="342" on="1"/>
        <pt x="587" y="234" on="0"/>
        <pt x="540" y="99" on="0"/>
        <pt x="460" y="20" on="0"/>
        <pt x="359" y="-9" on="0"/>
        <pt x="281" y="-9" on="1"/>
        <pt x="179" y="-9" on="0"/>
        <pt x="51" y="0" on="1"/>
        <pt x="100" y="349" on="1"/>
        <pt x="28" y="349" on="1"/>
        <pt x="33" y="388" on="1"/>
      </contour>
      <contour>
        <pt x="166" y="349" on="1"/>
        <pt x="124" y="51" on="1"/>
        <pt x="224" y="49" on="0"/>
        <pt x="280" y="49" on="1"/>
        <pt x="363" y="49" on="0"/>
        <pt x="458" y="99" on="0"/>
        <pt x="517" y="226" on="0"/>
        <pt x="534" y="348" on="1"/>
        <pt x="559" y="520" on="0"/>
        <pt x="491" y="642" on="0"/>
        <pt x="374" y="642" on="1"/>
        <pt x="363" y="642" on="0"/>
        <pt x="207" y="639" on="1"/>
        <pt x="171" y="388" on="1"/>
        <pt x="335" y="388" on="1"/>
        <pt x="329" y="349" on="1"/>
      </contour>
    </TTGlyph>
    <TTGlyph name="Delta" xMin="-11" yMin="0" xMax="556" yMax="690">
      <contour>
        <pt x="556" y="32" on="1"/>
        <pt x="552" y="0" on="1"/>
        <pt x="-11" y="0" on="1"/>
        <pt x="-7" y="32" on="1"/>
        <pt x="334" y="690" on="1"/>
        <pt x="401" y="690" on="1"/>
      </contour>
      <contour>
        <pt x="486" y="54" on="1"/>
        <pt x="373" y="553" on="1"/>
        <pt x="363" y="602" on="0"/>
        <pt x="360" y="625" on="1"/>
        <pt x="345" y="590" on="0"/>
        <pt x="326" y="550" on="1"/>
        <pt x="73" y="54" on="1"/>
      </contour>
    </TTGlyph>
    <TTGlyph name="E" xMin="62" yMin="-1" xMax="556" yMax="691">
      <contour>
        <pt x="547" y="635" on="1"/>
        <pt x="269" y="635" on="1"/>
        <pt x="198" y="635" on="0"/>
        <pt x="189" y="561" on="1"/>
        <pt x="165" y="391" on="1"/>
        <pt x="474" y="391" on="1"/>
        <pt x="467" y="340" on="1"/>
        <pt x="158" y="340" on="1"/>
        <pt x="129" y="126" on="1"/>
        <pt x="118" y="55" on="0"/>
        <pt x="189" y="55" on="1"/>
        <pt x="465" y="55" on="1"/>
        <pt x="465" y="5" on="1"/>
        <pt x="373" y="-1" on="0"/>
        <pt x="180" y="-1" on="1"/>
        <pt x="116" y="-1" on="0"/>
        <pt x="54" y="67" on="0"/>
        <pt x="62" y="125" on="1"/>
        <pt x="126" y="579" on="1"/>
        <pt x="133" y="631" on="0"/>
        <pt x="203" y="691" on="0"/>
        <pt x="260" y="691" on="1"/>
        <pt x="463" y="691" on="0"/>
        <pt x="556" y="685" on="1"/>
      </contour>
    </TTGlyph>
    <TTGlyph name="Eacute" xMin="62" yMin="-1" xMax="556" yMax="930">
      <contour>
        <pt x="335" y="753" on="1"/>
        <pt x="313" y="783" on="1"/>
        <pt x="497" y="930" on="1"/>
        <pt x="529" y="881" on="1"/>
      </contour>
      <contour>
        <pt x="547" y="635" on="1"/>
        <pt x="269" y="635" on="1"/>
        <pt x="198" y="635" on="0"/>
        <pt x="189" y="561" on="1"/>
        <pt x="165" y="391" on="1"/>
        <pt x="474" y="391" on="1"/>
        <pt x="467" y="340" on="1"/>
        <pt x="158" y="340" on="1"/>
        <pt x="129" y="126" on="1"/>
        <pt x="118" y="55" on="0"/>
        <pt x="189" y="55" on="1"/>
        <pt x="465" y="55" on="1"/>
        <pt x="465" y="5" on="1"/>
        <pt x="373" y="-1" on="0"/>
        <pt x="180" y="-1" on="1"/>
        <pt x="116" y="-1" on="0"/>
        <pt x="54" y="67" on="0"/>
        <pt x="62" y="125" on="1"/>
        <pt x="126" y="579" on="1"/>
        <pt x="133" y="631" on="0"/>
        <pt x="203" y="691" on="0"/>
        <pt x="260" y="691" on="1"/>
        <pt x="463" y="691" on="0"/>
        <pt x="556" y="685" on="1"/>
      </contour>
    </TTGlyph>
    <TTGlyph name="Ecaron" xMin="62" yMin="-1" xMax="556" yMax="920">
      <contour>
        <pt x="350" y="768" on="1"/>
        <pt x="232" y="895" on="1"/>
        <pt x="258" y="920" on="1"/>
        <pt x="372" y="819" on="1"/>
        <pt x="380" y="819" on="1"/>
        <pt x="527" y="920" on="1"/>
        <pt x="548" y="892" on="1"/>
        <pt x="396" y="768" on="1"/>
      </contour>
      <contour>
        <pt x="547" y="635" on="1"/>
        <pt x="269" y="635" on="1"/>
        <pt x="198" y="635" on="0"/>
        <pt x="189" y="561" on="1"/>
        <pt x="165" y="391" on="1"/>
        <pt x="474" y="391" on="1"/>
        <pt x="467" y="340" on="1"/>
        <pt x="158" y="340" on="1"/>
        <pt x="129" y="126" on="1"/>
        <pt x="118" y="55" on="0"/>
        <pt x="189" y="55" on="1"/>
        <pt x="465" y="55" on="1"/>
        <pt x="465" y="5" on="1"/>
        <pt x="373" y="-1" on="0"/>
        <pt x="180" y="-1" on="1"/>
        <pt x="116" y="-1" on="0"/>
        <pt x="54" y="67" on="0"/>
        <pt x="62" y="125" on="1"/>
        <pt x="126" y="579" on="1"/>
        <pt x="133" y="631" on="0"/>
        <pt x="203" y="691" on="0"/>
        <pt x="260" y="691" on="1"/>
        <pt x="463" y="691" on="0"/>
        <pt x="556" y="685" on="1"/>
      </contour>
    </TTGlyph>
    <TTGlyph name="Ecircumflex" xMin="62" yMin="-1" xMax="556" yMax="913">
      <contour>
        <pt x="237" y="760" on="1"/>
        <pt x="217" y="789" on="1"/>
        <pt x="367" y="913" on="1"/>
        <pt x="412" y="913" on="1"/>
        <pt x="535" y="786" on="1"/>
        <pt x="511" y="760" on="1"/>
        <pt x="393" y="861" on="1"/>
        <pt x="384" y="861" on="1"/>
      </contour>
      <contour>
        <pt x="547" y="635" on="1"/>
        <pt x="269" y="635" on="1"/>
        <pt x="198" y="635" on="0"/>
        <pt x="189" y="561" on="1"/>
        <pt x="165" y="391" on="1"/>
        <pt x="474" y="391" on="1"/>
        <pt x="467" y="340" on="1"/>
        <pt x="158" y="340" on="1"/>
        <pt x="129" y="126" on="1"/>
        <pt x="118" y="55" on="0"/>
        <pt x="189" y="55" on="1"/>
        <pt x="465" y="55" on="1"/>
        <pt x="465" y="5" on="1"/>
        <pt x="373" y="-1" on="0"/>
        <pt x="180" y="-1" on="1"/>
        <pt x="116" y="-1" on="0"/>
        <pt x="54" y="67" on="0"/>
        <pt x="62" y="125" on="1"/>
        <pt x="126" y="579" on="1"/>
        <pt x="133" y="631" on="0"/>
        <pt x="203" y="691" on="0"/>
        <pt x="260" y="691" on="1"/>
        <pt x="463" y="691" on="0"/>
        <pt x="556" y="685" on="1"/>
      </contour>
    </TTGlyph>
    <TTGlyph name="Edieresis" xMin="62" yMin="-1" xMax="556" yMax="887">
      <contour>
        <pt x="300" y="793" on="1"/>
        <pt x="279" y="793" on="1"/>
        <pt x="259" y="793" on="0"/>
        <pt x="262" y="812" on="1"/>
        <pt x="270" y="867" on="1"/>
        <pt x="273" y="887" on="0"/>
        <pt x="292" y="887" on="1"/>
        <pt x="312" y="887" on="1"/>
        <pt x="333" y="887" on="0"/>
        <pt x="330" y="867" on="1"/>
        <pt x="321" y="813" on="1"/>
        <pt x="320" y="793" on="0"/>
      </contour>
      <contour>
        <pt x="472" y="793" on="1"/>
        <pt x="451" y="793" on="1"/>
        <pt x="432" y="793" on="0"/>
        <pt x="433" y="812" on="1"/>
        <pt x="442" y="867" on="1"/>
        <pt x="445" y="887" on="0"/>
        <pt x="464" y="887" on="1"/>
        <pt x="484" y="887" on="1"/>
        <pt x="504" y="887" on="0"/>
        <pt x="501" y="867" on="1"/>
        <pt x="493" y="813" on="1"/>
        <pt x="492" y="793" on="0"/>
      </contour>
      <contour>
        <pt x="547" y="635" on="1"/>
        <pt x="269" y="635" on="1"/>
        <pt x="198" y="635" on="0"/>
        <pt x="189" y="561" on="1"/>
        <pt x="165" y="391" on="1"/>
        <pt x="474" y="391" on="1"/>
        <pt x="467" y="340" on="1"/>
        <pt x="158" y="340" on="1"/>
        <pt x="129" y="126" on="1"/>
        <pt x="118" y="55" on="0"/>
        <pt x="189" y="55" on="1"/>
        <pt x="465" y="55" on="1"/>
        <pt x="465" y="5" on="1"/>
        <pt x="373" y="-1" on="0"/>
        <pt x="180" y="-1" on="1"/>
        <pt x="116" y="-1" on="0"/>
        <pt x="54" y="67" on="0"/>
        <pt x="62" y="125" on="1"/>
        <pt x="126" y="579" on="1"/>
        <pt x="133" y="631" on="0"/>
        <pt x="203" y="691" on="0"/>
        <pt x="260" y="691" on="1"/>
        <pt x="463" y="691" on="0"/>
        <pt x="556" y="685" on="1"/>
      </contour>
    </TTGlyph>
    <TTGlyph name="Edotaccent" xMin="62" yMin="-1" xMax="556" yMax="887">
      <contour>
        <pt x="386" y="786" on="1"/>
        <pt x="366" y="786" on="1"/>
        <pt x="343" y="786" on="0"/>
        <pt x="346" y="809" on="1"/>
        <pt x="354" y="866" on="1"/>
        <pt x="357" y="887" on="0"/>
        <pt x="376" y="887" on="1"/>
        <pt x="397" y="887" on="1"/>
        <pt x="420" y="887" on="0"/>
        <pt x="417" y="864" on="1"/>
        <pt x="409" y="807" on="1"/>
        <pt x="406" y="786" on="0"/>
      </contour>
      <contour>
        <pt x="547" y="635" on="1"/>
        <pt x="269" y="635" on="1"/>
        <pt x="198" y="635" on="0"/>
        <pt x="189" y="561" on="1"/>
        <pt x="165" y="391" on="1"/>
        <pt x="474" y="391" on="1"/>
        <pt x="467" y="340" on="1"/>
        <pt x="158" y="340" on="1"/>
        <pt x="129" y="126" on="1"/>
        <pt x="118" y="55" on="0"/>
        <pt x="189" y="55" on="1"/>
        <pt x="465" y="55" on="1"/>
        <pt x="465" y="5" on="1"/>
        <pt x="373" y="-1" on="0"/>
        <pt x="180" y="-1" on="1"/>
        <pt x="116" y="-1" on="0"/>
        <pt x="54" y="67" on="0"/>
        <pt x="62" y="125" on="1"/>
        <pt x="126" y="579" on="1"/>
        <pt x="133" y="631" on="0"/>
        <pt x="203" y="691" on="0"/>
        <pt x="260" y="691" on="1"/>
        <pt x="463" y="691" on="0"/>
        <pt x="556" y="685" on="1"/>
      </contour>
    </TTGlyph>
    <TTGlyph name="Egrave" xMin="62" yMin="-1" xMax="556" yMax="929">
      <contour>
        <pt x="393" y="753" on="1"/>
        <pt x="226" y="884" on="1"/>
        <pt x="263" y="929" on="1"/>
        <pt x="418" y="782" on="1"/>
      </contour>
      <contour>
        <pt x="547" y="635" on="1"/>
        <pt x="269" y="635" on="1"/>
        <pt x="198" y="635" on="0"/>
        <pt x="189" y="561" on="1"/>
        <pt x="165" y="391" on="1"/>
        <pt x="474" y="391" on="1"/>
        <pt x="467" y="340" on="1"/>
        <pt x="158" y="340" on="1"/>
        <pt x="129" y="126" on="1"/>
        <pt x="118" y="55" on="0"/>
        <pt x="189" y="55" on="1"/>
        <pt x="465" y="55" on="1"/>
        <pt x="465" y="5" on="1"/>
        <pt x="373" y="-1" on="0"/>
        <pt x="180" y="-1" on="1"/>
        <pt x="116" y="-1" on="0"/>
        <pt x="54" y="67" on="0"/>
        <pt x="62" y="125" on="1"/>
        <pt x="126" y="579" on="1"/>
        <pt x="133" y="631" on="0"/>
        <pt x="203" y="691" on="0"/>
        <pt x="260" y="691" on="1"/>
        <pt x="463" y="691" on="0"/>
        <pt x="556" y="685" on="1"/>
      </contour>
    </TTGlyph>
    <TTGlyph name="Emacron" xMin="62" yMin="-1" xMax="556" yMax="863">
      <contour>
        <pt x="514" y="814" on="1"/>
        <pt x="242" y="814" on="1"/>
        <pt x="249" y="863" on="1"/>
        <pt x="521" y="863" on="1"/>
      </contour>
      <contour>
        <pt x="547" y="635" on="1"/>
        <pt x="269" y="635" on="1"/>
        <pt x="198" y="635" on="0"/>
        <pt x="189" y="561" on="1"/>
        <pt x="165" y="391" on="1"/>
        <pt x="474" y="391" on="1"/>
        <pt x="467" y="340" on="1"/>
        <pt x="158" y="340" on="1"/>
        <pt x="129" y="126" on="1"/>
        <pt x="118" y="55" on="0"/>
        <pt x="189" y="55" on="1"/>
        <pt x="465" y="55" on="1"/>
        <pt x="465" y="5" on="1"/>
        <pt x="373" y="-1" on="0"/>
        <pt x="180" y="-1" on="1"/>
        <pt x="116" y="-1" on="0"/>
        <pt x="54" y="67" on="0"/>
        <pt x="62" y="125" on="1"/>
        <pt x="126" y="579" on="1"/>
        <pt x="133" y="631" on="0"/>
        <pt x="203" y="691" on="0"/>
        <pt x="260" y="691" on="1"/>
        <pt x="463" y="691" on="0"/>
        <pt x="556" y="685" on="1"/>
      </contour>
    </TTGlyph>
    <TTGlyph name="Eng" xMin="51" yMin="-218" xMax="662" yMax="690">
      <contour>
        <pt x="662" y="690" on="1"/>
        <pt x="552" y="-88" on="1"/>
        <pt x="543" y="-152" on="0"/>
        <pt x="468" y="-219" on="0"/>
        <pt x="408" y="-218" on="1"/>
        <pt x="362" y="-218" on="0"/>
        <pt x="327" y="-208" on="1"/>
        <pt x="338" y="-167" on="1"/>
        <pt x="390" y="-167" on="1"/>
        <pt x="479" y="-167" on="0"/>
        <pt x="491" y="-81" on="1"/>
        <pt x="503" y="0" on="1"/>
        <pt x="474" y="0" on="1"/>
        <pt x="462" y="0" on="0"/>
        <pt x="452" y="21" on="1"/>
        <pt x="248" y="538" on="1"/>
        <pt x="231" y="578" on="0"/>
        <pt x="221" y="621" on="1"/>
        <pt x="202" y="621" on="1"/>
        <pt x="200" y="591" on="0"/>
        <pt x="192" y="538" on="1"/>
        <pt x="117" y="0" on="1"/>
        <pt x="51" y="0" on="1"/>
        <pt x="144" y="664" on="1"/>
        <pt x="148" y="690" on="0"/>
        <pt x="174" y="690" on="1"/>
        <pt x="231" y="690" on="1"/>
        <pt x="252" y="690" on="0"/>
        <pt x="261" y="667" on="1"/>
        <pt x="458" y="164" on="1"/>
        <pt x="481" y="101" on="0"/>
        <pt x="491" y="71" on="1"/>
        <pt x="512" y="71" on="1"/>
        <pt x="515" y="114" on="0"/>
        <pt x="523" y="167" on="1"/>
        <pt x="596" y="690" on="1"/>
      </contour>
    </TTGlyph>
    <TTGlyph name="Eogonek" xMin="62" yMin="-196" xMax="556" yMax="691">
      <contour>
        <pt x="547" y="635" on="1"/>
        <pt x="269" y="635" on="1"/>
        <pt x="198" y="635" on="0"/>
        <pt x="189" y="561" on="1"/>
        <pt x="165" y="391" on="1"/>
        <pt x="474" y="391" on="1"/>
        <pt x="467" y="340" on="1"/>
        <pt x="158" y="340" on="1"/>
        <pt x="129" y="126" on="1"/>
        <pt x="118" y="55" on="0"/>
        <pt x="189" y="55" on="1"/>
        <pt x="465" y="55" on="1"/>
        <pt x="465" y="5" on="1"/>
        <pt x="404" y="-53" on="0"/>
        <pt x="371" y="-116" on="1"/>
        <pt x="350" y="-155" on="0"/>
        <pt x="391" y="-179" on="0"/>
        <pt x="444" y="-161" on="1"/>
        <pt x="452" y="-189" on="1"/>
        <pt x="361" y="-222" on="0"/>
        <pt x="294" y="-169" on="0"/>
        <pt x="323" y="-112" on="1"/>
        <pt x="352" y="-54" on="0"/>
        <pt x="427" y="3" on="1"/>
        <pt x="346" y="-1" on="0"/>
        <pt x="180" y="-1" on="1"/>
        <pt x="116" y="-1" on="0"/>
        <pt x="54" y="67" on="0"/>
        <pt x="62" y="125" on="1"/>
        <pt x="126" y="579" on="1"/>
        <pt x="133" y="631" on="0"/>
        <pt x="203" y="691" on="0"/>
        <pt x="260" y="691" on="1"/>
        <pt x="463" y="691" on="0"/>
        <pt x="556" y="685" on="1"/>
      </contour>
    </TTGlyph>
    <TTGlyph name="Eth" xMin="28" yMin="-9" xMax="602" yMax="699">
      <contour>
        <pt x="106" y="388" on="1"/>
        <pt x="148" y="690" on="1"/>
        <pt x="270" y="699" on="0"/>
        <pt x="375" y="699" on="1"/>
        <pt x="527" y="699" on="0"/>
        <pt x="630" y="540" on="0"/>
        <pt x="602" y="342" on="1"/>
        <pt x="587" y="234" on="0"/>
        <pt x="540" y="99" on="0"/>
        <pt x="460" y="20" on="0"/>
        <pt x="359" y="-9" on="0"/>
        <pt x="281" y="-9" on="1"/>
        <pt x="179" y="-9" on="0"/>
        <pt x="51" y="0" on="1"/>
        <pt x="100" y="349" on="1"/>
        <pt x="28" y="349" on="1"/>
        <pt x="33" y="388" on="1"/>
      </contour>
      <contour>
        <pt x="166" y="349" on="1"/>
        <pt x="124" y="51" on="1"/>
        <pt x="224" y="49" on="0"/>
        <pt x="280" y="49" on="1"/>
        <pt x="363" y="49" on="0"/>
        <pt x="458" y="99" on="0"/>
        <pt x="517" y="226" on="0"/>
        <pt x="534" y="348" on="1"/>
        <pt x="559" y="520" on="0"/>
        <pt x="491" y="642" on="0"/>
        <pt x="374" y="642" on="1"/>
        <pt x="363" y="642" on="0"/>
        <pt x="207" y="639" on="1"/>
        <pt x="171" y="388" on="1"/>
        <pt x="335" y="388" on="1"/>
        <pt x="329" y="349" on="1"/>
      </contour>
    </TTGlyph>
    <TTGlyph name="Euro" xMin="52" yMin="-12" xMax="628" yMax="702">
      <contour>
        <pt x="628" y="683" on="1"/>
        <pt x="616" y="633" on="1"/>
        <pt x="550" y="645" on="0"/>
        <pt x="472" y="643" on="1"/>
        <pt x="376" y="641" on="0"/>
        <pt x="265" y="550" on="0"/>
        <pt x="237" y="442" on="1"/>
        <pt x="505" y="442" on="1"/>
        <pt x="491" y="400" on="1"/>
        <pt x="227" y="400" on="1"/>
        <pt x="227" y="397" on="0"/>
        <pt x="219" y="353" on="0"/>
        <pt x="217" y="341" on="1"/>
        <pt x="213" y="308" on="1"/>
        <pt x="452" y="308" on="1"/>
        <pt x="438" y="266" on="1"/>
        <pt x="210" y="266" on="1"/>
        <pt x="204" y="149" on="0"/>
        <pt x="284" y="49" on="0"/>
        <pt x="379" y="47" on="1"/>
        <pt x="469" y="45" on="0"/>
        <pt x="542" y="59" on="1"/>
        <pt x="547" y="9" on="1"/>
        <pt x="475" y="-12" on="0"/>
        <pt x="381" y="-12" on="1"/>
        <pt x="247" y="-12" on="0"/>
        <pt x="135" y="124" on="0"/>
        <pt x="142" y="266" on="1"/>
        <pt x="52" y="266" on="1"/>
        <pt x="58" y="308" on="1"/>
        <pt x="146" y="308" on="1"/>
        <pt x="151" y="348" on="1"/>
        <pt x="154" y="371" on="0"/>
        <pt x="159" y="400" on="1"/>
        <pt x="72" y="400" on="1"/>
        <pt x="78" y="442" on="1"/>
        <pt x="168" y="442" on="1"/>
        <pt x="200" y="577" on="0"/>
        <pt x="343" y="702" on="0"/>
        <pt x="474" y="702" on="1"/>
        <pt x="561" y="702" on="0"/>
      </contour>
    </TTGlyph>
    <TTGlyph name="F" xMin="49" yMin="0" xMax="552" yMax="691">
      <contour>
        <pt x="542" y="635" on="1"/>
        <pt x="277" y="635" on="1"/>
        <pt x="239" y="635" on="0"/>
        <pt x="198" y="600" on="0"/>
        <pt x="193" y="561" on="1"/>
        <pt x="168" y="383" on="1"/>
        <pt x="468" y="383" on="1"/>
        <pt x="461" y="332" on="1"/>
        <pt x="161" y="332" on="1"/>
        <pt x="114" y="0" on="1"/>
        <pt x="49" y="0" on="1"/>
        <pt x="129" y="576" on="1"/>
        <pt x="137" y="631" on="0"/>
        <pt x="208" y="691" on="0"/>
        <pt x="264" y="691" on="1"/>
        <pt x="461" y="691" on="0"/>
        <pt x="552" y="685" on="1"/>
      </contour>
    </TTGlyph>
    <TTGlyph name="G" xMin="73" yMin="-12" xMax="590" yMax="702">
      <contour>
        <pt x="590" y="683" on="1"/>
        <pt x="578" y="634" on="1"/>
        <pt x="489" y="644" on="0"/>
        <pt x="400" y="644" on="1"/>
        <pt x="274" y="644" on="0"/>
        <pt x="165" y="520" on="0"/>
        <pt x="141" y="342" on="1"/>
        <pt x="122" y="178" on="0"/>
        <pt x="177" y="46" on="0"/>
        <pt x="266" y="46" on="1"/>
        <pt x="320" y="46" on="0"/>
        <pt x="412" y="101" on="0"/>
        <pt x="469" y="156" on="1"/>
        <pt x="503" y="400" on="1"/>
        <pt x="567" y="400" on="1"/>
        <pt x="510" y="0" on="1"/>
        <pt x="463" y="0" on="1"/>
        <pt x="468" y="100" on="1"/>
        <pt x="369" y="-12" on="0"/>
        <pt x="246" y="-12" on="1"/>
        <pt x="133" y="-12" on="0"/>
        <pt x="51" y="159" on="0"/>
        <pt x="73" y="348" on="1"/>
        <pt x="91" y="486" on="0"/>
        <pt x="172" y="642" on="0"/>
        <pt x="295" y="702" on="0"/>
        <pt x="393" y="702" on="1"/>
        <pt x="507" y="702" on="0"/>
      </contour>
    </TTGlyph>
    <TTGlyph name="Gbreve" xMin="73" yMin="-12" xMax="590" yMax="882">
      <contour>
        <pt x="522" y="882" on="1"/>
        <pt x="556" y="873" on="1"/>
        <pt x="550" y="816" on="0"/>
        <pt x="465" y="749" on="0"/>
        <pt x="398" y="749" on="1"/>
        <pt x="328" y="749" on="0"/>
        <pt x="255" y="819" on="0"/>
        <pt x="266" y="876" on="1"/>
        <pt x="301" y="879" on="1"/>
        <pt x="296" y="840" on="0"/>
        <pt x="348" y="798" on="0"/>
        <pt x="398" y="798" on="1"/>
        <pt x="451" y="798" on="0"/>
        <pt x="518" y="843" on="0"/>
      </contour>
      <contour>
        <pt x="590" y="683" on="1"/>
        <pt x="578" y="634" on="1"/>
        <pt x="489" y="644" on="0"/>
        <pt x="400" y="644" on="1"/>
        <pt x="274" y="644" on="0"/>
        <pt x="165" y="520" on="0"/>
        <pt x="141" y="342" on="1"/>
        <pt x="122" y="178" on="0"/>
        <pt x="177" y="46" on="0"/>
        <pt x="266" y="46" on="1"/>
        <pt x="320" y="46" on="0"/>
        <pt x="412" y="101" on="0"/>
        <pt x="469" y="156" on="1"/>
        <pt x="503" y="400" on="1"/>
        <pt x="567" y="400" on="1"/>
        <pt x="510" y="0" on="1"/>
        <pt x="463" y="0" on="1"/>
        <pt x="468" y="100" on="1"/>
        <pt x="369" y="-12" on="0"/>
        <pt x="246" y="-12" on="1"/>
        <pt x="133" y="-12" on="0"/>
        <pt x="51" y="159" on="0"/>
        <pt x="73" y="348" on="1"/>
        <pt x="91" y="486" on="0"/>
        <pt x="172" y="642" on="0"/>
        <pt x="295" y="702" on="0"/>
        <pt x="393" y="702" on="1"/>
        <pt x="507" y="702" on="0"/>
      </contour>
    </TTGlyph>
    <TTGlyph name="Gcommaaccent" xMin="73" yMin="-265" xMax="590" yMax="702">
      <contour>
        <pt x="590" y="683" on="1"/>
        <pt x="578" y="634" on="1"/>
        <pt x="489" y="644" on="0"/>
        <pt x="400" y="644" on="1"/>
        <pt x="274" y="644" on="0"/>
        <pt x="165" y="520" on="0"/>
        <pt x="141" y="342" on="1"/>
        <pt x="122" y="178" on="0"/>
        <pt x="177" y="46" on="0"/>
        <pt x="266" y="46" on="1"/>
        <pt x="320" y="46" on="0"/>
        <pt x="412" y="101" on="0"/>
        <pt x="469" y="156" on="1"/>
        <pt x="503" y="400" on="1"/>
        <pt x="567" y="400" on="1"/>
        <pt x="510" y="0" on="1"/>
        <pt x="463" y="0" on="1"/>
        <pt x="468" y="100" on="1"/>
        <pt x="369" y="-12" on="0"/>
        <pt x="246" y="-12" on="1"/>
        <pt x="133" y="-12" on="0"/>
        <pt x="51" y="159" on="0"/>
        <pt x="73" y="348" on="1"/>
        <pt x="91" y="486" on="0"/>
        <pt x="172" y="642" on="0"/>
        <pt x="295" y="702" on="0"/>
        <pt x="393" y="702" on="1"/>
        <pt x="507" y="702" on="0"/>
      </contour>
      <contour>
        <pt x="273" y="-60" on="1"/>
        <pt x="292" y="-60" on="1"/>
        <pt x="314" y="-60" on="0"/>
        <pt x="310" y="-82" on="1"/>
        <pt x="302" y="-139" on="1"/>
        <pt x="295" y="-194" on="0"/>
        <pt x="257" y="-265" on="1"/>
        <pt x="228" y="-255" on="1"/>
        <pt x="247" y="-194" on="0"/>
        <pt x="255" y="-153" on="1"/>
        <pt x="235" y="-153" on="0"/>
        <pt x="238" y="-134" on="1"/>
        <pt x="246" y="-81" on="1"/>
        <pt x="248" y="-69" on="0"/>
        <pt x="259" y="-60" on="0"/>
      </contour>
    </TTGlyph>
    <TTGlyph name="Gdotaccent" xMin="73" yMin="-12" xMax="590" yMax="865">
      <contour>
        <pt x="409" y="764" on="1"/>
        <pt x="388" y="764" on="1"/>
        <pt x="366" y="764" on="0"/>
        <pt x="369" y="787" on="1"/>
        <pt x="376" y="844" on="1"/>
        <pt x="379" y="865" on="0"/>
        <pt x="398" y="865" on="1"/>
        <pt x="420" y="865" on="1"/>
        <pt x="442" y="865" on="0"/>
        <pt x="439" y="842" on="1"/>
        <pt x="431" y="785" on="1"/>
        <pt x="428" y="764" on="0"/>
      </contour>
      <contour>
        <pt x="590" y="683" on="1"/>
        <pt x="578" y="634" on="1"/>
        <pt x="489" y="644" on="0"/>
        <pt x="400" y="644" on="1"/>
        <pt x="274" y="644" on="0"/>
        <pt x="165" y="520" on="0"/>
        <pt x="141" y="342" on="1"/>
        <pt x="122" y="178" on="0"/>
        <pt x="177" y="46" on="0"/>
        <pt x="266" y="46" on="1"/>
        <pt x="320" y="46" on="0"/>
        <pt x="412" y="101" on="0"/>
        <pt x="469" y="156" on="1"/>
        <pt x="503" y="400" on="1"/>
        <pt x="567" y="400" on="1"/>
        <pt x="510" y="0" on="1"/>
        <pt x="463" y="0" on="1"/>
        <pt x="468" y="100" on="1"/>
        <pt x="369" y="-12" on="0"/>
        <pt x="246" y="-12" on="1"/>
        <pt x="133" y="-12" on="0"/>
        <pt x="51" y="159" on="0"/>
        <pt x="73" y="348" on="1"/>
        <pt x="91" y="486" on="0"/>
        <pt x="172" y="642" on="0"/>
        <pt x="295" y="702" on="0"/>
        <pt x="393" y="702" on="1"/>
        <pt x="507" y="702" on="0"/>
      </contour>
    </TTGlyph>
    <TTGlyph name="H" xMin="51" yMin="0" xMax="627" yMax="690">
      <contour>
        <pt x="627" y="690" on="1"/>
        <pt x="530" y="0" on="1"/>
        <pt x="464" y="0" on="1"/>
        <pt x="512" y="340" on="1"/>
        <pt x="165" y="340" on="1"/>
        <pt x="117" y="0" on="1"/>
        <pt x="51" y="0" on="1"/>
        <pt x="148" y="690" on="1"/>
        <pt x="214" y="690" on="1"/>
        <pt x="173" y="397" on="1"/>
        <pt x="520" y="397" on="1"/>
        <pt x="561" y="690" on="1"/>
      </contour>
    </TTGlyph>
    <TTGlyph name="Hbar" xMin="51" yMin="0" xMax="684" yMax="690">
      <contour>
        <pt x="679" y="521" on="1"/>
        <pt x="603" y="521" on="1"/>
        <pt x="530" y="0" on="1"/>
        <pt x="464" y="0" on="1"/>
        <pt x="512" y="340" on="1"/>
        <pt x="165" y="340" on="1"/>
        <pt x="117" y="0" on="1"/>
        <pt x="51" y="0" on="1"/>
        <pt x="124" y="521" on="1"/>
        <pt x="53" y="521" on="1"/>
        <pt x="58" y="559" on="1"/>
        <pt x="130" y="559" on="1"/>
        <pt x="148" y="690" on="1"/>
        <pt x="214" y="690" on="1"/>
        <pt x="196" y="559" on="1"/>
        <pt x="543" y="559" on="1"/>
        <pt x="561" y="690" on="1"/>
        <pt x="627" y="690" on="1"/>
        <pt x="608" y="559" on="1"/>
        <pt x="684" y="559" on="1"/>
      </contour>
      <contour>
        <pt x="538" y="521" on="1"/>
        <pt x="190" y="521" on="1"/>
        <pt x="173" y="397" on="1"/>
        <pt x="520" y="397" on="1"/>
      </contour>
    </TTGlyph>
    <TTGlyph name="I" xMin="51" yMin="0" xMax="214" yMax="690">
      <contour>
        <pt x="117" y="0" on="1"/>
        <pt x="51" y="0" on="1"/>
        <pt x="148" y="690" on="1"/>
        <pt x="214" y="690" on="1"/>
      </contour>
    </TTGlyph>
    <TTGlyph name="IJ" xMin="51" yMin="-8" xMax="550" yMax="690">
      <contour>
        <pt x="117" y="0" on="1"/>
        <pt x="51" y="0" on="1"/>
        <pt x="148" y="690" on="1"/>
        <pt x="214" y="690" on="1"/>
      </contour>
      <contour>
        <pt x="550" y="690" on="1"/>
        <pt x="472" y="133" on="1"/>
        <pt x="452" y="-8" on="0"/>
        <pt x="326" y="-8" on="1"/>
        <pt x="281" y="-8" on="0"/>
        <pt x="244" y="3" on="1"/>
        <pt x="256" y="48" on="1"/>
        <pt x="307" y="48" on="1"/>
        <pt x="395" y="48" on="0"/>
        <pt x="407" y="134" on="1"/>
        <pt x="485" y="690" on="1"/>
      </contour>
    </TTGlyph>
    <TTGlyph name="Iacute" xMin="51" yMin="0" xMax="347" yMax="908">
      <contour>
        <pt x="347" y="859" on="1"/>
        <pt x="152" y="731" on="1"/>
        <pt x="130" y="761" on="1"/>
        <pt x="314" y="908" on="1"/>
      </contour>
      <contour>
        <pt x="117" y="0" on="1"/>
        <pt x="51" y="0" on="1"/>
        <pt x="148" y="690" on="1"/>
        <pt x="214" y="690" on="1"/>
      </contour>
    </TTGlyph>
    <TTGlyph name="Icircumflex" xMin="35" yMin="0" xMax="352" yMax="890">
      <contour>
        <pt x="352" y="763" on="1"/>
        <pt x="328" y="737" on="1"/>
        <pt x="210" y="839" on="1"/>
        <pt x="201" y="839" on="1"/>
        <pt x="54" y="738" on="1"/>
        <pt x="35" y="767" on="1"/>
        <pt x="184" y="890" on="1"/>
        <pt x="229" y="890" on="1"/>
      </contour>
      <contour>
        <pt x="117" y="0" on="1"/>
        <pt x="51" y="0" on="1"/>
        <pt x="148" y="690" on="1"/>
        <pt x="214" y="690" on="1"/>
      </contour>
    </TTGlyph>
    <TTGlyph name="Idieresis" xMin="51" yMin="0" xMax="319" yMax="865">
      <contour>
        <pt x="109" y="865" on="1"/>
        <pt x="129" y="865" on="1"/>
        <pt x="150" y="865" on="0"/>
        <pt x="147" y="845" on="1"/>
        <pt x="138" y="791" on="1"/>
        <pt x="137" y="771" on="0"/>
        <pt x="117" y="771" on="1"/>
        <pt x="96" y="771" on="1"/>
        <pt x="76" y="771" on="0"/>
        <pt x="79" y="790" on="1"/>
        <pt x="87" y="845" on="1"/>
        <pt x="90" y="865" on="0"/>
      </contour>
      <contour>
        <pt x="281" y="865" on="1"/>
        <pt x="301" y="865" on="1"/>
        <pt x="322" y="865" on="0"/>
        <pt x="319" y="845" on="1"/>
        <pt x="310" y="791" on="1"/>
        <pt x="309" y="771" on="0"/>
        <pt x="289" y="771" on="1"/>
        <pt x="268" y="771" on="1"/>
        <pt x="249" y="771" on="0"/>
        <pt x="250" y="790" on="1"/>
        <pt x="259" y="845" on="1"/>
        <pt x="262" y="865" on="0"/>
      </contour>
      <contour>
        <pt x="117" y="0" on="1"/>
        <pt x="51" y="0" on="1"/>
        <pt x="148" y="690" on="1"/>
        <pt x="214" y="690" on="1"/>
      </contour>
    </TTGlyph>
    <TTGlyph name="Idotaccent" xMin="51" yMin="0" xMax="234" yMax="865">
      <contour>
        <pt x="193" y="865" on="1"/>
        <pt x="215" y="865" on="1"/>
        <pt x="237" y="865" on="0"/>
        <pt x="234" y="842" on="1"/>
        <pt x="226" y="785" on="1"/>
        <pt x="223" y="764" on="0"/>
        <pt x="204" y="764" on="1"/>
        <pt x="183" y="764" on="1"/>
        <pt x="160" y="764" on="0"/>
        <pt x="163" y="787" on="1"/>
        <pt x="171" y="844" on="1"/>
        <pt x="174" y="865" on="0"/>
      </contour>
      <contour>
        <pt x="117" y="0" on="1"/>
        <pt x="51" y="0" on="1"/>
        <pt x="148" y="690" on="1"/>
        <pt x="214" y="690" on="1"/>
      </contour>
    </TTGlyph>
    <TTGlyph name="Igrave" xMin="43" yMin="0" xMax="235" yMax="907">
      <contour>
        <pt x="235" y="760" on="1"/>
        <pt x="210" y="731" on="1"/>
        <pt x="43" y="861" on="1"/>
        <pt x="80" y="907" on="1"/>
      </contour>
      <contour>
        <pt x="117" y="0" on="1"/>
        <pt x="51" y="0" on="1"/>
        <pt x="148" y="690" on="1"/>
        <pt x="214" y="690" on="1"/>
      </contour>
    </TTGlyph>
    <TTGlyph name="Imacron" xMin="51" yMin="0" xMax="338" yMax="841">
      <contour>
        <pt x="331" y="792" on="1"/>
        <pt x="59" y="792" on="1"/>
        <pt x="66" y="841" on="1"/>
        <pt x="338" y="841" on="1"/>
      </contour>
      <contour>
        <pt x="117" y="0" on="1"/>
        <pt x="51" y="0" on="1"/>
        <pt x="148" y="690" on="1"/>
        <pt x="214" y="690" on="1"/>
      </contour>
    </TTGlyph>
    <TTGlyph name="Iogonek" xMin="-31" yMin="-201" xMax="214" yMax="690">
      <contour>
        <pt x="117" y="0" on="1"/>
        <pt x="111" y="0" on="1"/>
        <pt x="51" y="-57" on="0"/>
        <pt x="16" y="-121" on="1"/>
        <pt x="-5" y="-160" on="0"/>
        <pt x="37" y="-184" on="0"/>
        <pt x="90" y="-166" on="1"/>
        <pt x="98" y="-194" on="1"/>
        <pt x="7" y="-227" on="0"/>
        <pt x="-60" y="-174" on="0"/>
        <pt x="-31" y="-117" on="1"/>
        <pt x="-2" y="-59" on="0"/>
        <pt x="75" y="0" on="1"/>
        <pt x="51" y="0" on="1"/>
        <pt x="148" y="690" on="1"/>
        <pt x="214" y="690" on="1"/>
      </contour>
    </TTGlyph>
    <TTGlyph name="J" xMin="-7" yMin="-8" xMax="300" yMax="690">
      <contour>
        <pt x="300" y="690" on="1"/>
        <pt x="222" y="133" on="1"/>
        <pt x="202" y="-8" on="0"/>
        <pt x="76" y="-8" on="1"/>
        <pt x="31" y="-8" on="0"/>
        <pt x="-7" y="3" on="1"/>
        <pt x="6" y="48" on="1"/>
        <pt x="57" y="48" on="1"/>
        <pt x="143" y="48" on="0"/>
        <pt x="157" y="134" on="1"/>
        <pt x="234" y="690" on="1"/>
      </contour>
    </TTGlyph>
    <TTGlyph name="K" xMin="51" yMin="0" xMax="600" yMax="690">
      <contour>
        <pt x="309" y="361" on="1"/>
        <pt x="308" y="357" on="1"/>
        <pt x="323" y="340" on="0"/>
        <pt x="336" y="315" on="1"/>
        <pt x="518" y="0" on="1"/>
        <pt x="444" y="0" on="1"/>
        <pt x="253" y="333" on="1"/>
        <pt x="158" y="333" on="1"/>
        <pt x="156" y="280" on="0"/>
        <pt x="152" y="254" on="1"/>
        <pt x="116" y="0" on="1"/>
        <pt x="51" y="0" on="1"/>
        <pt x="148" y="690" on="1"/>
        <pt x="213" y="690" on="1"/>
        <pt x="182" y="466" on="1"/>
        <pt x="173" y="412" on="0"/>
        <pt x="166" y="387" on="1"/>
        <pt x="259" y="387" on="1"/>
        <pt x="520" y="690" on="1"/>
        <pt x="600" y="690" on="1"/>
        <pt x="351" y="400" on="1"/>
        <pt x="331" y="376" on="0"/>
      </contour>
    </TTGlyph>
    <TTGlyph name="Kcommaaccent" xMin="51" yMin="-265" xMax="600" yMax="690">
      <contour>
        <pt x="309" y="361" on="1"/>
        <pt x="308" y="357" on="1"/>
        <pt x="323" y="340" on="0"/>
        <pt x="336" y="315" on="1"/>
        <pt x="518" y="0" on="1"/>
        <pt x="444" y="0" on="1"/>
        <pt x="253" y="333" on="1"/>
        <pt x="158" y="333" on="1"/>
        <pt x="156" y="280" on="0"/>
        <pt x="152" y="254" on="1"/>
        <pt x="116" y="0" on="1"/>
        <pt x="51" y="0" on="1"/>
        <pt x="148" y="690" on="1"/>
        <pt x="213" y="690" on="1"/>
        <pt x="182" y="466" on="1"/>
        <pt x="173" y="412" on="0"/>
        <pt x="166" y="387" on="1"/>
        <pt x="259" y="387" on="1"/>
        <pt x="520" y="690" on="1"/>
        <pt x="600" y="690" on="1"/>
        <pt x="351" y="400" on="1"/>
        <pt x="331" y="376" on="0"/>
      </contour>
      <contour>
        <pt x="261" y="-60" on="1"/>
        <pt x="280" y="-60" on="1"/>
        <pt x="302" y="-60" on="0"/>
        <pt x="298" y="-82" on="1"/>
        <pt x="290" y="-139" on="1"/>
        <pt x="283" y="-194" on="0"/>
        <pt x="245" y="-265" on="1"/>
        <pt x="216" y="-255" on="1"/>
        <pt x="235" y="-194" on="0"/>
        <pt x="243" y="-153" on="1"/>
        <pt x="224" y="-153" on="0"/>
        <pt x="226" y="-134" on="1"/>
        <pt x="234" y="-81" on="1"/>
        <pt x="236" y="-69" on="0"/>
        <pt x="247" y="-60" on="0"/>
      </contour>
    </TTGlyph>
    <TTGlyph name="L" xMin="67" yMin="-1" xMax="451" yMax="690">
      <contour>
        <pt x="211" y="690" on="1"/>
        <pt x="132" y="126" on="1"/>
        <pt x="127" y="93" on="0"/>
        <pt x="158" y="55" on="0"/>
        <pt x="192" y="55" on="1"/>
        <pt x="451" y="55" on="1"/>
        <pt x="449" y="5" on="1"/>
        <pt x="360" y="-1" on="0"/>
        <pt x="179" y="-1" on="1"/>
        <pt x="120" y="-1" on="0"/>
        <pt x="59" y="67" on="0"/>
        <pt x="67" y="128" on="1"/>
        <pt x="145" y="690" on="1"/>
      </contour>
    </TTGlyph>
    <TTGlyph name="Lacute" xMin="67" yMin="-1" xMax="451" yMax="908">
      <contour>
        <pt x="345" y="859" on="1"/>
        <pt x="151" y="731" on="1"/>
        <pt x="129" y="761" on="1"/>
        <pt x="313" y="908" on="1"/>
      </contour>
      <contour>
        <pt x="211" y="690" on="1"/>
        <pt x="132" y="126" on="1"/>
        <pt x="127" y="93" on="0"/>
        <pt x="158" y="55" on="0"/>
        <pt x="192" y="55" on="1"/>
        <pt x="451" y="55" on="1"/>
        <pt x="449" y="5" on="1"/>
        <pt x="360" y="-1" on="0"/>
        <pt x="179" y="-1" on="1"/>
        <pt x="120" y="-1" on="0"/>
        <pt x="59" y="67" on="0"/>
        <pt x="67" y="128" on="1"/>
        <pt x="145" y="690" on="1"/>
      </contour>
    </TTGlyph>
    <TTGlyph name="Lcaron" xMin="67" yMin="-1" xMax="451" yMax="690">
      <contour>
        <pt x="211" y="690" on="1"/>
        <pt x="132" y="126" on="1"/>
        <pt x="127" y="93" on="0"/>
        <pt x="158" y="55" on="0"/>
        <pt x="192" y="55" on="1"/>
        <pt x="451" y="55" on="1"/>
        <pt x="449" y="5" on="1"/>
        <pt x="360" y="-1" on="0"/>
        <pt x="179" y="-1" on="1"/>
        <pt x="120" y="-1" on="0"/>
        <pt x="59" y="67" on="0"/>
        <pt x="67" y="128" on="1"/>
        <pt x="145" y="690" on="1"/>
      </contour>
      <contour>
        <pt x="333" y="689" on="1"/>
        <pt x="352" y="689" on="1"/>
        <pt x="374" y="689" on="0"/>
        <pt x="371" y="667" on="1"/>
        <pt x="362" y="610" on="1"/>
        <pt x="355" y="555" on="0"/>
        <pt x="318" y="485" on="1"/>
        <pt x="288" y="494" on="1"/>
        <pt x="308" y="558" on="0"/>
        <pt x="315" y="597" on="1"/>
        <pt x="306" y="596" on="0"/>
        <pt x="297" y="607" on="0"/>
        <pt x="298" y="616" on="1"/>
        <pt x="306" y="669" on="1"/>
        <pt x="308" y="681" on="0"/>
        <pt x="319" y="689" on="0"/>
      </contour>
    </TTGlyph>
    <TTGlyph name="Lcommaaccent" xMin="67" yMin="-270" xMax="451" yMax="690">
      <contour>
        <pt x="211" y="690" on="1"/>
        <pt x="132" y="126" on="1"/>
        <pt x="127" y="93" on="0"/>
        <pt x="158" y="55" on="0"/>
        <pt x="192" y="55" on="1"/>
        <pt x="451" y="55" on="1"/>
        <pt x="449" y="5" on="1"/>
        <pt x="360" y="-1" on="0"/>
        <pt x="179" y="-1" on="1"/>
        <pt x="120" y="-1" on="0"/>
        <pt x="59" y="67" on="0"/>
        <pt x="67" y="128" on="1"/>
        <pt x="145" y="690" on="1"/>
      </contour>
      <contour>
        <pt x="249" y="-66" on="1"/>
        <pt x="268" y="-66" on="1"/>
        <pt x="290" y="-66" on="0"/>
        <pt x="286" y="-88" on="1"/>
        <pt x="278" y="-145" on="1"/>
        <pt x="271" y="-202" on="0"/>
        <pt x="233" y="-270" on="1"/>
        <pt x="204" y="-260" on="1"/>
        <pt x="223" y="-199" on="0"/>
        <pt x="231" y="-158" on="1"/>
        <pt x="222" y="-159" on="0"/>
        <pt x="213" y="-148" on="0"/>
        <pt x="214" y="-139" on="1"/>
        <pt x="222" y="-86" on="1"/>
        <pt x="224" y="-74" on="0"/>
        <pt x="235" y="-66" on="0"/>
      </contour>
    </TTGlyph>
    <TTGlyph name="Ldot" xMin="67" yMin="-1" xMax="451" yMax="690">
      <contour>
        <pt x="211" y="690" on="1"/>
        <pt x="132" y="126" on="1"/>
        <pt x="127" y="93" on="0"/>
        <pt x="158" y="55" on="0"/>
        <pt x="192" y="55" on="1"/>
        <pt x="451" y="55" on="1"/>
        <pt x="449" y="5" on="1"/>
        <pt x="360" y="-1" on="0"/>
        <pt x="179" y="-1" on="1"/>
        <pt x="120" y="-1" on="0"/>
        <pt x="59" y="67" on="0"/>
        <pt x="67" y="128" on="1"/>
        <pt x="145" y="690" on="1"/>
      </contour>
      <contour>
        <pt x="386" y="336" on="1"/>
        <pt x="364" y="336" on="1"/>
        <pt x="342" y="336" on="0"/>
        <pt x="345" y="358" on="1"/>
        <pt x="353" y="416" on="1"/>
        <pt x="356" y="436" on="0"/>
        <pt x="376" y="436" on="1"/>
        <pt x="396" y="436" on="1"/>
        <pt x="419" y="436" on="0"/>
        <pt x="416" y="414" on="1"/>
        <pt x="408" y="356" on="1"/>
        <pt x="405" y="336" on="0"/>
      </contour>
    </TTGlyph>
    <TTGlyph name="Lslash" xMin="25" yMin="-1" xMax="450" yMax="690">
      <contour>
        <pt x="450" y="55" on="1"/>
        <pt x="448" y="5" on="1"/>
        <pt x="359" y="-1" on="0"/>
        <pt x="178" y="-1" on="1"/>
        <pt x="120" y="-1" on="0"/>
        <pt x="58" y="68" on="0"/>
        <pt x="67" y="128" on="1"/>
        <pt x="96" y="340" on="1"/>
        <pt x="25" y="312" on="1"/>
        <pt x="29" y="353" on="1"/>
        <pt x="102" y="383" on="1"/>
        <pt x="145" y="690" on="1"/>
        <pt x="211" y="690" on="1"/>
        <pt x="172" y="410" on="1"/>
        <pt x="303" y="463" on="1"/>
        <pt x="299" y="422" on="1"/>
        <pt x="166" y="368" on="1"/>
        <pt x="132" y="126" on="1"/>
        <pt x="127" y="93" on="0"/>
        <pt x="158" y="55" on="0"/>
        <pt x="192" y="55" on="1"/>
      </contour>
    </TTGlyph>
    <TTGlyph name="M" xMin="37" yMin="0" xMax="813" yMax="690">
      <contour>
        <pt x="708" y="690" on="1"/>
        <pt x="786" y="690" on="1"/>
        <pt x="800" y="690" on="0"/>
        <pt x="814" y="673" on="0"/>
        <pt x="813" y="659" on="1"/>
        <pt x="749" y="0" on="1"/>
        <pt x="684" y="0" on="1"/>
        <pt x="747" y="635" on="1"/>
        <pt x="726" y="635" on="1"/>
        <pt x="470" y="93" on="1"/>
        <pt x="462" y="72" on="0"/>
        <pt x="440" y="72" on="1"/>
        <pt x="374" y="72" on="1"/>
        <pt x="349" y="72" on="0"/>
        <pt x="346" y="96" on="1"/>
        <pt x="239" y="635" on="1"/>
        <pt x="217" y="635" on="1"/>
        <pt x="103" y="0" on="1"/>
        <pt x="37" y="0" on="1"/>
        <pt x="158" y="662" on="1"/>
        <pt x="164" y="690" on="0"/>
        <pt x="189" y="690" on="1"/>
        <pt x="266" y="690" on="1"/>
        <pt x="289" y="690" on="0"/>
        <pt x="292" y="666" on="1"/>
        <pt x="383" y="215" on="1"/>
        <pt x="386" y="199" on="0"/>
        <pt x="396" y="136" on="0"/>
        <pt x="399" y="121" on="1"/>
        <pt x="421" y="121" on="1"/>
        <pt x="444" y="176" on="0"/>
        <pt x="463" y="216" on="1"/>
        <pt x="677" y="668" on="1"/>
        <pt x="686" y="690" on="0"/>
      </contour>
    </TTGlyph>
    <TTGlyph name="N" xMin="51" yMin="0" xMax="662" yMax="690">
      <contour>
        <pt x="662" y="690" on="1"/>
        <pt x="568" y="26" on="1"/>
        <pt x="565" y="0" on="0"/>
        <pt x="539" y="0" on="1"/>
        <pt x="473" y="0" on="1"/>
        <pt x="453" y="0" on="0"/>
        <pt x="444" y="23" on="1"/>
        <pt x="248" y="548" on="1"/>
        <pt x="227" y="605" on="0"/>
        <pt x="221" y="629" on="1"/>
        <pt x="201" y="629" on="1"/>
        <pt x="198" y="586" on="0"/>
        <pt x="192" y="543" on="1"/>
        <pt x="117" y="0" on="1"/>
        <pt x="51" y="0" on="1"/>
        <pt x="144" y="664" on="1"/>
        <pt x="148" y="690" on="0"/>
        <pt x="174" y="690" on="1"/>
        <pt x="237" y="690" on="1"/>
        <pt x="259" y="690" on="0"/>
        <pt x="267" y="667" on="1"/>
        <pt x="458" y="155" on="1"/>
        <pt x="479" y="96" on="0"/>
        <pt x="490" y="61" on="1"/>
        <pt x="512" y="61" on="1"/>
        <pt x="515" y="93" on="0"/>
        <pt x="523" y="157" on="1"/>
        <pt x="597" y="690" on="1"/>
      </contour>
    </TTGlyph>
    <TTGlyph name="Nacute" xMin="51" yMin="0" xMax="662" yMax="908">
      <contour>
        <pt x="578" y="859" on="1"/>
        <pt x="384" y="731" on="1"/>
        <pt x="362" y="761" on="1"/>
        <pt x="546" y="908" on="1"/>
      </contour>
      <contour>
        <pt x="662" y="690" on="1"/>
        <pt x="568" y="26" on="1"/>
        <pt x="565" y="0" on="0"/>
        <pt x="539" y="0" on="1"/>
        <pt x="473" y="0" on="1"/>
        <pt x="453" y="0" on="0"/>
        <pt x="444" y="23" on="1"/>
        <pt x="248" y="548" on="1"/>
        <pt x="227" y="605" on="0"/>
        <pt x="221" y="629" on="1"/>
        <pt x="201" y="629" on="1"/>
        <pt x="198" y="586" on="0"/>
        <pt x="192" y="543" on="1"/>
        <pt x="117" y="0" on="1"/>
        <pt x="51" y="0" on="1"/>
        <pt x="144" y="664" on="1"/>
        <pt x="148" y="690" on="0"/>
        <pt x="174" y="690" on="1"/>
        <pt x="237" y="690" on="1"/>
        <pt x="259" y="690" on="0"/>
        <pt x="267" y="667" on="1"/>
        <pt x="458" y="155" on="1"/>
        <pt x="479" y="96" on="0"/>
        <pt x="490" y="61" on="1"/>
        <pt x="512" y="61" on="1"/>
        <pt x="515" y="93" on="0"/>
        <pt x="523" y="157" on="1"/>
        <pt x="597" y="690" on="1"/>
      </contour>
    </TTGlyph>
    <TTGlyph name="Ncaron" xMin="51" yMin="0" xMax="662" yMax="898">
      <contour>
        <pt x="597" y="870" on="1"/>
        <pt x="445" y="746" on="1"/>
        <pt x="399" y="746" on="1"/>
        <pt x="281" y="873" on="1"/>
        <pt x="307" y="898" on="1"/>
        <pt x="421" y="797" on="1"/>
        <pt x="429" y="797" on="1"/>
        <pt x="576" y="898" on="1"/>
      </contour>
      <contour>
        <pt x="662" y="690" on="1"/>
        <pt x="568" y="26" on="1"/>
        <pt x="565" y="0" on="0"/>
        <pt x="539" y="0" on="1"/>
        <pt x="473" y="0" on="1"/>
        <pt x="453" y="0" on="0"/>
        <pt x="444" y="23" on="1"/>
        <pt x="248" y="548" on="1"/>
        <pt x="227" y="605" on="0"/>
        <pt x="221" y="629" on="1"/>
        <pt x="201" y="629" on="1"/>
        <pt x="198" y="586" on="0"/>
        <pt x="192" y="543" on="1"/>
        <pt x="117" y="0" on="1"/>
        <pt x="51" y="0" on="1"/>
        <pt x="144" y="664" on="1"/>
        <pt x="148" y="690" on="0"/>
        <pt x="174" y="690" on="1"/>
        <pt x="237" y="690" on="1"/>
        <pt x="259" y="690" on="0"/>
        <pt x="267" y="667" on="1"/>
        <pt x="458" y="155" on="1"/>
        <pt x="479" y="96" on="0"/>
        <pt x="490" y="61" on="1"/>
        <pt x="512" y="61" on="1"/>
        <pt x="515" y="93" on="0"/>
        <pt x="523" y="157" on="1"/>
        <pt x="597" y="690" on="1"/>
      </contour>
    </TTGlyph>
    <TTGlyph name="Ncommaaccent" xMin="51" yMin="-265" xMax="662" yMax="690">
      <contour>
        <pt x="662" y="690" on="1"/>
        <pt x="568" y="26" on="1"/>
        <pt x="565" y="0" on="0"/>
        <pt x="539" y="0" on="1"/>
        <pt x="473" y="0" on="1"/>
        <pt x="453" y="0" on="0"/>
        <pt x="444" y="23" on="1"/>
        <pt x="248" y="548" on="1"/>
        <pt x="227" y="605" on="0"/>
        <pt x="221" y="629" on="1"/>
        <pt x="201" y="629" on="1"/>
        <pt x="198" y="586" on="0"/>
        <pt x="192" y="543" on="1"/>
        <pt x="117" y="0" on="1"/>
        <pt x="51" y="0" on="1"/>
        <pt x="144" y="664" on="1"/>
        <pt x="148" y="690" on="0"/>
        <pt x="174" y="690" on="1"/>
        <pt x="237" y="690" on="1"/>
        <pt x="259" y="690" on="0"/>
        <pt x="267" y="667" on="1"/>
        <pt x="458" y="155" on="1"/>
        <pt x="479" y="96" on="0"/>
        <pt x="490" y="61" on="1"/>
        <pt x="512" y="61" on="1"/>
        <pt x="515" y="93" on="0"/>
        <pt x="523" y="157" on="1"/>
        <pt x="597" y="690" on="1"/>
      </contour>
      <contour>
        <pt x="305" y="-60" on="1"/>
        <pt x="324" y="-60" on="1"/>
        <pt x="347" y="-60" on="0"/>
        <pt x="343" y="-82" on="1"/>
        <pt x="335" y="-139" on="1"/>
        <pt x="327" y="-193" on="0"/>
        <pt x="290" y="-265" on="1"/>
        <pt x="260" y="-255" on="1"/>
        <pt x="279" y="-198" on="0"/>
        <pt x="287" y="-153" on="1"/>
        <pt x="268" y="-153" on="0"/>
        <pt x="270" y="-134" on="1"/>
        <pt x="279" y="-81" on="1"/>
        <pt x="281" y="-69" on="0"/>
        <pt x="292" y="-60" on="0"/>
      </contour>
    </TTGlyph>
    <TTGlyph name="Ntilde" xMin="51" yMin="0" xMax="662" yMax="875">
      <contour>
        <pt x="302" y="768" on="1"/>
        <pt x="270" y="771" on="1"/>
        <pt x="274" y="824" on="0"/>
        <pt x="323" y="878" on="0"/>
        <pt x="359" y="875" on="1"/>
        <pt x="391" y="872" on="0"/>
        <pt x="470" y="818" on="0"/>
        <pt x="496" y="815" on="1"/>
        <pt x="525" y="812" on="0"/>
        <pt x="555" y="840" on="0"/>
        <pt x="560" y="871" on="1"/>
        <pt x="591" y="868" on="1"/>
        <pt x="589" y="817" on="0"/>
        <pt x="541" y="765" on="0"/>
        <pt x="504" y="768" on="1"/>
        <pt x="466" y="771" on="0"/>
        <pt x="386" y="826" on="0"/>
        <pt x="366" y="828" on="1"/>
        <pt x="311" y="833" on="0"/>
      </contour>
      <contour>
        <pt x="662" y="690" on="1"/>
        <pt x="568" y="26" on="1"/>
        <pt x="565" y="0" on="0"/>
        <pt x="539" y="0" on="1"/>
        <pt x="473" y="0" on="1"/>
        <pt x="453" y="0" on="0"/>
        <pt x="444" y="23" on="1"/>
        <pt x="248" y="548" on="1"/>
        <pt x="227" y="605" on="0"/>
        <pt x="221" y="629" on="1"/>
        <pt x="201" y="629" on="1"/>
        <pt x="198" y="586" on="0"/>
        <pt x="192" y="543" on="1"/>
        <pt x="117" y="0" on="1"/>
        <pt x="51" y="0" on="1"/>
        <pt x="144" y="664" on="1"/>
        <pt x="148" y="690" on="0"/>
        <pt x="174" y="690" on="1"/>
        <pt x="237" y="690" on="1"/>
        <pt x="259" y="690" on="0"/>
        <pt x="267" y="667" on="1"/>
        <pt x="458" y="155" on="1"/>
        <pt x="479" y="96" on="0"/>
        <pt x="490" y="61" on="1"/>
        <pt x="512" y="61" on="1"/>
        <pt x="515" y="93" on="0"/>
        <pt x="523" y="157" on="1"/>
        <pt x="597" y="690" on="1"/>
      </contour>
    </TTGlyph>
    <TTGlyph name="O" xMin="74" yMin="-12" xMax="605" yMax="702">
      <contour>
        <pt x="386" y="702" on="1"/>
        <pt x="531" y="702" on="0"/>
        <pt x="633" y="539" on="0"/>
        <pt x="605" y="342" on="1"/>
        <pt x="578" y="144" on="0"/>
        <pt x="440" y="-12" on="0"/>
        <pt x="150" y="-12" on="0"/>
        <pt x="47" y="150" on="0"/>
        <pt x="74" y="348" on="1"/>
        <pt x="101" y="545" on="0"/>
        <pt x="239" y="702" on="0"/>
      </contour>
      <contour>
        <pt x="384" y="644" on="1"/>
        <pt x="270" y="644" on="0"/>
        <pt x="166" y="514" on="0"/>
        <pt x="141" y="342" on="1"/>
        <pt x="118" y="175" on="0"/>
        <pt x="185" y="46" on="0"/>
        <pt x="296" y="46" on="1"/>
        <pt x="408" y="46" on="0"/>
        <pt x="513" y="177" on="0"/>
        <pt x="537" y="348" on="1"/>
        <pt x="562" y="517" on="0"/>
        <pt x="496" y="644" on="0"/>
      </contour>
    </TTGlyph>
    <TTGlyph name="OE" xMin="74" yMin="-12" xMax="910" yMax="702">
      <contour>
        <pt x="901" y="635" on="1"/>
        <pt x="632" y="635" on="1"/>
        <pt x="599" y="635" on="0"/>
        <pt x="557" y="597" on="0"/>
        <pt x="553" y="561" on="1"/>
        <pt x="529" y="392" on="1"/>
        <pt x="827" y="392" on="1"/>
        <pt x="820" y="340" on="1"/>
        <pt x="522" y="340" on="1"/>
        <pt x="493" y="126" on="1"/>
        <pt x="482" y="55" on="0"/>
        <pt x="553" y="55" on="1"/>
        <pt x="820" y="55" on="1"/>
        <pt x="818" y="5" on="1"/>
        <pt x="729" y="-1" on="0"/>
        <pt x="544" y="-1" on="1"/>
        <pt x="492" y="-1" on="0"/>
        <pt x="461" y="22" on="1"/>
        <pt x="383" y="-12" on="0"/>
        <pt x="298" y="-12" on="1"/>
        <pt x="144" y="-12" on="0"/>
        <pt x="46" y="145" on="0"/>
        <pt x="74" y="348" on="1"/>
        <pt x="103" y="548" on="0"/>
        <pt x="240" y="702" on="0"/>
        <pt x="391" y="702" on="1"/>
        <pt x="477" y="702" on="0"/>
        <pt x="547" y="671" on="1"/>
        <pt x="579" y="691" on="0"/>
        <pt x="624" y="691" on="1"/>
        <pt x="819" y="691" on="0"/>
        <pt x="910" y="685" on="1"/>
      </contour>
      <contour>
        <pt x="426" y="125" on="1"/>
        <pt x="489" y="579" on="1"/>
        <pt x="494" y="606" on="0"/>
        <pt x="505" y="627" on="1"/>
        <pt x="451" y="644" on="0"/>
        <pt x="390" y="644" on="1"/>
        <pt x="273" y="644" on="0"/>
        <pt x="166" y="514" on="0"/>
        <pt x="142" y="342" on="1"/>
        <pt x="118" y="175" on="0"/>
        <pt x="185" y="46" on="0"/>
        <pt x="300" y="46" on="1"/>
        <pt x="368" y="46" on="0"/>
        <pt x="430" y="67" on="1"/>
        <pt x="421" y="91" on="0"/>
      </contour>
    </TTGlyph>
    <TTGlyph name="Oacute" xMin="74" yMin="-12" xMax="605" yMax="908">
      <contour>
        <pt x="556" y="859" on="1"/>
        <pt x="362" y="731" on="1"/>
        <pt x="340" y="761" on="1"/>
        <pt x="524" y="908" on="1"/>
      </contour>
      <contour>
        <pt x="386" y="702" on="1"/>
        <pt x="531" y="702" on="0"/>
        <pt x="633" y="539" on="0"/>
        <pt x="605" y="342" on="1"/>
        <pt x="578" y="144" on="0"/>
        <pt x="440" y="-12" on="0"/>
        <pt x="150" y="-12" on="0"/>
        <pt x="47" y="150" on="0"/>
        <pt x="74" y="348" on="1"/>
        <pt x="101" y="545" on="0"/>
        <pt x="239" y="702" on="0"/>
      </contour>
      <contour>
        <pt x="384" y="644" on="1"/>
        <pt x="270" y="644" on="0"/>
        <pt x="166" y="514" on="0"/>
        <pt x="141" y="342" on="1"/>
        <pt x="118" y="175" on="0"/>
        <pt x="185" y="46" on="0"/>
        <pt x="296" y="46" on="1"/>
        <pt x="408" y="46" on="0"/>
        <pt x="513" y="177" on="0"/>
        <pt x="537" y="348" on="1"/>
        <pt x="562" y="517" on="0"/>
        <pt x="496" y="644" on="0"/>
      </contour>
    </TTGlyph>
    <TTGlyph name="Ocircumflex" xMin="74" yMin="-12" xMax="605" yMax="890">
      <contour>
        <pt x="562" y="763" on="1"/>
        <pt x="537" y="737" on="1"/>
        <pt x="420" y="839" on="1"/>
        <pt x="411" y="839" on="1"/>
        <pt x="264" y="738" on="1"/>
        <pt x="244" y="767" on="1"/>
        <pt x="394" y="890" on="1"/>
        <pt x="439" y="890" on="1"/>
      </contour>
      <contour>
        <pt x="386" y="702" on="1"/>
        <pt x="531" y="702" on="0"/>
        <pt x="633" y="539" on="0"/>
        <pt x="605" y="342" on="1"/>
        <pt x="578" y="144" on="0"/>
        <pt x="440" y="-12" on="0"/>
        <pt x="150" y="-12" on="0"/>
        <pt x="47" y="150" on="0"/>
        <pt x="74" y="348" on="1"/>
        <pt x="101" y="545" on="0"/>
        <pt x="239" y="702" on="0"/>
      </contour>
      <contour>
        <pt x="384" y="644" on="1"/>
        <pt x="270" y="644" on="0"/>
        <pt x="166" y="514" on="0"/>
        <pt x="141" y="342" on="1"/>
        <pt x="118" y="175" on="0"/>
        <pt x="185" y="46" on="0"/>
        <pt x="296" y="46" on="1"/>
        <pt x="408" y="46" on="0"/>
        <pt x="513" y="177" on="0"/>
        <pt x="537" y="348" on="1"/>
        <pt x="562" y="517" on="0"/>
        <pt x="496" y="644" on="0"/>
      </contour>
    </TTGlyph>
    <TTGlyph name="Odieresis" xMin="74" yMin="-12" xMax="605" yMax="865">
      <contour>
        <pt x="319" y="865" on="1"/>
        <pt x="339" y="865" on="1"/>
        <pt x="359" y="865" on="0"/>
        <pt x="356" y="845" on="1"/>
        <pt x="348" y="791" on="1"/>
        <pt x="347" y="771" on="0"/>
        <pt x="327" y="771" on="1"/>
        <pt x="306" y="771" on="1"/>
        <pt x="287" y="771" on="0"/>
        <pt x="288" y="790" on="1"/>
        <pt x="297" y="845" on="1"/>
        <pt x="300" y="865" on="0"/>
      </contour>
      <contour>
        <pt x="491" y="865" on="1"/>
        <pt x="511" y="865" on="1"/>
        <pt x="531" y="865" on="0"/>
        <pt x="528" y="845" on="1"/>
        <pt x="520" y="791" on="1"/>
        <pt x="517" y="771" on="0"/>
        <pt x="498" y="771" on="1"/>
        <pt x="478" y="771" on="1"/>
        <pt x="459" y="771" on="0"/>
        <pt x="460" y="790" on="1"/>
        <pt x="469" y="845" on="1"/>
        <pt x="472" y="865" on="0"/>
      </contour>
      <contour>
        <pt x="386" y="702" on="1"/>
        <pt x="531" y="702" on="0"/>
        <pt x="633" y="539" on="0"/>
        <pt x="605" y="342" on="1"/>
        <pt x="578" y="144" on="0"/>
        <pt x="440" y="-12" on="0"/>
        <pt x="150" y="-12" on="0"/>
        <pt x="47" y="150" on="0"/>
        <pt x="74" y="348" on="1"/>
        <pt x="101" y="545" on="0"/>
        <pt x="239" y="702" on="0"/>
      </contour>
      <contour>
        <pt x="384" y="644" on="1"/>
        <pt x="270" y="644" on="0"/>
        <pt x="166" y="514" on="0"/>
        <pt x="141" y="342" on="1"/>
        <pt x="118" y="175" on="0"/>
        <pt x="185" y="46" on="0"/>
        <pt x="296" y="46" on="1"/>
        <pt x="408" y="46" on="0"/>
        <pt x="513" y="177" on="0"/>
        <pt x="537" y="348" on="1"/>
        <pt x="562" y="517" on="0"/>
        <pt x="496" y="644" on="0"/>
      </contour>
    </TTGlyph>
    <TTGlyph name="Ograve" xMin="74" yMin="-12" xMax="605" yMax="907">
      <contour>
        <pt x="445" y="760" on="1"/>
        <pt x="420" y="731" on="1"/>
        <pt x="253" y="861" on="1"/>
        <pt x="290" y="907" on="1"/>
      </contour>
      <contour>
        <pt x="386" y="702" on="1"/>
        <pt x="531" y="702" on="0"/>
        <pt x="633" y="539" on="0"/>
        <pt x="605" y="342" on="1"/>
        <pt x="578" y="144" on="0"/>
        <pt x="440" y="-12" on="0"/>
        <pt x="150" y="-12" on="0"/>
        <pt x="47" y="150" on="0"/>
        <pt x="74" y="348" on="1"/>
        <pt x="101" y="545" on="0"/>
        <pt x="239" y="702" on="0"/>
      </contour>
      <contour>
        <pt x="384" y="644" on="1"/>
        <pt x="270" y="644" on="0"/>
        <pt x="166" y="514" on="0"/>
        <pt x="141" y="342" on="1"/>
        <pt x="118" y="175" on="0"/>
        <pt x="185" y="46" on="0"/>
        <pt x="296" y="46" on="1"/>
        <pt x="408" y="46" on="0"/>
        <pt x="513" y="177" on="0"/>
        <pt x="537" y="348" on="1"/>
        <pt x="562" y="517" on="0"/>
        <pt x="496" y="644" on="0"/>
      </contour>
    </TTGlyph>
    <TTGlyph name="Ohungarumlaut" xMin="74" yMin="-12" xMax="613" yMax="913">
      <contour>
        <pt x="613" y="883" on="1"/>
        <pt x="463" y="726" on="1"/>
        <pt x="435" y="749" on="1"/>
        <pt x="572" y="913" on="1"/>
      </contour>
      <contour>
        <pt x="457" y="883" on="1"/>
        <pt x="308" y="726" on="1"/>
        <pt x="279" y="749" on="1"/>
        <pt x="416" y="913" on="1"/>
      </contour>
      <contour>
        <pt x="386" y="702" on="1"/>
        <pt x="531" y="702" on="0"/>
        <pt x="633" y="539" on="0"/>
        <pt x="605" y="342" on="1"/>
        <pt x="578" y="144" on="0"/>
        <pt x="440" y="-12" on="0"/>
        <pt x="150" y="-12" on="0"/>
        <pt x="47" y="150" on="0"/>
        <pt x="74" y="348" on="1"/>
        <pt x="101" y="545" on="0"/>
        <pt x="239" y="702" on="0"/>
      </contour>
      <contour>
        <pt x="384" y="644" on="1"/>
        <pt x="270" y="644" on="0"/>
        <pt x="166" y="514" on="0"/>
        <pt x="141" y="342" on="1"/>
        <pt x="118" y="175" on="0"/>
        <pt x="185" y="46" on="0"/>
        <pt x="296" y="46" on="1"/>
        <pt x="408" y="46" on="0"/>
        <pt x="513" y="177" on="0"/>
        <pt x="537" y="348" on="1"/>
        <pt x="562" y="517" on="0"/>
        <pt x="496" y="644" on="0"/>
      </contour>
    </TTGlyph>
    <TTGlyph name="Omacron" xMin="74" yMin="-12" xMax="605" yMax="841">
      <contour>
        <pt x="541" y="792" on="1"/>
        <pt x="269" y="792" on="1"/>
        <pt x="275" y="841" on="1"/>
        <pt x="548" y="841" on="1"/>
      </contour>
      <contour>
        <pt x="386" y="702" on="1"/>
        <pt x="531" y="702" on="0"/>
        <pt x="633" y="539" on="0"/>
        <pt x="605" y="342" on="1"/>
        <pt x="578" y="144" on="0"/>
        <pt x="440" y="-12" on="0"/>
        <pt x="150" y="-12" on="0"/>
        <pt x="47" y="150" on="0"/>
        <pt x="74" y="348" on="1"/>
        <pt x="101" y="545" on="0"/>
        <pt x="239" y="702" on="0"/>
      </contour>
      <contour>
        <pt x="384" y="644" on="1"/>
        <pt x="270" y="644" on="0"/>
        <pt x="166" y="514" on="0"/>
        <pt x="141" y="342" on="1"/>
        <pt x="118" y="175" on="0"/>
        <pt x="185" y="46" on="0"/>
        <pt x="296" y="46" on="1"/>
        <pt x="408" y="46" on="0"/>
        <pt x="513" y="177" on="0"/>
        <pt x="537" y="348" on="1"/>
        <pt x="562" y="517" on="0"/>
        <pt x="496" y="644" on="0"/>
      </contour>
    </TTGlyph>
    <TTGlyph name="Omega" xMin="12" yMin="0" xMax="646" yMax="702">
      <contour>
        <pt x="19" y="58" on="1"/>
        <pt x="133" y="58" on="1"/>
        <pt x="167" y="58" on="0"/>
        <pt x="198" y="54" on="1"/>
        <pt x="129" y="113" on="0"/>
        <pt x="76" y="262" on="0"/>
        <pt x="92" y="370" on="1"/>
        <pt x="115" y="538" on="0"/>
        <pt x="268" y="702" on="0"/>
        <pt x="413" y="702" on="1"/>
        <pt x="556" y="702" on="0"/>
        <pt x="669" y="533" on="0"/>
        <pt x="646" y="363" on="1"/>
        <pt x="630" y="250" on="0"/>
        <pt x="541" y="110" on="0"/>
        <pt x="452" y="54" on="1"/>
        <pt x="481" y="58" on="0"/>
        <pt x="514" y="58" on="1"/>
        <pt x="631" y="58" on="1"/>
        <pt x="623" y="0" on="1"/>
        <pt x="381" y="0" on="1"/>
        <pt x="387" y="56" on="1"/>
        <pt x="476" y="112" on="0"/>
        <pt x="562" y="251" on="0"/>
        <pt x="577" y="362" on="1"/>
        <pt x="598" y="511" on="0"/>
        <pt x="521" y="644" on="0"/>
        <pt x="411" y="644" on="1"/>
        <pt x="297" y="644" on="0"/>
        <pt x="180" y="507" on="0"/>
        <pt x="158" y="354" on="1"/>
        <pt x="142" y="241" on="0"/>
        <pt x="189" y="114" on="0"/>
        <pt x="260" y="55" on="1"/>
        <pt x="254" y="0" on="1"/>
        <pt x="12" y="0" on="1"/>
      </contour>
    </TTGlyph>
    <TTGlyph name="Oslash" xMin="74" yMin="-57" xMax="605" yMax="749">
      <contour>
        <pt x="596" y="730" on="1"/>
        <pt x="551" y="657" on="1"/>
        <pt x="639" y="582" on="0"/>
        <pt x="605" y="342" on="1"/>
        <pt x="578" y="144" on="0"/>
        <pt x="440" y="-12" on="0"/>
        <pt x="295" y="-12" on="1"/>
        <pt x="209" y="-12" on="0"/>
        <pt x="160" y="13" on="1"/>
        <pt x="117" y="-57" on="1"/>
        <pt x="84" y="-37" on="1"/>
        <pt x="128" y="34" on="1"/>
        <pt x="41" y="110" on="0"/>
        <pt x="74" y="348" on="1"/>
        <pt x="101" y="545" on="0"/>
        <pt x="239" y="702" on="0"/>
        <pt x="386" y="702" on="1"/>
        <pt x="470" y="702" on="0"/>
        <pt x="519" y="678" on="1"/>
        <pt x="562" y="749" on="1"/>
      </contour>
      <contour>
        <pt x="163" y="93" on="1"/>
        <pt x="486" y="624" on="1"/>
        <pt x="450" y="644" on="0"/>
        <pt x="384" y="644" on="1"/>
        <pt x="270" y="644" on="0"/>
        <pt x="166" y="514" on="0"/>
        <pt x="141" y="342" on="1"/>
        <pt x="116" y="154" on="0"/>
      </contour>
      <contour>
        <pt x="516" y="599" on="1"/>
        <pt x="193" y="67" on="1"/>
        <pt x="230" y="46" on="0"/>
        <pt x="296" y="46" on="1"/>
        <pt x="408" y="46" on="0"/>
        <pt x="513" y="177" on="0"/>
        <pt x="537" y="348" on="1"/>
        <pt x="565" y="540" on="0"/>
      </contour>
    </TTGlyph>
    <TTGlyph name="Otilde" xMin="74" yMin="-12" xMax="605" yMax="875">
      <contour>
        <pt x="280" y="768" on="1"/>
        <pt x="248" y="771" on="1"/>
        <pt x="252" y="824" on="0"/>
        <pt x="301" y="878" on="0"/>
        <pt x="337" y="875" on="1"/>
        <pt x="369" y="872" on="0"/>
        <pt x="448" y="818" on="0"/>
        <pt x="474" y="815" on="1"/>
        <pt x="529" y="809" on="0"/>
        <pt x="537" y="871" on="1"/>
        <pt x="569" y="868" on="1"/>
        <pt x="566" y="817" on="0"/>
        <pt x="519" y="765" on="0"/>
        <pt x="482" y="768" on="1"/>
        <pt x="444" y="771" on="0"/>
        <pt x="364" y="826" on="0"/>
        <pt x="344" y="828" on="1"/>
        <pt x="289" y="833" on="0"/>
      </contour>
      <contour>
        <pt x="386" y="702" on="1"/>
        <pt x="531" y="702" on="0"/>
        <pt x="633" y="539" on="0"/>
        <pt x="605" y="342" on="1"/>
        <pt x="578" y="144" on="0"/>
        <pt x="440" y="-12" on="0"/>
        <pt x="150" y="-12" on="0"/>
        <pt x="47" y="150" on="0"/>
        <pt x="74" y="348" on="1"/>
        <pt x="101" y="545" on="0"/>
        <pt x="239" y="702" on="0"/>
      </contour>
      <contour>
        <pt x="384" y="644" on="1"/>
        <pt x="270" y="644" on="0"/>
        <pt x="166" y="514" on="0"/>
        <pt x="141" y="342" on="1"/>
        <pt x="118" y="175" on="0"/>
        <pt x="185" y="46" on="0"/>
        <pt x="296" y="46" on="1"/>
        <pt x="408" y="46" on="0"/>
        <pt x="513" y="177" on="0"/>
        <pt x="537" y="348" on="1"/>
        <pt x="562" y="517" on="0"/>
        <pt x="496" y="644" on="0"/>
      </contour>
    </TTGlyph>
    <TTGlyph name="P" xMin="51" yMin="0" xMax="564" yMax="698">
      <contour>
        <pt x="51" y="0" on="1"/>
        <pt x="148" y="690" on="1"/>
        <pt x="233" y="698" on="0"/>
        <pt x="377" y="698" on="1"/>
        <pt x="495" y="698" on="0"/>
        <pt x="581" y="604" on="0"/>
        <pt x="564" y="485" on="1"/>
        <pt x="546" y="361" on="0"/>
        <pt x="444" y="276" on="0"/>
        <pt x="326" y="276" on="1"/>
        <pt x="241" y="276" on="0"/>
        <pt x="157" y="284" on="1"/>
        <pt x="117" y="0" on="1"/>
      </contour>
      <contour>
        <pt x="163" y="333" on="1"/>
        <pt x="325" y="333" on="1"/>
        <pt x="412" y="334" on="0"/>
        <pt x="486" y="398" on="0"/>
        <pt x="499" y="490" on="1"/>
        <pt x="511" y="579" on="0"/>
        <pt x="458" y="642" on="0"/>
        <pt x="376" y="642" on="1"/>
        <pt x="287" y="642" on="0"/>
        <pt x="207" y="640" on="1"/>
      </contour>
    </TTGlyph>
    <TTGlyph name="Q" xMin="74" yMin="-192" xMax="605" yMax="702">
      <contour>
        <pt x="386" y="702" on="1"/>
        <pt x="531" y="702" on="0"/>
        <pt x="633" y="539" on="0"/>
        <pt x="605" y="342" on="1"/>
        <pt x="578" y="144" on="0"/>
        <pt x="440" y="-12" on="0"/>
        <pt x="150" y="-12" on="0"/>
        <pt x="47" y="150" on="0"/>
        <pt x="74" y="348" on="1"/>
        <pt x="101" y="545" on="0"/>
        <pt x="239" y="702" on="0"/>
      </contour>
      <contour>
        <pt x="384" y="644" on="1"/>
        <pt x="270" y="644" on="0"/>
        <pt x="166" y="514" on="0"/>
        <pt x="141" y="342" on="1"/>
        <pt x="118" y="175" on="0"/>
        <pt x="185" y="46" on="0"/>
        <pt x="296" y="46" on="1"/>
        <pt x="408" y="46" on="0"/>
        <pt x="513" y="177" on="0"/>
        <pt x="537" y="348" on="1"/>
        <pt x="562" y="517" on="0"/>
        <pt x="496" y="644" on="0"/>
      </contour>
      <contour>
        <pt x="218" y="-85" on="1"/>
        <pt x="244" y="-46" on="1"/>
        <pt x="340" y="-103" on="0"/>
        <pt x="485" y="-127" on="1"/>
        <pt x="460" y="-192" on="1"/>
        <pt x="319" y="-163" on="0"/>
      </contour>
    </TTGlyph>
    <TTGlyph name="R" xMin="51" yMin="0" xMax="568" yMax="698">
      <contour>
        <pt x="51" y="0" on="1"/>
        <pt x="148" y="690" on="1"/>
        <pt x="233" y="698" on="0"/>
        <pt x="377" y="698" on="1"/>
        <pt x="491" y="698" on="0"/>
        <pt x="583" y="611" on="0"/>
        <pt x="568" y="498" on="1"/>
        <pt x="556" y="414" on="0"/>
        <pt x="484" y="331" on="0"/>
        <pt x="414" y="321" on="1"/>
        <pt x="413" y="316" on="1"/>
        <pt x="468" y="300" on="0"/>
        <pt x="483" y="218" on="1"/>
        <pt x="527" y="0" on="1"/>
        <pt x="460" y="0" on="1"/>
        <pt x="418" y="218" on="1"/>
        <pt x="410" y="260" on="0"/>
        <pt x="369" y="295" on="0"/>
        <pt x="332" y="296" on="1"/>
        <pt x="301" y="296" on="0"/>
        <pt x="225" y="297" on="0"/>
        <pt x="175" y="298" on="0"/>
        <pt x="158" y="298" on="1"/>
        <pt x="116" y="0" on="1"/>
      </contour>
      <contour>
        <pt x="165" y="353" on="1"/>
        <pt x="329" y="353" on="1"/>
        <pt x="414" y="354" on="0"/>
        <pt x="489" y="417" on="0"/>
        <pt x="501" y="501" on="1"/>
        <pt x="513" y="583" on="0"/>
        <pt x="459" y="642" on="0"/>
        <pt x="376" y="642" on="1"/>
        <pt x="286" y="642" on="0"/>
        <pt x="206" y="640" on="1"/>
      </contour>
    </TTGlyph>
    <TTGlyph name="Racute" xMin="51" yMin="0" xMax="568" yMax="908">
      <contour>
        <pt x="327" y="731" on="1"/>
        <pt x="305" y="761" on="1"/>
        <pt x="489" y="908" on="1"/>
        <pt x="522" y="859" on="1"/>
      </contour>
      <contour>
        <pt x="51" y="0" on="1"/>
        <pt x="148" y="690" on="1"/>
        <pt x="233" y="698" on="0"/>
        <pt x="377" y="698" on="1"/>
        <pt x="491" y="698" on="0"/>
        <pt x="583" y="611" on="0"/>
        <pt x="568" y="498" on="1"/>
        <pt x="556" y="414" on="0"/>
        <pt x="484" y="331" on="0"/>
        <pt x="414" y="321" on="1"/>
        <pt x="413" y="316" on="1"/>
        <pt x="468" y="300" on="0"/>
        <pt x="483" y="218" on="1"/>
        <pt x="527" y="0" on="1"/>
        <pt x="460" y="0" on="1"/>
        <pt x="418" y="218" on="1"/>
        <pt x="410" y="260" on="0"/>
        <pt x="369" y="295" on="0"/>
        <pt x="332" y="296" on="1"/>
        <pt x="301" y="296" on="0"/>
        <pt x="225" y="297" on="0"/>
        <pt x="175" y="298" on="0"/>
        <pt x="158" y="298" on="1"/>
        <pt x="116" y="0" on="1"/>
      </contour>
      <contour>
        <pt x="165" y="353" on="1"/>
        <pt x="329" y="353" on="1"/>
        <pt x="414" y="354" on="0"/>
        <pt x="489" y="417" on="0"/>
        <pt x="501" y="501" on="1"/>
        <pt x="513" y="583" on="0"/>
        <pt x="459" y="642" on="0"/>
        <pt x="376" y="642" on="1"/>
        <pt x="286" y="642" on="0"/>
        <pt x="206" y="640" on="1"/>
      </contour>
    </TTGlyph>
    <TTGlyph name="Rcaron" xMin="51" yMin="0" xMax="568" yMax="898">
      <contour>
        <pt x="342" y="746" on="1"/>
        <pt x="224" y="873" on="1"/>
        <pt x="250" y="898" on="1"/>
        <pt x="364" y="797" on="1"/>
        <pt x="372" y="797" on="1"/>
        <pt x="519" y="898" on="1"/>
        <pt x="540" y="870" on="1"/>
        <pt x="388" y="746" on="1"/>
      </contour>
      <contour>
        <pt x="51" y="0" on="1"/>
        <pt x="148" y="690" on="1"/>
        <pt x="233" y="698" on="0"/>
        <pt x="377" y="698" on="1"/>
        <pt x="491" y="698" on="0"/>
        <pt x="583" y="611" on="0"/>
        <pt x="568" y="498" on="1"/>
        <pt x="556" y="414" on="0"/>
        <pt x="484" y="331" on="0"/>
        <pt x="414" y="321" on="1"/>
        <pt x="413" y="316" on="1"/>
        <pt x="468" y="300" on="0"/>
        <pt x="483" y="218" on="1"/>
        <pt x="527" y="0" on="1"/>
        <pt x="460" y="0" on="1"/>
        <pt x="418" y="218" on="1"/>
        <pt x="410" y="260" on="0"/>
        <pt x="369" y="295" on="0"/>
        <pt x="332" y="296" on="1"/>
        <pt x="301" y="296" on="0"/>
        <pt x="225" y="297" on="0"/>
        <pt x="175" y="298" on="0"/>
        <pt x="158" y="298" on="1"/>
        <pt x="116" y="0" on="1"/>
      </contour>
      <contour>
        <pt x="165" y="353" on="1"/>
        <pt x="329" y="353" on="1"/>
        <pt x="414" y="354" on="0"/>
        <pt x="489" y="417" on="0"/>
        <pt x="501" y="501" on="1"/>
        <pt x="513" y="583" on="0"/>
        <pt x="459" y="642" on="0"/>
        <pt x="376" y="642" on="1"/>
        <pt x="286" y="642" on="0"/>
        <pt x="206" y="640" on="1"/>
      </contour>
    </TTGlyph>
    <TTGlyph name="Rcommaaccent" xMin="51" yMin="-265" xMax="568" yMax="698">
      <contour>
        <pt x="51" y="0" on="1"/>
        <pt x="148" y="690" on="1"/>
        <pt x="233" y="698" on="0"/>
        <pt x="377" y="698" on="1"/>
        <pt x="491" y="698" on="0"/>
        <pt x="583" y="611" on="0"/>
        <pt x="568" y="498" on="1"/>
        <pt x="556" y="414" on="0"/>
        <pt x="484" y="331" on="0"/>
        <pt x="414" y="321" on="1"/>
        <pt x="413" y="316" on="1"/>
        <pt x="468" y="300" on="0"/>
        <pt x="483" y="218" on="1"/>
        <pt x="527" y="0" on="1"/>
        <pt x="460" y="0" on="1"/>
        <pt x="418" y="218" on="1"/>
        <pt x="410" y="260" on="0"/>
        <pt x="369" y="295" on="0"/>
        <pt x="332" y="296" on="1"/>
        <pt x="301" y="296" on="0"/>
        <pt x="225" y="297" on="0"/>
        <pt x="175" y="298" on="0"/>
        <pt x="158" y="298" on="1"/>
        <pt x="116" y="0" on="1"/>
      </contour>
      <contour>
        <pt x="165" y="353" on="1"/>
        <pt x="329" y="353" on="1"/>
        <pt x="414" y="354" on="0"/>
        <pt x="489" y="417" on="0"/>
        <pt x="501" y="501" on="1"/>
        <pt x="513" y="583" on="0"/>
        <pt x="459" y="642" on="0"/>
        <pt x="376" y="642" on="1"/>
        <pt x="286" y="642" on="0"/>
        <pt x="206" y="640" on="1"/>
      </contour>
      <contour>
        <pt x="286" y="-60" on="1"/>
        <pt x="305" y="-60" on="1"/>
        <pt x="327" y="-60" on="0"/>
        <pt x="323" y="-82" on="1"/>
        <pt x="315" y="-139" on="1"/>
        <pt x="308" y="-194" on="0"/>
        <pt x="270" y="-265" on="1"/>
        <pt x="241" y="-255" on="1"/>
        <pt x="260" y="-194" on="0"/>
        <pt x="268" y="-153" on="1"/>
        <pt x="249" y="-153" on="0"/>
        <pt x="251" y="-134" on="1"/>
        <pt x="259" y="-81" on="1"/>
        <pt x="261" y="-69" on="0"/>
        <pt x="272" y="-60" on="0"/>
      </contour>
    </TTGlyph>
    <TTGlyph name="S" xMin="30" yMin="-11" xMax="528" yMax="701">
      <contour>
        <pt x="344" y="293" on="1"/>
        <pt x="202" y="348" on="1"/>
        <pt x="131" y="376" on="0"/>
        <pt x="81" y="462" on="0"/>
        <pt x="90" y="535" on="1"/>
        <pt x="98" y="591" on="0"/>
        <pt x="136" y="660" on="0"/>
        <pt x="203" y="692" on="0"/>
        <pt x="274" y="702" on="0"/>
        <pt x="330" y="701" on="1"/>
        <pt x="437" y="701" on="0"/>
        <pt x="528" y="684" on="1"/>
        <pt x="520" y="637" on="1"/>
        <pt x="409" y="643" on="0"/>
        <pt x="322" y="643" on="1"/>
        <pt x="293" y="643" on="0"/>
        <pt x="264" y="642" on="0"/>
        <pt x="221" y="635" on="0"/>
        <pt x="199" y="621" on="0"/>
        <pt x="174" y="596" on="0"/>
        <pt x="160" y="556" on="0"/>
        <pt x="156" y="528" on="1"/>
        <pt x="150" y="475" on="0"/>
        <pt x="181" y="425" on="0"/>
        <pt x="232" y="404" on="1"/>
        <pt x="372" y="350" on="1"/>
        <pt x="449" y="320" on="0"/>
        <pt x="497" y="237" on="0"/>
        <pt x="487" y="160" on="1"/>
        <pt x="479" y="104" on="0"/>
        <pt x="443" y="36" on="0"/>
        <pt x="375" y="0" on="0"/>
        <pt x="297" y="-11" on="0"/>
        <pt x="233" y="-11" on="1"/>
        <pt x="125" y="-11" on="0"/>
        <pt x="30" y="4" on="1"/>
        <pt x="39" y="53" on="1"/>
        <pt x="160" y="47" on="0"/>
        <pt x="238" y="47" on="1"/>
        <pt x="333" y="48" on="0"/>
        <pt x="410" y="92" on="0"/>
        <pt x="421" y="167" on="1"/>
        <pt x="428" y="223" on="0"/>
        <pt x="397" y="271" on="0"/>
      </contour>
    </TTGlyph>
    <TTGlyph name="Sacute" xMin="30" yMin="-11" xMax="528" yMax="908">
      <contour>
        <pt x="495" y="859" on="1"/>
        <pt x="301" y="731" on="1"/>
        <pt x="279" y="761" on="1"/>
        <pt x="463" y="908" on="1"/>
      </contour>
      <contour>
        <pt x="344" y="293" on="1"/>
        <pt x="202" y="348" on="1"/>
        <pt x="131" y="376" on="0"/>
        <pt x="81" y="462" on="0"/>
        <pt x="90" y="535" on="1"/>
        <pt x="98" y="591" on="0"/>
        <pt x="136" y="660" on="0"/>
        <pt x="203" y="692" on="0"/>
        <pt x="274" y="702" on="0"/>
        <pt x="330" y="701" on="1"/>
        <pt x="437" y="701" on="0"/>
        <pt x="528" y="684" on="1"/>
        <pt x="520" y="637" on="1"/>
        <pt x="409" y="643" on="0"/>
        <pt x="322" y="643" on="1"/>
        <pt x="293" y="643" on="0"/>
        <pt x="264" y="642" on="0"/>
        <pt x="221" y="635" on="0"/>
        <pt x="199" y="621" on="0"/>
        <pt x="174" y="596" on="0"/>
        <pt x="160" y="556" on="0"/>
        <pt x="156" y="528" on="1"/>
        <pt x="150" y="475" on="0"/>
        <pt x="181" y="425" on="0"/>
        <pt x="232" y="404" on="1"/>
        <pt x="372" y="350" on="1"/>
        <pt x="449" y="320" on="0"/>
        <pt x="497" y="237" on="0"/>
        <pt x="487" y="160" on="1"/>
        <pt x="479" y="104" on="0"/>
        <pt x="443" y="36" on="0"/>
        <pt x="375" y="0" on="0"/>
        <pt x="297" y="-11" on="0"/>
        <pt x="233" y="-11" on="1"/>
        <pt x="125" y="-11" on="0"/>
        <pt x="30" y="4" on="1"/>
        <pt x="39" y="53" on="1"/>
        <pt x="160" y="47" on="0"/>
        <pt x="238" y="47" on="1"/>
        <pt x="333" y="48" on="0"/>
        <pt x="410" y="92" on="0"/>
        <pt x="421" y="167" on="1"/>
        <pt x="428" y="223" on="0"/>
        <pt x="397" y="271" on="0"/>
      </contour>
    </TTGlyph>
    <TTGlyph name="Scaron" xMin="30" yMin="-11" xMax="528" yMax="898">
      <contour>
        <pt x="514" y="870" on="1"/>
        <pt x="362" y="746" on="1"/>
        <pt x="316" y="746" on="1"/>
        <pt x="198" y="873" on="1"/>
        <pt x="224" y="898" on="1"/>
        <pt x="338" y="797" on="1"/>
        <pt x="346" y="797" on="1"/>
        <pt x="493" y="898" on="1"/>
      </contour>
      <contour>
        <pt x="344" y="293" on="1"/>
        <pt x="202" y="348" on="1"/>
        <pt x="131" y="376" on="0"/>
        <pt x="81" y="462" on="0"/>
        <pt x="90" y="535" on="1"/>
        <pt x="98" y="591" on="0"/>
        <pt x="136" y="660" on="0"/>
        <pt x="203" y="692" on="0"/>
        <pt x="274" y="702" on="0"/>
        <pt x="330" y="701" on="1"/>
        <pt x="437" y="701" on="0"/>
        <pt x="528" y="684" on="1"/>
        <pt x="520" y="637" on="1"/>
        <pt x="409" y="643" on="0"/>
        <pt x="322" y="643" on="1"/>
        <pt x="293" y="643" on="0"/>
        <pt x="264" y="642" on="0"/>
        <pt x="221" y="635" on="0"/>
        <pt x="199" y="621" on="0"/>
        <pt x="174" y="596" on="0"/>
        <pt x="160" y="556" on="0"/>
        <pt x="156" y="528" on="1"/>
        <pt x="150" y="475" on="0"/>
        <pt x="181" y="425" on="0"/>
        <pt x="232" y="404" on="1"/>
        <pt x="372" y="350" on="1"/>
        <pt x="449" y="320" on="0"/>
        <pt x="497" y="237" on="0"/>
        <pt x="487" y="160" on="1"/>
        <pt x="479" y="104" on="0"/>
        <pt x="443" y="36" on="0"/>
        <pt x="375" y="0" on="0"/>
        <pt x="297" y="-11" on="0"/>
        <pt x="233" y="-11" on="1"/>
        <pt x="125" y="-11" on="0"/>
        <pt x="30" y="4" on="1"/>
        <pt x="39" y="53" on="1"/>
        <pt x="160" y="47" on="0"/>
        <pt x="238" y="47" on="1"/>
        <pt x="333" y="48" on="0"/>
        <pt x="410" y="92" on="0"/>
        <pt x="421" y="167" on="1"/>
        <pt x="428" y="223" on="0"/>
        <pt x="397" y="271" on="0"/>
      </contour>
    </TTGlyph>
    <TTGlyph name="Scedilla" xMin="30" yMin="-237" xMax="528" yMax="701">
      <contour>
        <pt x="344" y="293" on="1"/>
        <pt x="202" y="348" on="1"/>
        <pt x="131" y="376" on="0"/>
        <pt x="81" y="462" on="0"/>
        <pt x="90" y="535" on="1"/>
        <pt x="98" y="591" on="0"/>
        <pt x="136" y="660" on="0"/>
        <pt x="203" y="692" on="0"/>
        <pt x="274" y="702" on="0"/>
        <pt x="330" y="701" on="1"/>
        <pt x="437" y="701" on="0"/>
        <pt x="528" y="684" on="1"/>
        <pt x="520" y="637" on="1"/>
        <pt x="409" y="643" on="0"/>
        <pt x="322" y="643" on="1"/>
        <pt x="293" y="643" on="0"/>
        <pt x="264" y="642" on="0"/>
        <pt x="221" y="635" on="0"/>
        <pt x="199" y="621" on="0"/>
        <pt x="174" y="596" on="0"/>
        <pt x="160" y="556" on="0"/>
        <pt x="156" y="528" on="1"/>
        <pt x="150" y="475" on="0"/>
        <pt x="181" y="425" on="0"/>
        <pt x="232" y="404" on="1"/>
        <pt x="372" y="350" on="1"/>
        <pt x="449" y="320" on="0"/>
        <pt x="497" y="237" on="0"/>
        <pt x="487" y="160" on="1"/>
        <pt x="479" y="104" on="0"/>
        <pt x="443" y="36" on="0"/>
        <pt x="375" y="0" on="0"/>
        <pt x="297" y="-11" on="0"/>
        <pt x="233" y="-11" on="1"/>
        <pt x="125" y="-11" on="0"/>
        <pt x="30" y="4" on="1"/>
        <pt x="39" y="53" on="1"/>
        <pt x="160" y="47" on="0"/>
        <pt x="238" y="47" on="1"/>
        <pt x="333" y="48" on="0"/>
        <pt x="410" y="92" on="0"/>
        <pt x="421" y="167" on="1"/>
        <pt x="428" y="223" on="0"/>
        <pt x="397" y="271" on="0"/>
      </contour>
      <contour>
        <pt x="196" y="-88" on="1"/>
        <pt x="204" y="-57" on="1"/>
        <pt x="258" y="-52" on="0"/>
        <pt x="303" y="-83" on="0"/>
        <pt x="296" y="-125" on="1"/>
        <pt x="287" y="-183" on="0"/>
        <pt x="192" y="-246" on="0"/>
        <pt x="124" y="-237" on="1"/>
        <pt x="136" y="-203" on="1"/>
        <pt x="180" y="-204" on="0"/>
        <pt x="243" y="-158" on="0"/>
        <pt x="249" y="-123" on="1"/>
        <pt x="252" y="-102" on="0"/>
        <pt x="231" y="-88" on="0"/>
      </contour>
    </TTGlyph>
    <TTGlyph name="Scommaaccent" xMin="30" yMin="-265" xMax="528" yMax="701">
      <contour>
        <pt x="344" y="293" on="1"/>
        <pt x="202" y="348" on="1"/>
        <pt x="131" y="376" on="0"/>
        <pt x="81" y="462" on="0"/>
        <pt x="90" y="535" on="1"/>
        <pt x="98" y="591" on="0"/>
        <pt x="136" y="660" on="0"/>
        <pt x="203" y="692" on="0"/>
        <pt x="274" y="702" on="0"/>
        <pt x="330" y="701" on="1"/>
        <pt x="437" y="701" on="0"/>
        <pt x="528" y="684" on="1"/>
        <pt x="520" y="637" on="1"/>
        <pt x="409" y="643" on="0"/>
        <pt x="322" y="643" on="1"/>
        <pt x="293" y="643" on="0"/>
        <pt x="264" y="642" on="0"/>
        <pt x="221" y="635" on="0"/>
        <pt x="199" y="621" on="0"/>
        <pt x="174" y="596" on="0"/>
        <pt x="160" y="556" on="0"/>
        <pt x="156" y="528" on="1"/>
        <pt x="150" y="475" on="0"/>
        <pt x="181" y="425" on="0"/>
        <pt x="232" y="404" on="1"/>
        <pt x="372" y="350" on="1"/>
        <pt x="449" y="320" on="0"/>
        <pt x="497" y="237" on="0"/>
        <pt x="487" y="160" on="1"/>
        <pt x="479" y="104" on="0"/>
        <pt x="443" y="36" on="0"/>
        <pt x="375" y="0" on="0"/>
        <pt x="297" y="-11" on="0"/>
        <pt x="233" y="-11" on="1"/>
        <pt x="125" y="-11" on="0"/>
        <pt x="30" y="4" on="1"/>
        <pt x="39" y="53" on="1"/>
        <pt x="160" y="47" on="0"/>
        <pt x="238" y="47" on="1"/>
        <pt x="333" y="48" on="0"/>
        <pt x="410" y="92" on="0"/>
        <pt x="421" y="167" on="1"/>
        <pt x="428" y="223" on="0"/>
        <pt x="397" y="271" on="0"/>
      </contour>
      <contour>
        <pt x="250" y="-60" on="1"/>
        <pt x="269" y="-60" on="1"/>
        <pt x="291" y="-60" on="0"/>
        <pt x="288" y="-82" on="1"/>
        <pt x="280" y="-139" on="1"/>
        <pt x="272" y="-193" on="0"/>
        <pt x="235" y="-265" on="1"/>
        <pt x="205" y="-255" on="1"/>
        <pt x="224" y="-198" on="0"/>
        <pt x="232" y="-153" on="1"/>
        <pt x="213" y="-153" on="0"/>
        <pt x="215" y="-134" on="1"/>
        <pt x="224" y="-81" on="1"/>
        <pt x="226" y="-69" on="0"/>
        <pt x="236" y="-60" on="0"/>
      </contour>
    </TTGlyph>
    <TTGlyph name="T" xMin="69" yMin="0" xMax="602" yMax="690">
      <contour>
        <pt x="594" y="632" on="1"/>
        <pt x="364" y="632" on="1"/>
        <pt x="275" y="0" on="1"/>
        <pt x="209" y="0" on="1"/>
        <pt x="298" y="632" on="1"/>
        <pt x="69" y="632" on="1"/>
        <pt x="78" y="690" on="1"/>
        <pt x="602" y="690" on="1"/>
      </contour>
    </TTGlyph>
    <TTGlyph name="Tbar" xMin="69" yMin="0" xMax="602" yMax="690">
      <contour>
        <pt x="364" y="632" on="1"/>
        <pt x="334" y="420" on="1"/>
        <pt x="485" y="420" on="1"/>
        <pt x="480" y="381" on="1"/>
        <pt x="329" y="381" on="1"/>
        <pt x="275" y="0" on="1"/>
        <pt x="209" y="0" on="1"/>
        <pt x="263" y="381" on="1"/>
        <pt x="126" y="381" on="1"/>
        <pt x="131" y="420" on="1"/>
        <pt x="268" y="420" on="1"/>
        <pt x="298" y="632" on="1"/>
        <pt x="69" y="632" on="1"/>
        <pt x="78" y="690" on="1"/>
        <pt x="602" y="690" on="1"/>
        <pt x="594" y="632" on="1"/>
      </contour>
    </TTGlyph>
    <TTGlyph name="Tcaron" xMin="69" yMin="0" xMax="602" yMax="898">
      <contour>
        <pt x="327" y="746" on="1"/>
        <pt x="208" y="873" on="1"/>
        <pt x="235" y="898" on="1"/>
        <pt x="349" y="797" on="1"/>
        <pt x="357" y="797" on="1"/>
        <pt x="503" y="898" on="1"/>
        <pt x="524" y="870" on="1"/>
        <pt x="373" y="746" on="1"/>
      </contour>
      <contour>
        <pt x="594" y="632" on="1"/>
        <pt x="364" y="632" on="1"/>
        <pt x="275" y="0" on="1"/>
        <pt x="209" y="0" on="1"/>
        <pt x="298" y="632" on="1"/>
        <pt x="69" y="632" on="1"/>
        <pt x="78" y="690" on="1"/>
        <pt x="602" y="690" on="1"/>
      </contour>
    </TTGlyph>
    <TTGlyph name="Tcedilla" xMin="69" yMin="-226" xMax="602" yMax="690">
      <contour>
        <pt x="594" y="632" on="1"/>
        <pt x="364" y="632" on="1"/>
        <pt x="275" y="0" on="1"/>
        <pt x="209" y="0" on="1"/>
        <pt x="298" y="632" on="1"/>
        <pt x="69" y="632" on="1"/>
        <pt x="78" y="690" on="1"/>
        <pt x="602" y="690" on="1"/>
      </contour>
      <contour>
        <pt x="187" y="-76" on="1"/>
        <pt x="194" y="-45" on="1"/>
        <pt x="247" y="-40" on="0"/>
        <pt x="294" y="-71" on="0"/>
        <pt x="287" y="-113" on="1"/>
        <pt x="277" y="-171" on="0"/>
        <pt x="182" y="-235" on="0"/>
        <pt x="115" y="-226" on="1"/>
        <pt x="127" y="-191" on="1"/>
        <pt x="170" y="-192" on="0"/>
        <pt x="234" y="-147" on="0"/>
        <pt x="240" y="-112" on="1"/>
        <pt x="243" y="-91" on="0"/>
        <pt x="222" y="-77" on="0"/>
      </contour>
    </TTGlyph>
    <TTGlyph name="Thorn" xMin="52" yMin="0" xMax="545" yMax="690">
      <contour>
        <pt x="214" y="690" on="1"/>
        <pt x="196" y="560" on="1"/>
        <pt x="241" y="563" on="0"/>
        <pt x="359" y="563" on="1"/>
        <pt x="475" y="563" on="0"/>
        <pt x="562" y="469" on="0"/>
        <pt x="528" y="225" on="0"/>
        <pt x="426" y="138" on="0"/>
        <pt x="313" y="138" on="1"/>
        <pt x="205" y="138" on="0"/>
        <pt x="138" y="146" on="1"/>
        <pt x="117" y="0" on="1"/>
        <pt x="52" y="0" on="1"/>
        <pt x="130" y="555" on="1"/>
        <pt x="149" y="690" on="1"/>
      </contour>
      <contour>
        <pt x="145" y="195" on="1"/>
        <pt x="306" y="195" on="1"/>
        <pt x="392" y="196" on="0"/>
        <pt x="467" y="260" on="0"/>
        <pt x="480" y="353" on="1"/>
        <pt x="492" y="444" on="0"/>
        <pt x="440" y="506" on="0"/>
        <pt x="357" y="506" on="1"/>
        <pt x="229" y="506" on="0"/>
        <pt x="188" y="505" on="1"/>
      </contour>
    </TTGlyph>
    <TTGlyph name="U" xMin="83" yMin="-12" xMax="634" yMax="690">
      <contour>
        <pt x="634" y="690" on="1"/>
        <pt x="573" y="260" on="1"/>
        <pt x="552" y="112" on="0"/>
        <pt x="426" y="-12" on="0"/>
        <pt x="297" y="-12" on="1"/>
        <pt x="164" y="-12" on="0"/>
        <pt x="62" y="116" on="0"/>
        <pt x="83" y="263" on="1"/>
        <pt x="143" y="690" on="1"/>
        <pt x="209" y="690" on="1"/>
        <pt x="148" y="260" on="1"/>
        <pt x="132" y="140" on="0"/>
        <pt x="197" y="46" on="0"/>
        <pt x="295" y="46" on="1"/>
        <pt x="395" y="46" on="0"/>
        <pt x="492" y="143" on="0"/>
        <pt x="508" y="263" on="1"/>
        <pt x="568" y="690" on="1"/>
      </contour>
    </TTGlyph>
    <TTGlyph name="Uacute" xMin="83" yMin="-12" xMax="634" yMax="908">
      <contour>
        <pt x="555" y="859" on="1"/>
        <pt x="361" y="731" on="1"/>
        <pt x="339" y="761" on="1"/>
        <pt x="523" y="908" on="1"/>
      </contour>
      <contour>
        <pt x="634" y="690" on="1"/>
        <pt x="573" y="260" on="1"/>
        <pt x="552" y="112" on="0"/>
        <pt x="426" y="-12" on="0"/>
        <pt x="297" y="-12" on="1"/>
        <pt x="164" y="-12" on="0"/>
        <pt x="62" y="116" on="0"/>
        <pt x="83" y="263" on="1"/>
        <pt x="143" y="690" on="1"/>
        <pt x="209" y="690" on="1"/>
        <pt x="148" y="260" on="1"/>
        <pt x="132" y="140" on="0"/>
        <pt x="197" y="46" on="0"/>
        <pt x="295" y="46" on="1"/>
        <pt x="395" y="46" on="0"/>
        <pt x="492" y="143" on="0"/>
        <pt x="508" y="263" on="1"/>
        <pt x="568" y="690" on="1"/>
      </contour>
    </TTGlyph>
    <TTGlyph name="Ucircumflex" xMin="83" yMin="-12" xMax="634" yMax="890">
      <contour>
        <pt x="561" y="763" on="1"/>
        <pt x="536" y="737" on="1"/>
        <pt x="419" y="839" on="1"/>
        <pt x="410" y="839" on="1"/>
        <pt x="263" y="738" on="1"/>
        <pt x="243" y="767" on="1"/>
        <pt x="393" y="890" on="1"/>
        <pt x="438" y="890" on="1"/>
      </contour>
      <contour>
        <pt x="634" y="690" on="1"/>
        <pt x="573" y="260" on="1"/>
        <pt x="552" y="112" on="0"/>
        <pt x="426" y="-12" on="0"/>
        <pt x="297" y="-12" on="1"/>
        <pt x="164" y="-12" on="0"/>
        <pt x="62" y="116" on="0"/>
        <pt x="83" y="263" on="1"/>
        <pt x="143" y="690" on="1"/>
        <pt x="209" y="690" on="1"/>
        <pt x="148" y="260" on="1"/>
        <pt x="132" y="140" on="0"/>
        <pt x="197" y="46" on="0"/>
        <pt x="295" y="46" on="1"/>
        <pt x="395" y="46" on="0"/>
        <pt x="492" y="143" on="0"/>
        <pt x="508" y="263" on="1"/>
        <pt x="568" y="690" on="1"/>
      </contour>
    </TTGlyph>
    <TTGlyph name="Udieresis" xMin="83" yMin="-12" xMax="634" yMax="865">
      <contour>
        <pt x="318" y="865" on="1"/>
        <pt x="338" y="865" on="1"/>
        <pt x="358" y="865" on="0"/>
        <pt x="355" y="845" on="1"/>
        <pt x="347" y="791" on="1"/>
        <pt x="346" y="771" on="0"/>
        <pt x="326" y="771" on="1"/>
        <pt x="305" y="771" on="1"/>
        <pt x="286" y="771" on="0"/>
        <pt x="287" y="790" on="1"/>
        <pt x="296" y="845" on="1"/>
        <pt x="299" y="865" on="0"/>
      </contour>
      <contour>
        <pt x="490" y="865" on="1"/>
        <pt x="510" y="865" on="1"/>
        <pt x="530" y="865" on="0"/>
        <pt x="527" y="845" on="1"/>
        <pt x="519" y="791" on="1"/>
        <pt x="516" y="771" on="0"/>
        <pt x="497" y="771" on="1"/>
        <pt x="477" y="771" on="1"/>
        <pt x="458" y="771" on="0"/>
        <pt x="459" y="790" on="1"/>
        <pt x="468" y="845" on="1"/>
        <pt x="471" y="865" on="0"/>
      </contour>
      <contour>
        <pt x="634" y="690" on="1"/>
        <pt x="573" y="260" on="1"/>
        <pt x="552" y="112" on="0"/>
        <pt x="426" y="-12" on="0"/>
        <pt x="297" y="-12" on="1"/>
        <pt x="164" y="-12" on="0"/>
        <pt x="62" y="116" on="0"/>
        <pt x="83" y="263" on="1"/>
        <pt x="143" y="690" on="1"/>
        <pt x="209" y="690" on="1"/>
        <pt x="148" y="260" on="1"/>
        <pt x="132" y="140" on="0"/>
        <pt x="197" y="46" on="0"/>
        <pt x="295" y="46" on="1"/>
        <pt x="395" y="46" on="0"/>
        <pt x="492" y="143" on="0"/>
        <pt x="508" y="263" on="1"/>
        <pt x="568" y="690" on="1"/>
      </contour>
    </TTGlyph>
    <TTGlyph name="Ugrave" xMin="83" yMin="-12" xMax="634" yMax="907">
      <contour>
        <pt x="444" y="760" on="1"/>
        <pt x="419" y="731" on="1"/>
        <pt x="252" y="861" on="1"/>
        <pt x="289" y="907" on="1"/>
      </contour>
      <contour>
        <pt x="634" y="690" on="1"/>
        <pt x="573" y="260" on="1"/>
        <pt x="552" y="112" on="0"/>
        <pt x="426" y="-12" on="0"/>
        <pt x="297" y="-12" on="1"/>
        <pt x="164" y="-12" on="0"/>
        <pt x="62" y="116" on="0"/>
        <pt x="83" y="263" on="1"/>
        <pt x="143" y="690" on="1"/>
        <pt x="209" y="690" on="1"/>
        <pt x="148" y="260" on="1"/>
        <pt x="132" y="140" on="0"/>
        <pt x="197" y="46" on="0"/>
        <pt x="295" y="46" on="1"/>
        <pt x="395" y="46" on="0"/>
        <pt x="492" y="143" on="0"/>
        <pt x="508" y="263" on="1"/>
        <pt x="568" y="690" on="1"/>
      </contour>
    </TTGlyph>
    <TTGlyph name="Uhungarumlaut" xMin="83" yMin="-12" xMax="634" yMax="913">
      <contour>
        <pt x="612" y="883" on="1"/>
        <pt x="462" y="726" on="1"/>
        <pt x="434" y="749" on="1"/>
        <pt x="571" y="913" on="1"/>
      </contour>
      <contour>
        <pt x="456" y="883" on="1"/>
        <pt x="307" y="726" on="1"/>
        <pt x="278" y="749" on="1"/>
        <pt x="415" y="913" on="1"/>
      </contour>
      <contour>
        <pt x="634" y="690" on="1"/>
        <pt x="573" y="260" on="1"/>
        <pt x="552" y="112" on="0"/>
        <pt x="426" y="-12" on="0"/>
        <pt x="297" y="-12" on="1"/>
        <pt x="164" y="-12" on="0"/>
        <pt x="62" y="116" on="0"/>
        <pt x="83" y="263" on="1"/>
        <pt x="143" y="690" on="1"/>
        <pt x="209" y="690" on="1"/>
        <pt x="148" y="260" on="1"/>
        <pt x="132" y="140" on="0"/>
        <pt x="197" y="46" on="0"/>
        <pt x="295" y="46" on="1"/>
        <pt x="395" y="46" on="0"/>
        <pt x="492" y="143" on="0"/>
        <pt x="508" y="263" on="1"/>
        <pt x="568" y="690" on="1"/>
      </contour>
    </TTGlyph>
    <TTGlyph name="Umacron" xMin="83" yMin="-12" xMax="634" yMax="841">
      <contour>
        <pt x="540" y="792" on="1"/>
        <pt x="268" y="792" on="1"/>
        <pt x="274" y="841" on="1"/>
        <pt x="547" y="841" on="1"/>
      </contour>
      <contour>
        <pt x="634" y="690" on="1"/>
        <pt x="573" y="260" on="1"/>
        <pt x="552" y="112" on="0"/>
        <pt x="426" y="-12" on="0"/>
        <pt x="297" y="-12" on="1"/>
        <pt x="164" y="-12" on="0"/>
        <pt x="62" y="116" on="0"/>
        <pt x="83" y="263" on="1"/>
        <pt x="143" y="690" on="1"/>
        <pt x="209" y="690" on="1"/>
        <pt x="148" y="260" on="1"/>
        <pt x="132" y="140" on="0"/>
        <pt x="197" y="46" on="0"/>
        <pt x="295" y="46" on="1"/>
        <pt x="395" y="46" on="0"/>
        <pt x="492" y="143" on="0"/>
        <pt x="508" y="263" on="1"/>
        <pt x="568" y="690" on="1"/>
      </contour>
    </TTGlyph>
    <TTGlyph name="Uogonek" xMin="83" yMin="-210" xMax="634" yMax="690">
      <contour>
        <pt x="634" y="690" on="1"/>
        <pt x="573" y="260" on="1"/>
        <pt x="553" y="121" on="0"/>
        <pt x="441" y="-5" on="0"/>
        <pt x="328" y="-12" on="1"/>
        <pt x="270" y="-69" on="0"/>
        <pt x="237" y="-130" on="1"/>
        <pt x="216" y="-169" on="0"/>
        <pt x="258" y="-193" on="0"/>
        <pt x="311" y="-175" on="1"/>
        <pt x="318" y="-203" on="1"/>
        <pt x="227" y="-237" on="0"/>
        <pt x="160" y="-183" on="0"/>
        <pt x="218" y="-69" on="0"/>
        <pt x="291" y="-12" on="1"/>
        <pt x="162" y="-11" on="0"/>
        <pt x="62" y="117" on="0"/>
        <pt x="83" y="263" on="1"/>
        <pt x="143" y="690" on="1"/>
        <pt x="209" y="690" on="1"/>
        <pt x="148" y="260" on="1"/>
        <pt x="132" y="140" on="0"/>
        <pt x="197" y="46" on="0"/>
        <pt x="295" y="46" on="1"/>
        <pt x="395" y="46" on="0"/>
        <pt x="492" y="143" on="0"/>
        <pt x="508" y="263" on="1"/>
        <pt x="568" y="690" on="1"/>
      </contour>
    </TTGlyph>
    <TTGlyph name="Uring" xMin="83" yMin="-12" xMax="634" yMax="919">
      <contour>
        <pt x="414" y="919" on="1"/>
        <pt x="460" y="919" on="0"/>
        <pt x="516" y="859" on="0"/>
        <pt x="510" y="814" on="1"/>
        <pt x="505" y="773" on="0"/>
        <pt x="445" y="716" on="0"/>
        <pt x="400" y="716" on="1"/>
        <pt x="354" y="716" on="0"/>
        <pt x="300" y="776" on="0"/>
        <pt x="305" y="820" on="1"/>
        <pt x="310" y="862" on="0"/>
        <pt x="369" y="919" on="0"/>
      </contour>
      <contour>
        <pt x="415" y="884" on="1"/>
        <pt x="385" y="884" on="0"/>
        <pt x="346" y="846" on="0"/>
        <pt x="343" y="817" on="1"/>
        <pt x="339" y="788" on="0"/>
        <pt x="373" y="751" on="0"/>
        <pt x="401" y="751" on="1"/>
        <pt x="430" y="751" on="0"/>
        <pt x="469" y="790" on="0"/>
        <pt x="472" y="819" on="1"/>
        <pt x="475" y="847" on="0"/>
        <pt x="444" y="884" on="0"/>
      </contour>
      <contour>
        <pt x="634" y="690" on="1"/>
        <pt x="573" y="260" on="1"/>
        <pt x="552" y="112" on="0"/>
        <pt x="426" y="-12" on="0"/>
        <pt x="297" y="-12" on="1"/>
        <pt x="164" y="-12" on="0"/>
        <pt x="62" y="116" on="0"/>
        <pt x="83" y="263" on="1"/>
        <pt x="143" y="690" on="1"/>
        <pt x="209" y="690" on="1"/>
        <pt x="148" y="260" on="1"/>
        <pt x="132" y="140" on="0"/>
        <pt x="197" y="46" on="0"/>
        <pt x="295" y="46" on="1"/>
        <pt x="395" y="46" on="0"/>
        <pt x="492" y="143" on="0"/>
        <pt x="508" y="263" on="1"/>
        <pt x="568" y="690" on="1"/>
      </contour>
    </TTGlyph>
    <TTGlyph name="V" xMin="72" yMin="0" xMax="635" yMax="690">
      <contour>
        <pt x="635" y="690" on="1"/>
        <pt x="321" y="18" on="1"/>
        <pt x="314" y="0" on="0"/>
        <pt x="294" y="0" on="1"/>
        <pt x="223" y="0" on="1"/>
        <pt x="203" y="0" on="0"/>
        <pt x="199" y="21" on="1"/>
        <pt x="72" y="690" on="1"/>
        <pt x="139" y="690" on="1"/>
        <pt x="238" y="125" on="1"/>
        <pt x="239" y="117" on="0"/>
        <pt x="245" y="86" on="0"/>
        <pt x="249" y="61" on="0"/>
        <pt x="250" y="50" on="1"/>
        <pt x="276" y="50" on="1"/>
        <pt x="294" y="94" on="0"/>
        <pt x="309" y="129" on="1"/>
        <pt x="566" y="690" on="1"/>
      </contour>
    </TTGlyph>
    <TTGlyph name="W" xMin="84" yMin="0" xMax="962" yMax="690">
      <contour>
        <pt x="962" y="690" on="1"/>
        <pt x="712" y="19" on="1"/>
        <pt x="705" y="0" on="0"/>
        <pt x="683" y="0" on="1"/>
        <pt x="605" y="0" on="1"/>
        <pt x="582" y="0" on="0"/>
        <pt x="580" y="23" on="1"/>
        <pt x="533" y="563" on="1"/>
        <pt x="527" y="639" on="1"/>
        <pt x="504" y="639" on="1"/>
        <pt x="476" y="560" on="1"/>
        <pt x="280" y="20" on="1"/>
        <pt x="272" y="0" on="0"/>
        <pt x="251" y="0" on="1"/>
        <pt x="173" y="0" on="1"/>
        <pt x="163" y="0" on="0"/>
        <pt x="148" y="13" on="0"/>
        <pt x="147" y="22" on="1"/>
        <pt x="84" y="690" on="1"/>
        <pt x="151" y="690" on="1"/>
        <pt x="199" y="129" on="1"/>
        <pt x="201" y="104" on="0"/>
        <pt x="203" y="50" on="1"/>
        <pt x="229" y="50" on="1"/>
        <pt x="257" y="131" on="1"/>
        <pt x="453" y="669" on="1"/>
        <pt x="461" y="690" on="0"/>
        <pt x="482" y="690" on="1"/>
        <pt x="557" y="690" on="1"/>
        <pt x="567" y="690" on="0"/>
        <pt x="580" y="676" on="0"/>
        <pt x="581" y="666" on="1"/>
        <pt x="632" y="129" on="1"/>
        <pt x="636" y="74" on="0"/>
        <pt x="637" y="50" on="1"/>
        <pt x="663" y="50" on="1"/>
        <pt x="690" y="131" on="1"/>
        <pt x="893" y="690" on="1"/>
      </contour>
    </TTGlyph>
    <TTGlyph name="Wacute" xMin="84" yMin="0" xMax="962" yMax="907">
      <contour>
        <pt x="689" y="858" on="1"/>
        <pt x="495" y="730" on="1"/>
        <pt x="473" y="761" on="1"/>
        <pt x="656" y="907" on="1"/>
      </contour>
      <contour>
        <pt x="962" y="690" on="1"/>
        <pt x="712" y="19" on="1"/>
        <pt x="705" y="0" on="0"/>
        <pt x="683" y="0" on="1"/>
        <pt x="605" y="0" on="1"/>
        <pt x="582" y="0" on="0"/>
        <pt x="580" y="23" on="1"/>
        <pt x="533" y="563" on="1"/>
        <pt x="527" y="639" on="1"/>
        <pt x="504" y="639" on="1"/>
        <pt x="476" y="560" on="1"/>
        <pt x="280" y="20" on="1"/>
        <pt x="272" y="0" on="0"/>
        <pt x="251" y="0" on="1"/>
        <pt x="173" y="0" on="1"/>
        <pt x="163" y="0" on="0"/>
        <pt x="148" y="13" on="0"/>
        <pt x="147" y="22" on="1"/>
        <pt x="84" y="690" on="1"/>
        <pt x="151" y="690" on="1"/>
        <pt x="199" y="129" on="1"/>
        <pt x="201" y="104" on="0"/>
        <pt x="203" y="50" on="1"/>
        <pt x="229" y="50" on="1"/>
        <pt x="257" y="131" on="1"/>
        <pt x="453" y="669" on="1"/>
        <pt x="461" y="690" on="0"/>
        <pt x="482" y="690" on="1"/>
        <pt x="557" y="690" on="1"/>
        <pt x="567" y="690" on="0"/>
        <pt x="580" y="676" on="0"/>
        <pt x="581" y="666" on="1"/>
        <pt x="632" y="129" on="1"/>
        <pt x="636" y="74" on="0"/>
        <pt x="637" y="50" on="1"/>
        <pt x="663" y="50" on="1"/>
        <pt x="690" y="131" on="1"/>
        <pt x="893" y="690" on="1"/>
      </contour>
    </TTGlyph>
    <TTGlyph name="Wcircumflex" xMin="84" yMin="0" xMax="962" yMax="890">
      <contour>
        <pt x="695" y="763" on="1"/>
        <pt x="670" y="737" on="1"/>
        <pt x="552" y="838" on="1"/>
        <pt x="544" y="838" on="1"/>
        <pt x="396" y="738" on="1"/>
        <pt x="377" y="766" on="1"/>
        <pt x="526" y="890" on="1"/>
        <pt x="572" y="890" on="1"/>
      </contour>
      <contour>
        <pt x="962" y="690" on="1"/>
        <pt x="712" y="19" on="1"/>
        <pt x="705" y="0" on="0"/>
        <pt x="683" y="0" on="1"/>
        <pt x="605" y="0" on="1"/>
        <pt x="582" y="0" on="0"/>
        <pt x="580" y="23" on="1"/>
        <pt x="533" y="563" on="1"/>
        <pt x="527" y="639" on="1"/>
        <pt x="504" y="639" on="1"/>
        <pt x="476" y="560" on="1"/>
        <pt x="280" y="20" on="1"/>
        <pt x="272" y="0" on="0"/>
        <pt x="251" y="0" on="1"/>
        <pt x="173" y="0" on="1"/>
        <pt x="163" y="0" on="0"/>
        <pt x="148" y="13" on="0"/>
        <pt x="147" y="22" on="1"/>
        <pt x="84" y="690" on="1"/>
        <pt x="151" y="690" on="1"/>
        <pt x="199" y="129" on="1"/>
        <pt x="201" y="104" on="0"/>
        <pt x="203" y="50" on="1"/>
        <pt x="229" y="50" on="1"/>
        <pt x="257" y="131" on="1"/>
        <pt x="453" y="669" on="1"/>
        <pt x="461" y="690" on="0"/>
        <pt x="482" y="690" on="1"/>
        <pt x="557" y="690" on="1"/>
        <pt x="567" y="690" on="0"/>
        <pt x="580" y="676" on="0"/>
        <pt x="581" y="666" on="1"/>
        <pt x="632" y="129" on="1"/>
        <pt x="636" y="74" on="0"/>
        <pt x="637" y="50" on="1"/>
        <pt x="663" y="50" on="1"/>
        <pt x="690" y="131" on="1"/>
        <pt x="893" y="690" on="1"/>
      </contour>
    </TTGlyph>
    <TTGlyph name="Wdieresis" xMin="84" yMin="0" xMax="962" yMax="864">
      <contour>
        <pt x="452" y="864" on="1"/>
        <pt x="472" y="864" on="1"/>
        <pt x="492" y="864" on="0"/>
        <pt x="489" y="844" on="1"/>
        <pt x="481" y="791" on="1"/>
        <pt x="478" y="770" on="0"/>
        <pt x="459" y="770" on="1"/>
        <pt x="438" y="770" on="1"/>
        <pt x="418" y="770" on="0"/>
        <pt x="421" y="790" on="1"/>
        <pt x="429" y="844" on="1"/>
        <pt x="432" y="864" on="0"/>
      </contour>
      <contour>
        <pt x="624" y="864" on="1"/>
        <pt x="643" y="864" on="1"/>
        <pt x="664" y="864" on="0"/>
        <pt x="661" y="844" on="1"/>
        <pt x="652" y="791" on="1"/>
        <pt x="651" y="770" on="0"/>
        <pt x="631" y="770" on="1"/>
        <pt x="610" y="770" on="1"/>
        <pt x="590" y="770" on="0"/>
        <pt x="593" y="790" on="1"/>
        <pt x="601" y="844" on="1"/>
        <pt x="604" y="864" on="0"/>
      </contour>
      <contour>
        <pt x="962" y="690" on="1"/>
        <pt x="712" y="19" on="1"/>
        <pt x="705" y="0" on="0"/>
        <pt x="683" y="0" on="1"/>
        <pt x="605" y="0" on="1"/>
        <pt x="582" y="0" on="0"/>
        <pt x="580" y="23" on="1"/>
        <pt x="533" y="563" on="1"/>
        <pt x="527" y="639" on="1"/>
        <pt x="504" y="639" on="1"/>
        <pt x="476" y="560" on="1"/>
        <pt x="280" y="20" on="1"/>
        <pt x="272" y="0" on="0"/>
        <pt x="251" y="0" on="1"/>
        <pt x="173" y="0" on="1"/>
        <pt x="163" y="0" on="0"/>
        <pt x="148" y="13" on="0"/>
        <pt x="147" y="22" on="1"/>
        <pt x="84" y="690" on="1"/>
        <pt x="151" y="690" on="1"/>
        <pt x="199" y="129" on="1"/>
        <pt x="201" y="104" on="0"/>
        <pt x="203" y="50" on="1"/>
        <pt x="229" y="50" on="1"/>
        <pt x="257" y="131" on="1"/>
        <pt x="453" y="669" on="1"/>
        <pt x="461" y="690" on="0"/>
        <pt x="482" y="690" on="1"/>
        <pt x="557" y="690" on="1"/>
        <pt x="567" y="690" on="0"/>
        <pt x="580" y="676" on="0"/>
        <pt x="581" y="666" on="1"/>
        <pt x="632" y="129" on="1"/>
        <pt x="636" y="74" on="0"/>
        <pt x="637" y="50" on="1"/>
        <pt x="663" y="50" on="1"/>
        <pt x="690" y="131" on="1"/>
        <pt x="893" y="690" on="1"/>
      </contour>
    </TTGlyph>
    <TTGlyph name="Wgrave" xMin="84" yMin="0" xMax="962" yMax="906">
      <contour>
        <pt x="577" y="759" on="1"/>
        <pt x="552" y="730" on="1"/>
        <pt x="385" y="861" on="1"/>
        <pt x="422" y="906" on="1"/>
      </contour>
      <contour>
        <pt x="962" y="690" on="1"/>
        <pt x="712" y="19" on="1"/>
        <pt x="705" y="0" on="0"/>
        <pt x="683" y="0" on="1"/>
        <pt x="605" y="0" on="1"/>
        <pt x="582" y="0" on="0"/>
        <pt x="580" y="23" on="1"/>
        <pt x="533" y="563" on="1"/>
        <pt x="527" y="639" on="1"/>
        <pt x="504" y="639" on="1"/>
        <pt x="476" y="560" on="1"/>
        <pt x="280" y="20" on="1"/>
        <pt x="272" y="0" on="0"/>
        <pt x="251" y="0" on="1"/>
        <pt x="173" y="0" on="1"/>
        <pt x="163" y="0" on="0"/>
        <pt x="148" y="13" on="0"/>
        <pt x="147" y="22" on="1"/>
        <pt x="84" y="690" on="1"/>
        <pt x="151" y="690" on="1"/>
        <pt x="199" y="129" on="1"/>
        <pt x="201" y="104" on="0"/>
        <pt x="203" y="50" on="1"/>
        <pt x="229" y="50" on="1"/>
        <pt x="257" y="131" on="1"/>
        <pt x="453" y="669" on="1"/>
        <pt x="461" y="690" on="0"/>
        <pt x="482" y="690" on="1"/>
        <pt x="557" y="690" on="1"/>
        <pt x="567" y="690" on="0"/>
        <pt x="580" y="676" on="0"/>
        <pt x="581" y="666" on="1"/>
        <pt x="632" y="129" on="1"/>
        <pt x="636" y="74" on="0"/>
        <pt x="637" y="50" on="1"/>
        <pt x="663" y="50" on="1"/>
        <pt x="690" y="131" on="1"/>
        <pt x="893" y="690" on="1"/>
      </contour>
    </TTGlyph>
    <TTGlyph name="X" xMin="-13" yMin="0" xMax="618" yMax="690">
      <contour>
        <pt x="381" y="358" on="1"/>
        <pt x="534" y="0" on="1"/>
        <pt x="466" y="0" on="1"/>
        <pt x="327" y="334" on="1"/>
        <pt x="296" y="334" on="1"/>
        <pt x="63" y="0" on="1"/>
        <pt x="-13" y="0" on="1"/>
        <pt x="242" y="359" on="1"/>
        <pt x="98" y="690" on="1"/>
        <pt x="166" y="690" on="1"/>
        <pt x="295" y="385" on="1"/>
        <pt x="327" y="385" on="1"/>
        <pt x="545" y="690" on="1"/>
        <pt x="618" y="690" on="1"/>
      </contour>
    </TTGlyph>
    <TTGlyph name="Y" xMin="67" yMin="0" xMax="595" yMax="690">
      <contour>
        <pt x="301" y="247" on="1"/>
        <pt x="267" y="0" on="1"/>
        <pt x="201" y="0" on="1"/>
        <pt x="236" y="249" on="1"/>
        <pt x="67" y="690" on="1"/>
        <pt x="134" y="690" on="1"/>
        <pt x="249" y="382" on="1"/>
        <pt x="261" y="350" on="0"/>
        <pt x="272" y="308" on="1"/>
        <pt x="279" y="308" on="1"/>
        <pt x="291" y="334" on="0"/>
        <pt x="322" y="385" on="1"/>
        <pt x="523" y="690" on="1"/>
        <pt x="595" y="690" on="1"/>
      </contour>
    </TTGlyph>
    <TTGlyph name="Yacute" xMin="67" yMin="0" xMax="595" yMax="908">
      <contour>
        <pt x="302" y="731" on="1"/>
        <pt x="280" y="761" on="1"/>
        <pt x="464" y="908" on="1"/>
        <pt x="496" y="859" on="1"/>
      </contour>
      <contour>
        <pt x="301" y="247" on="1"/>
        <pt x="267" y="0" on="1"/>
        <pt x="201" y="0" on="1"/>
        <pt x="236" y="249" on="1"/>
        <pt x="67" y="690" on="1"/>
        <pt x="134" y="690" on="1"/>
        <pt x="249" y="382" on="1"/>
        <pt x="261" y="350" on="0"/>
        <pt x="272" y="308" on="1"/>
        <pt x="279" y="308" on="1"/>
        <pt x="291" y="334" on="0"/>
        <pt x="322" y="385" on="1"/>
        <pt x="523" y="690" on="1"/>
        <pt x="595" y="690" on="1"/>
      </contour>
    </TTGlyph>
    <TTGlyph name="Ycircumflex" xMin="67" yMin="0" xMax="595" yMax="890">
      <contour>
        <pt x="204" y="738" on="1"/>
        <pt x="184" y="767" on="1"/>
        <pt x="334" y="890" on="1"/>
        <pt x="379" y="890" on="1"/>
        <pt x="502" y="763" on="1"/>
        <pt x="477" y="737" on="1"/>
        <pt x="359" y="839" on="1"/>
        <pt x="351" y="839" on="1"/>
      </contour>
      <contour>
        <pt x="301" y="247" on="1"/>
        <pt x="267" y="0" on="1"/>
        <pt x="201" y="0" on="1"/>
        <pt x="236" y="249" on="1"/>
        <pt x="67" y="690" on="1"/>
        <pt x="134" y="690" on="1"/>
        <pt x="249" y="382" on="1"/>
        <pt x="261" y="350" on="0"/>
        <pt x="272" y="308" on="1"/>
        <pt x="279" y="308" on="1"/>
        <pt x="291" y="334" on="0"/>
        <pt x="322" y="385" on="1"/>
        <pt x="523" y="690" on="1"/>
        <pt x="595" y="690" on="1"/>
      </contour>
    </TTGlyph>
    <TTGlyph name="Ydieresis" xMin="67" yMin="0" xMax="595" yMax="865">
      <contour>
        <pt x="266" y="771" on="1"/>
        <pt x="246" y="771" on="1"/>
        <pt x="227" y="771" on="0"/>
        <pt x="228" y="790" on="1"/>
        <pt x="237" y="845" on="1"/>
        <pt x="240" y="865" on="0"/>
        <pt x="259" y="865" on="1"/>
        <pt x="279" y="865" on="1"/>
        <pt x="299" y="865" on="0"/>
        <pt x="296" y="845" on="1"/>
        <pt x="288" y="791" on="1"/>
        <pt x="285" y="771" on="0"/>
      </contour>
      <contour>
        <pt x="438" y="771" on="1"/>
        <pt x="418" y="771" on="1"/>
        <pt x="399" y="771" on="0"/>
        <pt x="400" y="790" on="1"/>
        <pt x="409" y="845" on="1"/>
        <pt x="410" y="865" on="0"/>
        <pt x="431" y="865" on="1"/>
        <pt x="451" y="865" on="1"/>
        <pt x="471" y="865" on="0"/>
        <pt x="468" y="845" on="1"/>
        <pt x="460" y="791" on="1"/>
        <pt x="457" y="771" on="0"/>
      </contour>
      <contour>
        <pt x="301" y="247" on="1"/>
        <pt x="267" y="0" on="1"/>
        <pt x="201" y="0" on="1"/>
        <pt x="236" y="249" on="1"/>
        <pt x="67" y="690" on="1"/>
        <pt x="134" y="690" on="1"/>
        <pt x="249" y="382" on="1"/>
        <pt x="261" y="350" on="0"/>
        <pt x="272" y="308" on="1"/>
        <pt x="279" y="308" on="1"/>
        <pt x="291" y="334" on="0"/>
        <pt x="322" y="385" on="1"/>
        <pt x="523" y="690" on="1"/>
        <pt x="595" y="690" on="1"/>
      </contour>
    </TTGlyph>
    <TTGlyph name="Ygrave" xMin="67" yMin="0" xMax="595" yMax="907">
      <contour>
        <pt x="360" y="731" on="1"/>
        <pt x="193" y="861" on="1"/>
        <pt x="230" y="907" on="1"/>
        <pt x="384" y="760" on="1"/>
      </contour>
      <contour>
        <pt x="301" y="247" on="1"/>
        <pt x="267" y="0" on="1"/>
        <pt x="201" y="0" on="1"/>
        <pt x="236" y="249" on="1"/>
        <pt x="67" y="690" on="1"/>
        <pt x="134" y="690" on="1"/>
        <pt x="249" y="382" on="1"/>
        <pt x="261" y="350" on="0"/>
        <pt x="272" y="308" on="1"/>
        <pt x="279" y="308" on="1"/>
        <pt x="291" y="334" on="0"/>
        <pt x="322" y="385" on="1"/>
        <pt x="523" y="690" on="1"/>
        <pt x="595" y="690" on="1"/>
      </contour>
    </TTGlyph>
    <TTGlyph name="Z" xMin="7" yMin="0" xMax="563" yMax="690">
      <contour>
        <pt x="563" y="690" on="1"/>
        <pt x="554" y="634" on="1"/>
        <pt x="88" y="56" on="1"/>
        <pt x="480" y="56" on="1"/>
        <pt x="471" y="0" on="1"/>
        <pt x="7" y="0" on="1"/>
        <pt x="15" y="56" on="1"/>
        <pt x="481" y="634" on="1"/>
        <pt x="100" y="634" on="1"/>
        <pt x="108" y="690" on="1"/>
      </contour>
    </TTGlyph>
    <TTGlyph name="Zacute" xMin="7" yMin="0" xMax="563" yMax="908">
      <contour>
        <pt x="309" y="731" on="1"/>
        <pt x="287" y="761" on="1"/>
        <pt x="470" y="908" on="1"/>
        <pt x="503" y="859" on="1"/>
      </contour>
      <contour>
        <pt x="563" y="690" on="1"/>
        <pt x="554" y="634" on="1"/>
        <pt x="88" y="56" on="1"/>
        <pt x="480" y="56" on="1"/>
        <pt x="471" y="0" on="1"/>
        <pt x="7" y="0" on="1"/>
        <pt x="15" y="56" on="1"/>
        <pt x="481" y="634" on="1"/>
        <pt x="100" y="634" on="1"/>
        <pt x="108" y="690" on="1"/>
      </contour>
    </TTGlyph>
    <TTGlyph name="Zcaron" xMin="7" yMin="0" xMax="563" yMax="898">
      <contour>
        <pt x="324" y="746" on="1"/>
        <pt x="205" y="873" on="1"/>
        <pt x="231" y="898" on="1"/>
        <pt x="346" y="797" on="1"/>
        <pt x="354" y="797" on="1"/>
        <pt x="500" y="898" on="1"/>
        <pt x="521" y="870" on="1"/>
        <pt x="370" y="746" on="1"/>
      </contour>
      <contour>
        <pt x="563" y="690" on="1"/>
        <pt x="554" y="634" on="1"/>
        <pt x="88" y="56" on="1"/>
        <pt x="480" y="56" on="1"/>
        <pt x="471" y="0" on="1"/>
        <pt x="7" y="0" on="1"/>
        <pt x="15" y="56" on="1"/>
        <pt x="481" y="634" on="1"/>
        <pt x="100" y="634" on="1"/>
        <pt x="108" y="690" on="1"/>
      </contour>
    </TTGlyph>
    <TTGlyph name="Zdotaccent" xMin="7" yMin="0" xMax="563" yMax="865">
      <contour>
        <pt x="360" y="764" on="1"/>
        <pt x="339" y="764" on="1"/>
        <pt x="317" y="764" on="0"/>
        <pt x="320" y="787" on="1"/>
        <pt x="327" y="844" on="1"/>
        <pt x="330" y="865" on="0"/>
        <pt x="349" y="865" on="1"/>
        <pt x="371" y="865" on="1"/>
        <pt x="393" y="865" on="0"/>
        <pt x="390" y="842" on="1"/>
        <pt x="382" y="785" on="1"/>
        <pt x="379" y="764" on="0"/>
      </contour>
      <contour>
        <pt x="563" y="690" on="1"/>
        <pt x="554" y="634" on="1"/>
        <pt x="88" y="56" on="1"/>
        <pt x="480" y="56" on="1"/>
        <pt x="471" y="0" on="1"/>
        <pt x="7" y="0" on="1"/>
        <pt x="15" y="56" on="1"/>
        <pt x="481" y="634" on="1"/>
        <pt x="100" y="634" on="1"/>
        <pt x="108" y="690" on="1"/>
      </contour>
    </TTGlyph>
    <TTGlyph name="a" xMin="58" yMin="-12" xMax="514" yMax="497">
      <contour>
        <pt x="446" y="0" on="1"/>
        <pt x="397" y="0" on="1"/>
        <pt x="406" y="109" on="1"/>
        <pt x="358" y="54" on="0"/>
        <pt x="239" y="-12" on="0"/>
        <pt x="180" y="-12" on="1"/>
        <pt x="91" y="-12" on="0"/>
        <pt x="37" y="105" on="0"/>
        <pt x="58" y="246" on="1"/>
        <pt x="70" y="326" on="0"/>
        <pt x="105" y="424" on="0"/>
        <pt x="167" y="478" on="0"/>
        <pt x="243" y="497" on="0"/>
        <pt x="303" y="497" on="1"/>
        <pt x="394" y="497" on="0"/>
        <pt x="514" y="477" on="1"/>
      </contour>
      <contour>
        <pt x="406" y="164" on="1"/>
        <pt x="445" y="439" on="1"/>
        <pt x="339" y="443" on="0"/>
        <pt x="321" y="443" on="1"/>
        <pt x="275" y="443" on="0"/>
        <pt x="218" y="433" on="0"/>
        <pt x="174" y="411" on="0"/>
        <pt x="147" y="361" on="0"/>
        <pt x="129" y="296" on="0"/>
        <pt x="121" y="241" on="1"/>
        <pt x="104" y="127" on="0"/>
        <pt x="132" y="44" on="0"/>
        <pt x="190" y="44" on="1"/>
        <pt x="288" y="44" on="0"/>
      </contour>
    </TTGlyph>
    <TTGlyph name="aacute" xMin="58" yMin="-12" xMax="514" yMax="727">
      <contour>
        <pt x="290" y="550" on="1"/>
        <pt x="268" y="581" on="1"/>
        <pt x="451" y="727" on="1"/>
        <pt x="484" y="678" on="1"/>
      </contour>
      <contour>
        <pt x="446" y="0" on="1"/>
        <pt x="397" y="0" on="1"/>
        <pt x="406" y="109" on="1"/>
        <pt x="358" y="54" on="0"/>
        <pt x="239" y="-12" on="0"/>
        <pt x="180" y="-12" on="1"/>
        <pt x="91" y="-12" on="0"/>
        <pt x="37" y="105" on="0"/>
        <pt x="58" y="246" on="1"/>
        <pt x="70" y="326" on="0"/>
        <pt x="105" y="424" on="0"/>
        <pt x="167" y="478" on="0"/>
        <pt x="243" y="497" on="0"/>
        <pt x="303" y="497" on="1"/>
        <pt x="394" y="497" on="0"/>
        <pt x="514" y="477" on="1"/>
      </contour>
      <contour>
        <pt x="406" y="164" on="1"/>
        <pt x="445" y="439" on="1"/>
        <pt x="339" y="443" on="0"/>
        <pt x="321" y="443" on="1"/>
        <pt x="275" y="443" on="0"/>
        <pt x="218" y="433" on="0"/>
        <pt x="174" y="411" on="0"/>
        <pt x="147" y="361" on="0"/>
        <pt x="129" y="296" on="0"/>
        <pt x="121" y="241" on="1"/>
        <pt x="104" y="127" on="0"/>
        <pt x="132" y="44" on="0"/>
        <pt x="190" y="44" on="1"/>
        <pt x="288" y="44" on="0"/>
      </contour>
    </TTGlyph>
    <TTGlyph name="abreve" xMin="58" yMin="-12" xMax="514" yMax="701">
      <contour>
        <pt x="454" y="701" on="1"/>
        <pt x="488" y="692" on="1"/>
        <pt x="482" y="635" on="0"/>
        <pt x="397" y="568" on="0"/>
        <pt x="330" y="568" on="1"/>
        <pt x="260" y="568" on="0"/>
        <pt x="187" y="638" on="0"/>
        <pt x="198" y="695" on="1"/>
        <pt x="233" y="698" on="1"/>
        <pt x="227" y="660" on="0"/>
        <pt x="280" y="618" on="0"/>
        <pt x="330" y="618" on="1"/>
        <pt x="383" y="618" on="0"/>
        <pt x="449" y="662" on="0"/>
      </contour>
      <contour>
        <pt x="446" y="0" on="1"/>
        <pt x="397" y="0" on="1"/>
        <pt x="406" y="109" on="1"/>
        <pt x="358" y="54" on="0"/>
        <pt x="239" y="-12" on="0"/>
        <pt x="180" y="-12" on="1"/>
        <pt x="91" y="-12" on="0"/>
        <pt x="37" y="105" on="0"/>
        <pt x="58" y="246" on="1"/>
        <pt x="70" y="326" on="0"/>
        <pt x="105" y="424" on="0"/>
        <pt x="167" y="478" on="0"/>
        <pt x="243" y="497" on="0"/>
        <pt x="303" y="497" on="1"/>
        <pt x="394" y="497" on="0"/>
        <pt x="514" y="477" on="1"/>
      </contour>
      <contour>
        <pt x="406" y="164" on="1"/>
        <pt x="445" y="439" on="1"/>
        <pt x="339" y="443" on="0"/>
        <pt x="321" y="443" on="1"/>
        <pt x="275" y="443" on="0"/>
        <pt x="218" y="433" on="0"/>
        <pt x="174" y="411" on="0"/>
        <pt x="147" y="361" on="0"/>
        <pt x="129" y="296" on="0"/>
        <pt x="121" y="241" on="1"/>
        <pt x="104" y="127" on="0"/>
        <pt x="132" y="44" on="0"/>
        <pt x="190" y="44" on="1"/>
        <pt x="288" y="44" on="0"/>
      </contour>
    </TTGlyph>
    <TTGlyph name="acircumflex" xMin="58" yMin="-12" xMax="514" yMax="710">
      <contour>
        <pt x="191" y="558" on="1"/>
        <pt x="172" y="586" on="1"/>
        <pt x="321" y="710" on="1"/>
        <pt x="367" y="710" on="1"/>
        <pt x="490" y="583" on="1"/>
        <pt x="465" y="557" on="1"/>
        <pt x="347" y="658" on="1"/>
        <pt x="339" y="658" on="1"/>
      </contour>
      <contour>
        <pt x="446" y="0" on="1"/>
        <pt x="397" y="0" on="1"/>
        <pt x="406" y="109" on="1"/>
        <pt x="358" y="54" on="0"/>
        <pt x="239" y="-12" on="0"/>
        <pt x="180" y="-12" on="1"/>
        <pt x="91" y="-12" on="0"/>
        <pt x="37" y="105" on="0"/>
        <pt x="58" y="246" on="1"/>
        <pt x="70" y="326" on="0"/>
        <pt x="105" y="424" on="0"/>
        <pt x="167" y="478" on="0"/>
        <pt x="243" y="497" on="0"/>
        <pt x="303" y="497" on="1"/>
        <pt x="394" y="497" on="0"/>
        <pt x="514" y="477" on="1"/>
      </contour>
      <contour>
        <pt x="406" y="164" on="1"/>
        <pt x="445" y="439" on="1"/>
        <pt x="339" y="443" on="0"/>
        <pt x="321" y="443" on="1"/>
        <pt x="275" y="443" on="0"/>
        <pt x="218" y="433" on="0"/>
        <pt x="174" y="411" on="0"/>
        <pt x="147" y="361" on="0"/>
        <pt x="129" y="296" on="0"/>
        <pt x="121" y="241" on="1"/>
        <pt x="104" y="127" on="0"/>
        <pt x="132" y="44" on="0"/>
        <pt x="190" y="44" on="1"/>
        <pt x="288" y="44" on="0"/>
      </contour>
    </TTGlyph>
    <TTGlyph name="acute" xMin="102" yMin="542" xMax="318" yMax="719">
      <contour>
        <pt x="318" y="670" on="1"/>
        <pt x="124" y="542" on="1"/>
        <pt x="102" y="572" on="1"/>
        <pt x="286" y="719" on="1"/>
      </contour>
    </TTGlyph>
    <TTGlyph name="adieresis" xMin="58" yMin="-12" xMax="514" yMax="684">
      <contour>
        <pt x="254" y="590" on="1"/>
        <pt x="233" y="590" on="1"/>
        <pt x="213" y="590" on="0"/>
        <pt x="216" y="609" on="1"/>
        <pt x="224" y="664" on="1"/>
        <pt x="227" y="684" on="0"/>
        <pt x="247" y="684" on="1"/>
        <pt x="267" y="684" on="1"/>
        <pt x="287" y="684" on="0"/>
        <pt x="284" y="664" on="1"/>
        <pt x="276" y="610" on="1"/>
        <pt x="273" y="590" on="0"/>
      </contour>
      <contour>
        <pt x="426" y="590" on="1"/>
        <pt x="405" y="590" on="1"/>
        <pt x="385" y="590" on="0"/>
        <pt x="388" y="609" on="1"/>
        <pt x="396" y="664" on="1"/>
        <pt x="399" y="684" on="0"/>
        <pt x="419" y="684" on="1"/>
        <pt x="438" y="684" on="1"/>
        <pt x="459" y="684" on="0"/>
        <pt x="456" y="664" on="1"/>
        <pt x="447" y="610" on="1"/>
        <pt x="446" y="590" on="0"/>
      </contour>
      <contour>
        <pt x="446" y="0" on="1"/>
        <pt x="397" y="0" on="1"/>
        <pt x="406" y="109" on="1"/>
        <pt x="358" y="54" on="0"/>
        <pt x="239" y="-12" on="0"/>
        <pt x="180" y="-12" on="1"/>
        <pt x="91" y="-12" on="0"/>
        <pt x="37" y="105" on="0"/>
        <pt x="58" y="246" on="1"/>
        <pt x="70" y="326" on="0"/>
        <pt x="105" y="424" on="0"/>
        <pt x="167" y="478" on="0"/>
        <pt x="243" y="497" on="0"/>
        <pt x="303" y="497" on="1"/>
        <pt x="394" y="497" on="0"/>
        <pt x="514" y="477" on="1"/>
      </contour>
      <contour>
        <pt x="406" y="164" on="1"/>
        <pt x="445" y="439" on="1"/>
        <pt x="339" y="443" on="0"/>
        <pt x="321" y="443" on="1"/>
        <pt x="275" y="443" on="0"/>
        <pt x="218" y="433" on="0"/>
        <pt x="174" y="411" on="0"/>
        <pt x="147" y="361" on="0"/>
        <pt x="129" y="296" on="0"/>
        <pt x="121" y="241" on="1"/>
        <pt x="104" y="127" on="0"/>
        <pt x="132" y="44" on="0"/>
        <pt x="190" y="44" on="1"/>
        <pt x="288" y="44" on="0"/>
      </contour>
    </TTGlyph>
    <TTGlyph name="ae" xMin="56" yMin="-12" xMax="826" yMax="497">
      <contour>
        <pt x="769" y="55" on="1"/>
        <pt x="774" y="12" on="1"/>
        <pt x="708" y="-12" on="0"/>
        <pt x="581" y="-12" on="1"/>
        <pt x="498" y="-12" on="0"/>
        <pt x="406" y="44" on="0"/>
        <pt x="392" y="104" on="1"/>
        <pt x="295" y="-12" on="0"/>
        <pt x="173" y="-12" on="1"/>
        <pt x="88" y="-12" on="0"/>
        <pt x="36" y="110" on="0"/>
        <pt x="56" y="246" on="1"/>
        <pt x="68" y="326" on="0"/>
        <pt x="104" y="424" on="0"/>
        <pt x="166" y="478" on="0"/>
        <pt x="240" y="497" on="0"/>
        <pt x="299" y="497" on="1"/>
        <pt x="397" y="497" on="0"/>
        <pt x="514" y="475" on="1"/>
        <pt x="564" y="497" on="0"/>
        <pt x="652" y="497" on="1"/>
        <pt x="758" y="497" on="0"/>
        <pt x="842" y="424" on="0"/>
        <pt x="826" y="344" on="1"/>
        <pt x="814" y="279" on="0"/>
        <pt x="734" y="223" on="0"/>
        <pt x="650" y="215" on="1"/>
        <pt x="452" y="196" on="1"/>
        <pt x="446" y="106" on="0"/>
        <pt x="512" y="42" on="0"/>
        <pt x="594" y="42" on="1"/>
        <pt x="665" y="42" on="0"/>
      </contour>
      <contour>
        <pt x="185" y="44" on="1"/>
        <pt x="278" y="44" on="0"/>
        <pt x="386" y="154" on="1"/>
        <pt x="384" y="197" on="0"/>
        <pt x="392" y="251" on="1"/>
        <pt x="411" y="382" on="0"/>
        <pt x="459" y="435" on="1"/>
        <pt x="341" y="443" on="0"/>
        <pt x="316" y="443" on="1"/>
        <pt x="211" y="443" on="0"/>
        <pt x="140" y="368" on="0"/>
        <pt x="121" y="241" on="1"/>
        <pt x="104" y="130" on="0"/>
        <pt x="130" y="44" on="0"/>
      </contour>
      <contour>
        <pt x="457" y="245" on="1"/>
        <pt x="650" y="264" on="1"/>
        <pt x="705" y="270" on="0"/>
        <pt x="753" y="305" on="0"/>
        <pt x="763" y="349" on="1"/>
        <pt x="775" y="408" on="0"/>
        <pt x="719" y="443" on="0"/>
        <pt x="647" y="443" on="1"/>
        <pt x="584" y="443" on="0"/>
        <pt x="515" y="415" on="0"/>
        <pt x="470" y="332" on="0"/>
        <pt x="458" y="249" on="1"/>
      </contour>
    </TTGlyph>
    <TTGlyph name="agrave" xMin="58" yMin="-12" xMax="514" yMax="726">
      <contour>
        <pt x="347" y="550" on="1"/>
        <pt x="180" y="681" on="1"/>
        <pt x="217" y="726" on="1"/>
        <pt x="372" y="579" on="1"/>
      </contour>
      <contour>
        <pt x="446" y="0" on="1"/>
        <pt x="397" y="0" on="1"/>
        <pt x="406" y="109" on="1"/>
        <pt x="358" y="54" on="0"/>
        <pt x="239" y="-12" on="0"/>
        <pt x="180" y="-12" on="1"/>
        <pt x="91" y="-12" on="0"/>
        <pt x="37" y="105" on="0"/>
        <pt x="58" y="246" on="1"/>
        <pt x="70" y="326" on="0"/>
        <pt x="105" y="424" on="0"/>
        <pt x="167" y="478" on="0"/>
        <pt x="243" y="497" on="0"/>
        <pt x="303" y="497" on="1"/>
        <pt x="394" y="497" on="0"/>
        <pt x="514" y="477" on="1"/>
      </contour>
      <contour>
        <pt x="406" y="164" on="1"/>
        <pt x="445" y="439" on="1"/>
        <pt x="339" y="443" on="0"/>
        <pt x="321" y="443" on="1"/>
        <pt x="275" y="443" on="0"/>
        <pt x="218" y="433" on="0"/>
        <pt x="174" y="411" on="0"/>
        <pt x="147" y="361" on="0"/>
        <pt x="129" y="296" on="0"/>
        <pt x="121" y="241" on="1"/>
        <pt x="104" y="127" on="0"/>
        <pt x="132" y="44" on="0"/>
        <pt x="190" y="44" on="1"/>
        <pt x="288" y="44" on="0"/>
      </contour>
    </TTGlyph>
    <TTGlyph name="amacron" xMin="58" yMin="-12" xMax="514" yMax="661">
      <contour>
        <pt x="468" y="612" on="1"/>
        <pt x="196" y="612" on="1"/>
        <pt x="203" y="661" on="1"/>
        <pt x="475" y="661" on="1"/>
      </contour>
      <contour>
        <pt x="446" y="0" on="1"/>
        <pt x="397" y="0" on="1"/>
        <pt x="406" y="109" on="1"/>
        <pt x="358" y="54" on="0"/>
        <pt x="239" y="-12" on="0"/>
        <pt x="180" y="-12" on="1"/>
        <pt x="91" y="-12" on="0"/>
        <pt x="37" y="105" on="0"/>
        <pt x="58" y="246" on="1"/>
        <pt x="70" y="326" on="0"/>
        <pt x="105" y="424" on="0"/>
        <pt x="167" y="478" on="0"/>
        <pt x="243" y="497" on="0"/>
        <pt x="303" y="497" on="1"/>
        <pt x="394" y="497" on="0"/>
        <pt x="514" y="477" on="1"/>
      </contour>
      <contour>
        <pt x="406" y="164" on="1"/>
        <pt x="445" y="439" on="1"/>
        <pt x="339" y="443" on="0"/>
        <pt x="321" y="443" on="1"/>
        <pt x="275" y="443" on="0"/>
        <pt x="218" y="433" on="0"/>
        <pt x="174" y="411" on="0"/>
        <pt x="147" y="361" on="0"/>
        <pt x="129" y="296" on="0"/>
        <pt x="121" y="241" on="1"/>
        <pt x="104" y="127" on="0"/>
        <pt x="132" y="44" on="0"/>
        <pt x="190" y="44" on="1"/>
        <pt x="288" y="44" on="0"/>
      </contour>
    </TTGlyph>
    <TTGlyph name="ampersand" xMin="48" yMin="-11" xMax="734" yMax="699">
      <contour>
        <pt x="726" y="332" on="1"/>
        <pt x="604" y="332" on="1"/>
        <pt x="587" y="221" on="0"/>
        <pt x="540" y="144" on="1"/>
        <pt x="491" y="64" on="0"/>
        <pt x="343" y="-9" on="0"/>
        <pt x="239" y="-11" on="1"/>
        <pt x="124" y="-13" on="0"/>
        <pt x="33" y="72" on="0"/>
        <pt x="48" y="177" on="1"/>
        <pt x="61" y="264" on="0"/>
        <pt x="150" y="353" on="0"/>
        <pt x="231" y="356" on="1"/>
        <pt x="232" y="360" on="1"/>
        <pt x="164" y="365" on="0"/>
        <pt x="116" y="448" on="0"/>
        <pt x="128" y="524" on="1"/>
        <pt x="146" y="628" on="0"/>
        <pt x="261" y="699" on="0"/>
        <pt x="383" y="699" on="1"/>
        <pt x="472" y="699" on="0"/>
        <pt x="547" y="677" on="1"/>
        <pt x="536" y="629" on="1"/>
        <pt x="473" y="644" on="0"/>
        <pt x="384" y="644" on="1"/>
        <pt x="286" y="644" on="0"/>
        <pt x="206" y="593" on="0"/>
        <pt x="193" y="512" on="1"/>
        <pt x="180" y="437" on="0"/>
        <pt x="242" y="383" on="0"/>
        <pt x="332" y="383" on="1"/>
        <pt x="552" y="383" on="1"/>
        <pt x="558" y="442" on="0"/>
        <pt x="556" y="521" on="1"/>
        <pt x="615" y="521" on="1"/>
        <pt x="615" y="436" on="0"/>
        <pt x="610" y="383" on="1"/>
        <pt x="734" y="383" on="1"/>
      </contour>
      <contour>
        <pt x="545" y="332" on="1"/>
        <pt x="326" y="332" on="1"/>
        <pt x="223" y="331" on="0"/>
        <pt x="133" y="272" on="0"/>
        <pt x="118" y="181" on="1"/>
        <pt x="104" y="102" on="0"/>
        <pt x="161" y="46" on="0"/>
        <pt x="235" y="46" on="1"/>
        <pt x="326" y="46" on="0"/>
        <pt x="447" y="107" on="0"/>
        <pt x="487" y="170" on="1"/>
        <pt x="529" y="233" on="0"/>
      </contour>
    </TTGlyph>
    <TTGlyph name="aogonek" xMin="58" yMin="-201" xMax="514" yMax="497">
      <contour>
        <pt x="514" y="477" on="1"/>
        <pt x="446" y="0" on="1"/>
        <pt x="386" y="-58" on="0"/>
        <pt x="352" y="-121" on="1"/>
        <pt x="331" y="-160" on="0"/>
        <pt x="373" y="-184" on="0"/>
        <pt x="426" y="-166" on="1"/>
        <pt x="434" y="-194" on="1"/>
        <pt x="343" y="-227" on="0"/>
        <pt x="276" y="-174" on="0"/>
        <pt x="304" y="-117" on="1"/>
        <pt x="336" y="-58" on="0"/>
        <pt x="411" y="0" on="1"/>
        <pt x="397" y="0" on="1"/>
        <pt x="406" y="109" on="1"/>
        <pt x="358" y="54" on="0"/>
        <pt x="239" y="-12" on="0"/>
        <pt x="180" y="-12" on="1"/>
        <pt x="91" y="-12" on="0"/>
        <pt x="37" y="105" on="0"/>
        <pt x="58" y="246" on="1"/>
        <pt x="70" y="326" on="0"/>
        <pt x="105" y="424" on="0"/>
        <pt x="167" y="478" on="0"/>
        <pt x="243" y="497" on="0"/>
        <pt x="303" y="497" on="1"/>
        <pt x="394" y="497" on="0"/>
      </contour>
      <contour>
        <pt x="406" y="164" on="1"/>
        <pt x="445" y="439" on="1"/>
        <pt x="339" y="443" on="0"/>
        <pt x="321" y="443" on="1"/>
        <pt x="275" y="443" on="0"/>
        <pt x="218" y="433" on="0"/>
        <pt x="174" y="411" on="0"/>
        <pt x="147" y="361" on="0"/>
        <pt x="129" y="296" on="0"/>
        <pt x="121" y="241" on="1"/>
        <pt x="104" y="127" on="0"/>
        <pt x="132" y="44" on="0"/>
        <pt x="190" y="44" on="1"/>
        <pt x="288" y="44" on="0"/>
      </contour>
    </TTGlyph>
    <TTGlyph name="approxequal" xMin="59" yMin="140" xMax="529" yMax="442">
      <contour>
        <pt x="129" y="332" on="1"/>
        <pt x="86" y="335" on="1"/>
        <pt x="91" y="444" on="0"/>
        <pt x="186" y="442" on="1"/>
        <pt x="225" y="441" on="0"/>
        <pt x="387" y="382" on="0"/>
        <pt x="425" y="381" on="1"/>
        <pt x="452" y="380" on="0"/>
        <pt x="480" y="404" on="0"/>
        <pt x="485" y="438" on="1"/>
        <pt x="529" y="435" on="1"/>
        <pt x="526" y="381" on="0"/>
        <pt x="477" y="330" on="0"/>
        <pt x="426" y="331" on="1"/>
        <pt x="382" y="331" on="0"/>
        <pt x="223" y="392" on="0"/>
        <pt x="189" y="393" on="1"/>
        <pt x="162" y="393" on="0"/>
        <pt x="134" y="367" on="0"/>
      </contour>
      <contour>
        <pt x="102" y="141" on="1"/>
        <pt x="59" y="144" on="1"/>
        <pt x="61" y="202" on="0"/>
        <pt x="114" y="253" on="0"/>
        <pt x="159" y="251" on="1"/>
        <pt x="198" y="250" on="0"/>
        <pt x="360" y="191" on="0"/>
        <pt x="398" y="190" on="1"/>
        <pt x="425" y="189" on="0"/>
        <pt x="453" y="213" on="0"/>
        <pt x="458" y="247" on="1"/>
        <pt x="502" y="245" on="1"/>
        <pt x="499" y="190" on="0"/>
        <pt x="451" y="139" on="0"/>
        <pt x="400" y="140" on="1"/>
        <pt x="356" y="141" on="0"/>
        <pt x="196" y="201" on="0"/>
        <pt x="162" y="202" on="1"/>
        <pt x="135" y="202" on="0"/>
        <pt x="107" y="176" on="0"/>
      </contour>
    </TTGlyph>
    <TTGlyph name="aring" xMin="58" yMin="-12" xMax="514" yMax="738">
      <contour>
        <pt x="329" y="536" on="1"/>
        <pt x="282" y="536" on="0"/>
        <pt x="228" y="595" on="0"/>
        <pt x="233" y="640" on="1"/>
        <pt x="238" y="681" on="0"/>
        <pt x="298" y="738" on="0"/>
        <pt x="343" y="738" on="1"/>
        <pt x="389" y="738" on="0"/>
        <pt x="444" y="678" on="0"/>
        <pt x="439" y="634" on="1"/>
        <pt x="433" y="593" on="0"/>
        <pt x="374" y="536" on="0"/>
      </contour>
      <contour>
        <pt x="274" y="665" on="0"/>
        <pt x="268" y="607" on="0"/>
        <pt x="301" y="571" on="0"/>
        <pt x="329" y="571" on="1"/>
        <pt x="358" y="571" on="0"/>
        <pt x="398" y="609" on="0"/>
        <pt x="401" y="639" on="1"/>
        <pt x="404" y="667" on="0"/>
        <pt x="372" y="703" on="0"/>
        <pt x="314" y="703" on="0"/>
      </contour>
      <contour>
        <pt x="446" y="0" on="1"/>
        <pt x="397" y="0" on="1"/>
        <pt x="406" y="109" on="1"/>
        <pt x="358" y="54" on="0"/>
        <pt x="239" y="-12" on="0"/>
        <pt x="180" y="-12" on="1"/>
        <pt x="91" y="-12" on="0"/>
        <pt x="37" y="105" on="0"/>
        <pt x="58" y="246" on="1"/>
        <pt x="70" y="326" on="0"/>
        <pt x="105" y="424" on="0"/>
        <pt x="167" y="478" on="0"/>
        <pt x="243" y="497" on="0"/>
        <pt x="303" y="497" on="1"/>
        <pt x="394" y="497" on="0"/>
        <pt x="514" y="477" on="1"/>
      </contour>
      <contour>
        <pt x="406" y="164" on="1"/>
        <pt x="445" y="439" on="1"/>
        <pt x="339" y="443" on="0"/>
        <pt x="321" y="443" on="1"/>
        <pt x="275" y="443" on="0"/>
        <pt x="218" y="433" on="0"/>
        <pt x="174" y="411" on="0"/>
        <pt x="147" y="361" on="0"/>
        <pt x="129" y="296" on="0"/>
        <pt x="121" y="241" on="1"/>
        <pt x="104" y="127" on="0"/>
        <pt x="132" y="44" on="0"/>
        <pt x="190" y="44" on="1"/>
        <pt x="288" y="44" on="0"/>
      </contour>
    </TTGlyph>
    <TTGlyph name="asciicircum" xMin="50" yMin="367" xMax="405" yMax="591">
      <contour>
        <pt x="405" y="385" on="1"/>
        <pt x="376" y="367" on="1"/>
        <pt x="257" y="544" on="1"/>
        <pt x="249" y="544" on="1"/>
        <pt x="76" y="367" on="1"/>
        <pt x="50" y="386" on="1"/>
        <pt x="233" y="591" on="1"/>
        <pt x="279" y="591" on="1"/>
      </contour>
    </TTGlyph>
    <TTGlyph name="asciitilde" xMin="71" yMin="231" xMax="453" yMax="341">
      <contour>
        <pt x="105" y="231" on="1"/>
        <pt x="71" y="234" on="1"/>
        <pt x="74" y="289" on="0"/>
        <pt x="122" y="343" on="0"/>
        <pt x="158" y="341" on="1"/>
        <pt x="199" y="339" on="0"/>
        <pt x="325" y="282" on="0"/>
        <pt x="357" y="279" on="1"/>
        <pt x="386" y="277" on="0"/>
        <pt x="414" y="305" on="0"/>
        <pt x="419" y="338" on="1"/>
        <pt x="453" y="335" on="1"/>
        <pt x="451" y="283" on="0"/>
        <pt x="402" y="228" on="0"/>
        <pt x="366" y="231" on="1"/>
        <pt x="318" y="233" on="0"/>
        <pt x="194" y="290" on="0"/>
        <pt x="167" y="292" on="1"/>
        <pt x="138" y="295" on="0"/>
        <pt x="110" y="265" on="0"/>
      </contour>
    </TTGlyph>
    <TTGlyph name="asterisk" xMin="94" yMin="379" xMax="426" yMax="690">
      <contour>
        <pt x="271" y="532" on="1"/>
        <pt x="352" y="403" on="1"/>
        <pt x="317" y="379" on="1"/>
        <pt x="255" y="504" on="1"/>
        <pt x="157" y="380" on="1"/>
        <pt x="126" y="406" on="1"/>
        <pt x="242" y="533" on="1"/>
        <pt x="259" y="690" on="1"/>
        <pt x="300" y="690" on="1"/>
      </contour>
      <contour>
        <pt x="228" y="553" on="1"/>
        <pt x="225" y="535" on="1"/>
        <pt x="216" y="523" on="1"/>
        <pt x="94" y="559" on="1"/>
        <pt x="111" y="598" on="1"/>
      </contour>
      <contour>
        <pt x="426" y="556" on="1"/>
        <pt x="297" y="523" on="1"/>
        <pt x="290" y="535" on="1"/>
        <pt x="291" y="553" on="1"/>
        <pt x="418" y="597" on="1"/>
      </contour>
    </TTGlyph>
    <TTGlyph name="at" xMin="62" yMin="-12" xMax="694" yMax="632">
      <contour>
        <pt x="117" y="578" on="1"/>
        <pt x="122" y="625" on="1"/>
        <pt x="239" y="630" on="0"/>
        <pt x="426" y="632" on="1"/>
        <pt x="494" y="632" on="0"/>
        <pt x="578" y="625" on="0"/>
        <pt x="648" y="599" on="0"/>
        <pt x="679" y="559" on="0"/>
        <pt x="696" y="482" on="0"/>
        <pt x="691" y="384" on="0"/>
        <pt x="681" y="309" on="1"/>
        <pt x="656" y="120" on="0"/>
        <pt x="580" y="-10" on="0"/>
        <pt x="487" y="-10" on="1"/>
        <pt x="380" y="-10" on="0"/>
        <pt x="390" y="103" on="1"/>
        <pt x="289" y="-12" on="0"/>
        <pt x="180" y="-12" on="1"/>
        <pt x="93" y="-12" on="0"/>
        <pt x="42" y="111" on="0"/>
        <pt x="62" y="226" on="1"/>
        <pt x="85" y="361" on="0"/>
        <pt x="187" y="448" on="0"/>
        <pt x="304" y="448" on="1"/>
        <pt x="374" y="448" on="0"/>
        <pt x="501" y="428" on="1"/>
        <pt x="452" y="103" on="1"/>
        <pt x="448" y="72" on="0"/>
        <pt x="466" y="45" on="0"/>
        <pt x="491" y="45" on="1"/>
        <pt x="551" y="45" on="0"/>
        <pt x="598" y="149" on="0"/>
        <pt x="621" y="314" on="1"/>
        <pt x="628" y="365" on="0"/>
        <pt x="636" y="433" on="0"/>
        <pt x="633" y="493" on="0"/>
        <pt x="627" y="527" on="0"/>
        <pt x="601" y="556" on="0"/>
        <pt x="576" y="568" on="0"/>
        <pt x="520" y="577" on="0"/>
        <pt x="470" y="578" on="0"/>
        <pt x="425" y="578" on="1"/>
      </contour>
      <contour>
        <pt x="398" y="164" on="1"/>
        <pt x="433" y="391" on="1"/>
        <pt x="362" y="395" on="0"/>
        <pt x="324" y="395" on="1"/>
        <pt x="215" y="395" on="0"/>
        <pt x="143" y="331" on="0"/>
        <pt x="124" y="221" on="1"/>
        <pt x="105" y="131" on="0"/>
        <pt x="133" y="42" on="0"/>
        <pt x="192" y="42" on="1"/>
        <pt x="288" y="42" on="0"/>
      </contour>
    </TTGlyph>
    <TTGlyph name="atilde" xMin="58" yMin="-12" xMax="514" yMax="694">
      <contour>
        <pt x="465" y="691" on="1"/>
        <pt x="497" y="688" on="1"/>
        <pt x="494" y="637" on="0"/>
        <pt x="446" y="584" on="0"/>
        <pt x="409" y="587" on="1"/>
        <pt x="371" y="590" on="0"/>
        <pt x="290" y="645" on="0"/>
        <pt x="271" y="648" on="1"/>
        <pt x="242" y="651" on="0"/>
        <pt x="212" y="621" on="0"/>
        <pt x="207" y="587" on="1"/>
        <pt x="176" y="590" on="1"/>
        <pt x="179" y="643" on="0"/>
        <pt x="228" y="697" on="0"/>
        <pt x="264" y="694" on="1"/>
        <pt x="296" y="691" on="0"/>
        <pt x="375" y="637" on="0"/>
        <pt x="401" y="634" on="1"/>
        <pt x="431" y="631" on="0"/>
        <pt x="460" y="659" on="0"/>
      </contour>
      <contour>
        <pt x="446" y="0" on="1"/>
        <pt x="397" y="0" on="1"/>
        <pt x="406" y="109" on="1"/>
        <pt x="358" y="54" on="0"/>
        <pt x="239" y="-12" on="0"/>
        <pt x="180" y="-12" on="1"/>
        <pt x="91" y="-12" on="0"/>
        <pt x="37" y="105" on="0"/>
        <pt x="58" y="246" on="1"/>
        <pt x="70" y="326" on="0"/>
        <pt x="105" y="424" on="0"/>
        <pt x="167" y="478" on="0"/>
        <pt x="243" y="497" on="0"/>
        <pt x="303" y="497" on="1"/>
        <pt x="394" y="497" on="0"/>
        <pt x="514" y="477" on="1"/>
      </contour>
      <contour>
        <pt x="406" y="164" on="1"/>
        <pt x="445" y="439" on="1"/>
        <pt x="339" y="443" on="0"/>
        <pt x="321" y="443" on="1"/>
        <pt x="275" y="443" on="0"/>
        <pt x="218" y="433" on="0"/>
        <pt x="174" y="411" on="0"/>
        <pt x="147" y="361" on="0"/>
        <pt x="129" y="296" on="0"/>
        <pt x="121" y="241" on="1"/>
        <pt x="104" y="127" on="0"/>
        <pt x="132" y="44" on="0"/>
        <pt x="190" y="44" on="1"/>
        <pt x="288" y="44" on="0"/>
      </contour>
    </TTGlyph>
    <TTGlyph name="b" xMin="42" yMin="-12" xMax="498" yMax="700">
      <contour>
        <pt x="147" y="371" on="1"/>
        <pt x="272" y="496" on="0"/>
        <pt x="372" y="496" on="1"/>
        <pt x="458" y="496" on="0"/>
        <pt x="518" y="384" on="0"/>
        <pt x="498" y="238" on="1"/>
        <pt x="487" y="158" on="0"/>
        <pt x="451" y="58" on="0"/>
        <pt x="391" y="6" on="0"/>
        <pt x="322" y="-12" on="0"/>
        <pt x="267" y="-12" on="1"/>
        <pt x="158" y="-12" on="0"/>
        <pt x="42" y="21" on="1"/>
        <pt x="138" y="700" on="1"/>
        <pt x="201" y="700" on="1"/>
        <pt x="172" y="499" on="1"/>
        <pt x="161" y="422" on="0"/>
      </contour>
      <contour>
        <pt x="148" y="324" on="1"/>
        <pt x="110" y="51" on="1"/>
        <pt x="190" y="41" on="0"/>
        <pt x="246" y="41" on="1"/>
        <pt x="347" y="41" on="0"/>
        <pt x="416" y="116" on="0"/>
        <pt x="433" y="243" on="1"/>
        <pt x="449" y="361" on="0"/>
        <pt x="418" y="440" on="0"/>
        <pt x="358" y="440" on="1"/>
        <pt x="281" y="440" on="0"/>
      </contour>
    </TTGlyph>
    <TTGlyph name="backslash" xMin="82" yMin="-63" xMax="423" yMax="690">
      <contour>
        <pt x="423" y="-63" on="1"/>
        <pt x="371" y="-63" on="1"/>
        <pt x="82" y="690" on="1"/>
        <pt x="134" y="690" on="1"/>
      </contour>
    </TTGlyph>
    <TTGlyph name="bar" xMin="32" yMin="-169" xMax="213" yMax="781">
      <contour>
        <pt x="79" y="-169" on="1"/>
        <pt x="32" y="-169" on="1"/>
        <pt x="165" y="781" on="1"/>
        <pt x="213" y="781" on="1"/>
      </contour>
    </TTGlyph>
    <TTGlyph name="braceleft" xMin="49" yMin="-165" xMax="332" yMax="768">
      <contour>
        <pt x="332" y="768" on="1"/>
        <pt x="329" y="727" on="1"/>
        <pt x="276" y="727" on="0"/>
        <pt x="226" y="682" on="0"/>
        <pt x="218" y="632" on="1"/>
        <pt x="192" y="444" on="1"/>
        <pt x="184" y="383" on="0"/>
        <pt x="145" y="339" on="0"/>
        <pt x="92" y="328" on="1"/>
        <pt x="141" y="310" on="0"/>
        <pt x="170" y="265" on="0"/>
        <pt x="163" y="213" on="1"/>
        <pt x="129" y="-32" on="1"/>
        <pt x="122" y="-82" on="0"/>
        <pt x="156" y="-124" on="0"/>
        <pt x="210" y="-124" on="1"/>
        <pt x="207" y="-165" on="1"/>
        <pt x="126" y="-169" on="0"/>
        <pt x="58" y="-103" on="0"/>
        <pt x="69" y="-33" on="1"/>
        <pt x="105" y="228" on="1"/>
        <pt x="110" y="264" on="0"/>
        <pt x="91" y="288" on="0"/>
        <pt x="56" y="301" on="1"/>
        <pt x="51" y="303" on="0"/>
        <pt x="49" y="304" on="1"/>
        <pt x="56" y="354" on="1"/>
        <pt x="99" y="366" on="0"/>
        <pt x="124" y="389" on="0"/>
        <pt x="130" y="435" on="1"/>
        <pt x="159" y="639" on="1"/>
        <pt x="169" y="710" on="0"/>
        <pt x="249" y="773" on="0"/>
      </contour>
    </TTGlyph>
    <TTGlyph name="braceright" xMin="-22" yMin="-165" xMax="271" yMax="768">
      <contour>
        <pt x="106" y="727" on="1"/>
        <pt x="109" y="768" on="1"/>
        <pt x="191" y="773" on="0"/>
        <pt x="258" y="705" on="0"/>
        <pt x="248" y="636" on="1"/>
        <pt x="219" y="432" on="1"/>
        <pt x="213" y="386" on="0"/>
        <pt x="230" y="365" on="0"/>
        <pt x="271" y="352" on="1"/>
        <pt x="264" y="302" on="1"/>
        <pt x="240" y="294" on="0"/>
        <pt x="223" y="286" on="0"/>
        <pt x="199" y="269" on="0"/>
        <pt x="190" y="245" on="0"/>
        <pt x="187" y="225" on="1"/>
        <pt x="150" y="-36" on="1"/>
        <pt x="140" y="-107" on="0"/>
        <pt x="62" y="-169" on="0"/>
        <pt x="-22" y="-165" on="1"/>
        <pt x="-19" y="-124" on="1"/>
        <pt x="34" y="-124" on="0"/>
        <pt x="83" y="-79" on="0"/>
        <pt x="90" y="-30" on="1"/>
        <pt x="124" y="216" on="1"/>
        <pt x="132" y="268" on="0"/>
        <pt x="172" y="311" on="0"/>
        <pt x="228" y="328" on="1"/>
        <pt x="180" y="339" on="0"/>
        <pt x="151" y="387" on="0"/>
        <pt x="161" y="447" on="1"/>
        <pt x="187" y="635" on="1"/>
        <pt x="194" y="685" on="0"/>
        <pt x="160" y="727" on="0"/>
      </contour>
    </TTGlyph>
    <TTGlyph name="bracketleft" xMin="37" yMin="-165" xMax="343" yMax="768">
      <contour>
        <pt x="337" y="724" on="1"/>
        <pt x="231" y="724" on="1"/>
        <pt x="217" y="724" on="0"/>
        <pt x="213" y="708" on="1"/>
        <pt x="99" y="-108" on="1"/>
        <pt x="97" y="-121" on="0"/>
        <pt x="109" y="-121" on="1"/>
        <pt x="218" y="-121" on="1"/>
        <pt x="212" y="-165" on="1"/>
        <pt x="78" y="-165" on="1"/>
        <pt x="57" y="-165" on="0"/>
        <pt x="34" y="-141" on="0"/>
        <pt x="37" y="-118" on="1"/>
        <pt x="155" y="724" on="1"/>
        <pt x="162" y="768" on="0"/>
        <pt x="205" y="768" on="1"/>
        <pt x="343" y="768" on="1"/>
      </contour>
    </TTGlyph>
    <TTGlyph name="bracketright" xMin="-22" yMin="-165" xMax="284" yMax="768">
      <contour>
        <pt x="109" y="768" on="1"/>
        <pt x="243" y="768" on="1"/>
        <pt x="263" y="768" on="0"/>
        <pt x="287" y="741" on="0"/>
        <pt x="284" y="721" on="1"/>
        <pt x="166" y="-121" on="1"/>
        <pt x="163" y="-141" on="0"/>
        <pt x="135" y="-165" on="0"/>
        <pt x="116" y="-165" on="1"/>
        <pt x="-22" y="-165" on="1"/>
        <pt x="-16" y="-121" on="1"/>
        <pt x="89" y="-121" on="1"/>
        <pt x="104" y="-121" on="0"/>
        <pt x="108" y="-105" on="1"/>
        <pt x="223" y="711" on="1"/>
        <pt x="225" y="724" on="0"/>
        <pt x="212" y="724" on="1"/>
        <pt x="103" y="724" on="1"/>
      </contour>
    </TTGlyph>
    <TTGlyph name="breve" xMin="102" yMin="562" xMax="392" yMax="695">
      <contour>
        <pt x="358" y="695" on="1"/>
        <pt x="392" y="686" on="1"/>
        <pt x="386" y="629" on="0"/>
        <pt x="301" y="562" on="0"/>
        <pt x="234" y="562" on="1"/>
        <pt x="164" y="562" on="0"/>
        <pt x="91" y="632" on="0"/>
        <pt x="102" y="689" on="1"/>
        <pt x="137" y="692" on="1"/>
        <pt x="132" y="653" on="0"/>
        <pt x="184" y="611" on="0"/>
        <pt x="234" y="611" on="1"/>
        <pt x="287" y="611" on="0"/>
        <pt x="354" y="656" on="0"/>
      </contour>
    </TTGlyph>
    <TTGlyph name="brevecy" xMin="102" yMin="562" xMax="392" yMax="692">
      <contour>
        <pt x="342" y="692" on="1"/>
        <pt x="392" y="692" on="1"/>
        <pt x="386" y="634" on="0"/>
        <pt x="301" y="562" on="0"/>
        <pt x="234" y="562" on="1"/>
        <pt x="164" y="562" on="0"/>
        <pt x="91" y="634" on="0"/>
        <pt x="102" y="692" on="1"/>
        <pt x="153" y="692" on="1"/>
        <pt x="138" y="599" on="0"/>
        <pt x="237" y="599" on="1"/>
        <pt x="330" y="599" on="0"/>
      </contour>
    </TTGlyph>
    <TTGlyph name="brokenbar" xMin="32" yMin="-169" xMax="213" yMax="781">
      <contour>
        <pt x="157" y="381" on="1"/>
        <pt x="109" y="381" on="1"/>
        <pt x="165" y="781" on="1"/>
        <pt x="213" y="781" on="1"/>
      </contour>
      <contour>
        <pt x="80" y="-169" on="1"/>
        <pt x="32" y="-169" on="1"/>
        <pt x="88" y="231" on="1"/>
        <pt x="136" y="231" on="1"/>
      </contour>
    </TTGlyph>
    <TTGlyph name="bullet" xMin="92" yMin="184" xMax="259" yMax="351">
      <contour>
        <pt x="181" y="351" on="1"/>
        <pt x="192" y="351" on="1"/>
        <pt x="234" y="351" on="0"/>
        <pt x="265" y="315" on="0"/>
        <pt x="259" y="273" on="1"/>
        <pt x="257" y="259" on="1"/>
        <pt x="252" y="215" on="0"/>
        <pt x="216" y="184" on="0"/>
        <pt x="172" y="184" on="1"/>
        <pt x="161" y="184" on="1"/>
        <pt x="117" y="184" on="0"/>
        <pt x="85" y="220" on="0"/>
        <pt x="92" y="264" on="1"/>
        <pt x="94" y="278" on="1"/>
        <pt x="100" y="321" on="0"/>
        <pt x="136" y="351" on="0"/>
      </contour>
    </TTGlyph>
    <TTGlyph name="c" xMin="52" yMin="-12" xMax="458" yMax="497">
      <contour>
        <pt x="401" y="54" on="1"/>
        <pt x="406" y="10" on="1"/>
        <pt x="334" y="-12" on="0"/>
        <pt x="247" y="-12" on="1"/>
        <pt x="121" y="-12" on="0"/>
        <pt x="32" y="106" on="0"/>
        <pt x="52" y="245" on="1"/>
        <pt x="71" y="384" on="0"/>
        <pt x="187" y="497" on="0"/>
        <pt x="310" y="497" on="1"/>
        <pt x="399" y="497" on="0"/>
        <pt x="458" y="475" on="1"/>
        <pt x="447" y="434" on="1"/>
        <pt x="394" y="442" on="0"/>
        <pt x="320" y="442" on="1"/>
        <pt x="222" y="442" on="0"/>
        <pt x="133" y="358" on="0"/>
        <pt x="118" y="240" on="1"/>
        <pt x="102" y="123" on="0"/>
        <pt x="162" y="43" on="0"/>
        <pt x="257" y="43" on="1"/>
        <pt x="342" y="43" on="0"/>
      </contour>
    </TTGlyph>
    <TTGlyph name="cacute" xMin="52" yMin="-12" xMax="460" yMax="727">
      <contour>
        <pt x="460" y="678" on="1"/>
        <pt x="266" y="550" on="1"/>
        <pt x="244" y="581" on="1"/>
        <pt x="427" y="727" on="1"/>
      </contour>
      <contour>
        <pt x="401" y="54" on="1"/>
        <pt x="406" y="10" on="1"/>
        <pt x="334" y="-12" on="0"/>
        <pt x="247" y="-12" on="1"/>
        <pt x="121" y="-12" on="0"/>
        <pt x="32" y="106" on="0"/>
        <pt x="52" y="245" on="1"/>
        <pt x="71" y="384" on="0"/>
        <pt x="187" y="497" on="0"/>
        <pt x="310" y="497" on="1"/>
        <pt x="399" y="497" on="0"/>
        <pt x="458" y="475" on="1"/>
        <pt x="447" y="434" on="1"/>
        <pt x="394" y="442" on="0"/>
        <pt x="320" y="442" on="1"/>
        <pt x="222" y="442" on="0"/>
        <pt x="133" y="358" on="0"/>
        <pt x="118" y="240" on="1"/>
        <pt x="102" y="123" on="0"/>
        <pt x="162" y="43" on="0"/>
        <pt x="257" y="43" on="1"/>
        <pt x="342" y="43" on="0"/>
      </contour>
    </TTGlyph>
    <TTGlyph name="caron" xMin="110" yMin="566" xMax="426" yMax="717">
      <contour>
        <pt x="426" y="689" on="1"/>
        <pt x="275" y="566" on="1"/>
        <pt x="228" y="566" on="1"/>
        <pt x="110" y="692" on="1"/>
        <pt x="136" y="717" on="1"/>
        <pt x="250" y="617" on="1"/>
        <pt x="258" y="617" on="1"/>
        <pt x="405" y="717" on="1"/>
      </contour>
    </TTGlyph>
    <TTGlyph name="ccaron" xMin="52" yMin="-12" xMax="478" yMax="717">
      <contour>
        <pt x="478" y="689" on="1"/>
        <pt x="327" y="566" on="1"/>
        <pt x="280" y="566" on="1"/>
        <pt x="162" y="693" on="1"/>
        <pt x="188" y="717" on="1"/>
        <pt x="302" y="617" on="1"/>
        <pt x="310" y="617" on="1"/>
        <pt x="457" y="717" on="1"/>
      </contour>
      <contour>
        <pt x="401" y="54" on="1"/>
        <pt x="406" y="10" on="1"/>
        <pt x="334" y="-12" on="0"/>
        <pt x="247" y="-12" on="1"/>
        <pt x="121" y="-12" on="0"/>
        <pt x="32" y="106" on="0"/>
        <pt x="52" y="245" on="1"/>
        <pt x="71" y="384" on="0"/>
        <pt x="187" y="497" on="0"/>
        <pt x="310" y="497" on="1"/>
        <pt x="399" y="497" on="0"/>
        <pt x="458" y="475" on="1"/>
        <pt x="447" y="434" on="1"/>
        <pt x="394" y="442" on="0"/>
        <pt x="320" y="442" on="1"/>
        <pt x="222" y="442" on="0"/>
        <pt x="133" y="358" on="0"/>
        <pt x="118" y="240" on="1"/>
        <pt x="102" y="123" on="0"/>
        <pt x="162" y="43" on="0"/>
        <pt x="257" y="43" on="1"/>
        <pt x="342" y="43" on="0"/>
      </contour>
    </TTGlyph>
    <TTGlyph name="ccedilla" xMin="52" yMin="-238" xMax="458" yMax="497">
      <contour>
        <pt x="401" y="54" on="1"/>
        <pt x="406" y="10" on="1"/>
        <pt x="334" y="-12" on="0"/>
        <pt x="247" y="-12" on="1"/>
        <pt x="121" y="-12" on="0"/>
        <pt x="32" y="106" on="0"/>
        <pt x="52" y="245" on="1"/>
        <pt x="71" y="384" on="0"/>
        <pt x="187" y="497" on="0"/>
        <pt x="310" y="497" on="1"/>
        <pt x="399" y="497" on="0"/>
        <pt x="458" y="475" on="1"/>
        <pt x="447" y="434" on="1"/>
        <pt x="394" y="442" on="0"/>
        <pt x="320" y="442" on="1"/>
        <pt x="222" y="442" on="0"/>
        <pt x="133" y="358" on="0"/>
        <pt x="118" y="240" on="1"/>
        <pt x="102" y="123" on="0"/>
        <pt x="162" y="43" on="0"/>
        <pt x="257" y="43" on="1"/>
        <pt x="342" y="43" on="0"/>
      </contour>
      <contour>
        <pt x="183" y="-88" on="1"/>
        <pt x="190" y="-57" on="1"/>
        <pt x="243" y="-52" on="0"/>
        <pt x="290" y="-83" on="0"/>
        <pt x="283" y="-125" on="1"/>
        <pt x="273" y="-183" on="0"/>
        <pt x="178" y="-247" on="0"/>
        <pt x="111" y="-238" on="1"/>
        <pt x="123" y="-203" on="1"/>
        <pt x="166" y="-204" on="0"/>
        <pt x="230" y="-159" on="0"/>
        <pt x="236" y="-124" on="1"/>
        <pt x="239" y="-103" on="0"/>
        <pt x="218" y="-89" on="0"/>
      </contour>
    </TTGlyph>
    <TTGlyph name="cdotaccent" xMin="52" yMin="-12" xMax="458" yMax="684">
      <contour>
        <pt x="306" y="684" on="1"/>
        <pt x="328" y="684" on="1"/>
        <pt x="350" y="684" on="0"/>
        <pt x="347" y="662" on="1"/>
        <pt x="339" y="604" on="1"/>
        <pt x="336" y="584" on="0"/>
        <pt x="317" y="584" on="1"/>
        <pt x="296" y="584" on="1"/>
        <pt x="273" y="584" on="0"/>
        <pt x="276" y="606" on="1"/>
        <pt x="284" y="664" on="1"/>
        <pt x="287" y="684" on="0"/>
      </contour>
      <contour>
        <pt x="401" y="54" on="1"/>
        <pt x="406" y="10" on="1"/>
        <pt x="334" y="-12" on="0"/>
        <pt x="247" y="-12" on="1"/>
        <pt x="121" y="-12" on="0"/>
        <pt x="32" y="106" on="0"/>
        <pt x="52" y="245" on="1"/>
        <pt x="71" y="384" on="0"/>
        <pt x="187" y="497" on="0"/>
        <pt x="310" y="497" on="1"/>
        <pt x="399" y="497" on="0"/>
        <pt x="458" y="475" on="1"/>
        <pt x="447" y="434" on="1"/>
        <pt x="394" y="442" on="0"/>
        <pt x="320" y="442" on="1"/>
        <pt x="222" y="442" on="0"/>
        <pt x="133" y="358" on="0"/>
        <pt x="118" y="240" on="1"/>
        <pt x="102" y="123" on="0"/>
        <pt x="162" y="43" on="0"/>
        <pt x="257" y="43" on="1"/>
        <pt x="342" y="43" on="0"/>
      </contour>
    </TTGlyph>
    <TTGlyph name="cedilla" xMin="-28" yMin="-226" xMax="144" yMax="-45">
      <contour>
        <pt x="44" y="-76" on="1"/>
        <pt x="52" y="-45" on="1"/>
        <pt x="106" y="-40" on="0"/>
        <pt x="151" y="-71" on="0"/>
        <pt x="144" y="-113" on="1"/>
        <pt x="135" y="-171" on="0"/>
        <pt x="40" y="-235" on="0"/>
        <pt x="-28" y="-226" on="1"/>
        <pt x="-16" y="-191" on="1"/>
        <pt x="28" y="-192" on="0"/>
        <pt x="91" y="-147" on="0"/>
        <pt x="97" y="-112" on="1"/>
        <pt x="100" y="-91" on="0"/>
        <pt x="79" y="-77" on="0"/>
      </contour>
    </TTGlyph>
    <TTGlyph name="cent" xMin="67" yMin="0" xMax="473" yMax="690">
      <contour>
        <pt x="473" y="581" on="1"/>
        <pt x="462" y="541" on="1"/>
        <pt x="404" y="548" on="0"/>
        <pt x="353" y="548" on="1"/>
        <pt x="267" y="149" on="1"/>
        <pt x="272" y="149" on="1"/>
        <pt x="350" y="149" on="0"/>
        <pt x="416" y="160" on="1"/>
        <pt x="421" y="116" on="1"/>
        <pt x="346" y="94" on="0"/>
        <pt x="262" y="94" on="1"/>
        <pt x="253" y="94" on="1"/>
        <pt x="232" y="0" on="1"/>
        <pt x="197" y="0" on="1"/>
        <pt x="219" y="96" on="1"/>
        <pt x="119" y="105" on="0"/>
        <pt x="49" y="224" on="0"/>
        <pt x="67" y="352" on="1"/>
        <pt x="87" y="491" on="0"/>
        <pt x="203" y="603" on="0"/>
        <pt x="325" y="603" on="1"/>
        <pt x="332" y="603" on="1"/>
        <pt x="351" y="690" on="1"/>
        <pt x="386" y="690" on="1"/>
        <pt x="366" y="601" on="1"/>
        <pt x="431" y="597" on="0"/>
      </contour>
      <contour>
        <pt x="232" y="150" on="1"/>
        <pt x="318" y="548" on="1"/>
        <pt x="230" y="545" on="0"/>
        <pt x="148" y="460" on="0"/>
        <pt x="133" y="347" on="1"/>
        <pt x="119" y="242" on="0"/>
        <pt x="163" y="157" on="0"/>
      </contour>
    </TTGlyph>
    <TTGlyph name="circumflex" xMin="98" yMin="557" xMax="415" yMax="710">
      <contour>
        <pt x="415" y="583" on="1"/>
        <pt x="391" y="557" on="1"/>
        <pt x="273" y="658" on="1"/>
        <pt x="264" y="658" on="1"/>
        <pt x="117" y="558" on="1"/>
        <pt x="98" y="586" on="1"/>
        <pt x="247" y="710" on="1"/>
        <pt x="293" y="710" on="1"/>
      </contour>
    </TTGlyph>
    <TTGlyph name="colon" xMin="50" yMin="0" xMax="176" yMax="437">
      <contour>
        <pt x="132" y="437" on="1"/>
        <pt x="154" y="437" on="1"/>
        <pt x="180" y="437" on="0"/>
        <pt x="176" y="410" on="1"/>
        <pt x="168" y="353" on="1"/>
        <pt x="165" y="330" on="0"/>
        <pt x="142" y="330" on="1"/>
        <pt x="120" y="330" on="1"/>
        <pt x="92" y="330" on="0"/>
        <pt x="97" y="356" on="1"/>
        <pt x="105" y="413" on="1"/>
        <pt x="108" y="437" on="0"/>
      </contour>
      <contour>
        <pt x="85" y="107" on="1"/>
        <pt x="107" y="107" on="1"/>
        <pt x="134" y="107" on="0"/>
        <pt x="129" y="81" on="1"/>
        <pt x="121" y="23" on="1"/>
        <pt x="118" y="0" on="0"/>
        <pt x="95" y="0" on="1"/>
        <pt x="73" y="0" on="1"/>
        <pt x="47" y="0" on="0"/>
        <pt x="50" y="26" on="1"/>
        <pt x="59" y="83" on="1"/>
        <pt x="62" y="107" on="0"/>
      </contour>
    </TTGlyph>
    <TTGlyph name="comma" xMin="26" yMin="-127" xMax="116" yMax="107">
      <contour>
        <pt x="75" y="107" on="1"/>
        <pt x="96" y="107" on="1"/>
        <pt x="120" y="107" on="0"/>
        <pt x="116" y="82" on="1"/>
        <pt x="107" y="17" on="1"/>
        <pt x="98" y="-50" on="0"/>
        <pt x="58" y="-127" on="1"/>
        <pt x="26" y="-116" on="1"/>
        <pt x="48" y="-41" on="0"/>
        <pt x="55" y="1" on="1"/>
        <pt x="34" y="1" on="0"/>
        <pt x="37" y="23" on="1"/>
        <pt x="46" y="83" on="1"/>
        <pt x="48" y="97" on="0"/>
        <pt x="60" y="107" on="0"/>
      </contour>
    </TTGlyph>
    <TTGlyph name="copyright" xMin="71" yMin="-12" xMax="786" yMax="702">
      <contour>
        <pt x="471" y="702" on="1"/>
        <pt x="628" y="702" on="0"/>
        <pt x="807" y="502" on="0"/>
        <pt x="786" y="342" on="1"/>
        <pt x="766" y="186" on="0"/>
        <pt x="549" y="-12" on="0"/>
        <pt x="385" y="-12" on="1"/>
        <pt x="227" y="-12" on="0"/>
        <pt x="50" y="190" on="0"/>
        <pt x="71" y="348" on="1"/>
        <pt x="91" y="503" on="0"/>
        <pt x="307" y="702" on="0"/>
      </contour>
      <contour>
        <pt x="473" y="667" on="1"/>
        <pt x="325" y="667" on="0"/>
        <pt x="126" y="486" on="0"/>
        <pt x="107" y="342" on="1"/>
        <pt x="89" y="199" on="0"/>
        <pt x="247" y="23" on="0"/>
        <pt x="384" y="23" on="1"/>
        <pt x="532" y="23" on="0"/>
        <pt x="731" y="204" on="0"/>
        <pt x="749" y="348" on="1"/>
        <pt x="768" y="489" on="0"/>
        <pt x="612" y="667" on="0"/>
      </contour>
      <contour>
        <pt x="547" y="174" on="1"/>
        <pt x="550" y="137" on="1"/>
        <pt x="485" y="123" on="0"/>
        <pt x="411" y="123" on="1"/>
        <pt x="297" y="123" on="0"/>
        <pt x="222" y="224" on="0"/>
        <pt x="239" y="350" on="1"/>
        <pt x="256" y="475" on="0"/>
        <pt x="357" y="572" on="0"/>
        <pt x="467" y="572" on="1"/>
        <pt x="540" y="572" on="0"/>
        <pt x="596" y="559" on="1"/>
        <pt x="588" y="523" on="1"/>
        <pt x="536" y="528" on="0"/>
        <pt x="472" y="528" on="1"/>
        <pt x="381" y="528" on="0"/>
        <pt x="305" y="454" on="0"/>
        <pt x="289" y="345" on="1"/>
        <pt x="275" y="245" on="0"/>
        <pt x="324" y="168" on="0"/>
        <pt x="404" y="168" on="1"/>
        <pt x="497" y="168" on="0"/>
      </contour>
    </TTGlyph>
    <TTGlyph name="currency" xMin="58" yMin="119" xMax="552" yMax="590">
      <contour>
        <pt x="552" y="545" on="1"/>
        <pt x="474" y="476" on="1"/>
        <pt x="509" y="424" on="0"/>
        <pt x="500" y="349" on="1"/>
        <pt x="493" y="275" on="0"/>
        <pt x="446" y="224" on="1"/>
        <pt x="515" y="146" on="1"/>
        <pt x="484" y="119" on="1"/>
        <pt x="416" y="197" on="1"/>
        <pt x="361" y="158" on="0"/>
        <pt x="287" y="158" on="1"/>
        <pt x="212" y="158" on="0"/>
        <pt x="164" y="201" on="1"/>
        <pt x="86" y="132" on="1"/>
        <pt x="58" y="163" on="1"/>
        <pt x="137" y="232" on="1"/>
        <pt x="104" y="284" on="0"/>
        <pt x="113" y="355" on="1"/>
        <pt x="122" y="434" on="0"/>
        <pt x="169" y="484" on="1"/>
        <pt x="102" y="561" on="1"/>
        <pt x="132" y="590" on="1"/>
        <pt x="201" y="511" on="1"/>
        <pt x="253" y="547" on="0"/>
        <pt x="399" y="547" on="0"/>
        <pt x="447" y="507" on="1"/>
        <pt x="525" y="577" on="1"/>
      </contour>
      <contour>
        <pt x="284" y="197" on="1"/>
        <pt x="356" y="195" on="0"/>
        <pt x="452" y="282" on="0"/>
        <pt x="460" y="355" on="1"/>
        <pt x="467" y="423" on="0"/>
        <pt x="395" y="508" on="0"/>
        <pt x="326" y="508" on="1"/>
        <pt x="253" y="508" on="0"/>
        <pt x="161" y="421" on="0"/>
        <pt x="153" y="349" on="1"/>
        <pt x="146" y="281" on="0"/>
        <pt x="217" y="198" on="0"/>
      </contour>
    </TTGlyph>
    <TTGlyph name="d" xMin="57" yMin="-12" xMax="544" yMax="700">
      <contour>
        <pt x="544" y="700" on="1"/>
        <pt x="445" y="0" on="1"/>
        <pt x="396" y="0" on="1"/>
        <pt x="405" y="113" on="1"/>
        <pt x="290" y="-12" on="0"/>
        <pt x="169" y="-12" on="1"/>
        <pt x="90" y="-12" on="0"/>
        <pt x="37" y="109" on="0"/>
        <pt x="57" y="246" on="1"/>
        <pt x="68" y="326" on="0"/>
        <pt x="104" y="424" on="0"/>
        <pt x="165" y="478" on="0"/>
        <pt x="239" y="497" on="0"/>
        <pt x="297" y="497" on="1"/>
        <pt x="367" y="497" on="0"/>
        <pt x="454" y="485" on="1"/>
        <pt x="457" y="538" on="0"/>
        <pt x="463" y="578" on="1"/>
        <pt x="480" y="700" on="1"/>
      </contour>
      <contour>
        <pt x="406" y="165" on="1"/>
        <pt x="443" y="440" on="1"/>
        <pt x="339" y="444" on="0"/>
        <pt x="318" y="444" on="1"/>
        <pt x="211" y="444" on="0"/>
        <pt x="139" y="370" on="0"/>
        <pt x="121" y="241" on="1"/>
        <pt x="104" y="132" on="0"/>
        <pt x="130" y="44" on="0"/>
        <pt x="185" y="44" on="1"/>
        <pt x="282" y="44" on="0"/>
      </contour>
    </TTGlyph>
    <TTGlyph name="dagger" xMin="63" yMin="-110" xMax="423" yMax="691">
      <contour>
        <pt x="192" y="-110" on="1"/>
        <pt x="134" y="-110" on="1"/>
        <pt x="214" y="445" on="1"/>
        <pt x="219" y="480" on="1"/>
        <pt x="246" y="691" on="1"/>
        <pt x="305" y="691" on="1"/>
        <pt x="273" y="480" on="1"/>
        <pt x="268" y="445" on="1"/>
      </contour>
      <contour>
        <pt x="63" y="427" on="1"/>
        <pt x="71" y="484" on="1"/>
        <pt x="203" y="484" on="1"/>
        <pt x="196" y="435" on="1"/>
      </contour>
      <contour>
        <pt x="423" y="484" on="1"/>
        <pt x="415" y="427" on="1"/>
        <pt x="284" y="435" on="1"/>
        <pt x="291" y="484" on="1"/>
      </contour>
    </TTGlyph>
    <TTGlyph name="daggerdbl" xMin="36" yMin="-110" xMax="443" yMax="691">
      <contour>
        <pt x="294" y="483" on="1"/>
        <pt x="239" y="98" on="1"/>
        <pt x="213" y="-110" on="1"/>
        <pt x="154" y="-110" on="1"/>
        <pt x="186" y="98" on="1"/>
        <pt x="240" y="483" on="1"/>
        <pt x="266" y="691" on="1"/>
        <pt x="325" y="691" on="1"/>
      </contour>
      <contour>
        <pt x="434" y="427" on="1"/>
        <pt x="304" y="435" on="1"/>
        <pt x="311" y="484" on="1"/>
        <pt x="443" y="484" on="1"/>
      </contour>
      <contour>
        <pt x="215" y="435" on="1"/>
        <pt x="83" y="427" on="1"/>
        <pt x="91" y="484" on="1"/>
        <pt x="223" y="484" on="1"/>
      </contour>
      <contour>
        <pt x="175" y="146" on="1"/>
        <pt x="168" y="97" on="1"/>
        <pt x="36" y="97" on="1"/>
        <pt x="44" y="154" on="1"/>
      </contour>
      <contour>
        <pt x="388" y="97" on="1"/>
        <pt x="256" y="97" on="1"/>
        <pt x="263" y="146" on="1"/>
        <pt x="396" y="154" on="1"/>
      </contour>
    </TTGlyph>
    <TTGlyph name="dcaron" xMin="57" yMin="-12" xMax="677" yMax="700">
      <contour>
        <pt x="640" y="700" on="1"/>
        <pt x="659" y="700" on="1"/>
        <pt x="681" y="700" on="0"/>
        <pt x="677" y="679" on="1"/>
        <pt x="669" y="622" on="1"/>
        <pt x="662" y="565" on="0"/>
        <pt x="624" y="497" on="1"/>
        <pt x="595" y="507" on="1"/>
        <pt x="614" y="568" on="0"/>
        <pt x="622" y="609" on="1"/>
        <pt x="613" y="608" on="0"/>
        <pt x="604" y="618" on="0"/>
        <pt x="605" y="627" on="1"/>
        <pt x="613" y="680" on="1"/>
        <pt x="615" y="692" on="0"/>
        <pt x="626" y="700" on="0"/>
      </contour>
      <contour>
        <pt x="480" y="700" on="1"/>
        <pt x="544" y="700" on="1"/>
        <pt x="445" y="0" on="1"/>
        <pt x="396" y="0" on="1"/>
        <pt x="405" y="113" on="1"/>
        <pt x="290" y="-12" on="0"/>
        <pt x="169" y="-12" on="1"/>
        <pt x="90" y="-12" on="0"/>
        <pt x="37" y="109" on="0"/>
        <pt x="57" y="246" on="1"/>
        <pt x="68" y="326" on="0"/>
        <pt x="104" y="424" on="0"/>
        <pt x="165" y="478" on="0"/>
        <pt x="239" y="497" on="0"/>
        <pt x="297" y="497" on="1"/>
        <pt x="367" y="497" on="0"/>
        <pt x="454" y="485" on="1"/>
        <pt x="457" y="538" on="0"/>
        <pt x="463" y="578" on="1"/>
      </contour>
      <contour>
        <pt x="406" y="165" on="1"/>
        <pt x="443" y="440" on="1"/>
        <pt x="339" y="444" on="0"/>
        <pt x="318" y="444" on="1"/>
        <pt x="211" y="444" on="0"/>
        <pt x="139" y="370" on="0"/>
        <pt x="121" y="241" on="1"/>
        <pt x="104" y="132" on="0"/>
        <pt x="130" y="44" on="0"/>
        <pt x="185" y="44" on="1"/>
        <pt x="282" y="44" on="0"/>
      </contour>
    </TTGlyph>
</ttFont>
